<?xml version="1.0" encoding="UTF-8" standalone="no"?>
<svg width="1200px" height="1002px" viewBox="0 0 1200 1002" version="1.1" xmlns="http://www.w3.org/2000/svg" xmlns:xlink="http://www.w3.org/1999/xlink" xmlns:sketch="http://www.bohemiancoding.com/sketch/ns">
    <!-- Generator: Sketch 3.2.2 (9983) - http://www.bohemiancoding.com/sketch -->
    <title>path16525</title>
    <desc>Created with Sketch.</desc>
    <defs></defs>
    <g id="Page-1" stroke="none" stroke-width="1" fill="none" fill-rule="evenodd" sketch:type="MSPage">
        <path d="M0,0.243 L0,1001.757 L1200,1001.757 L1200,0.243 L0,0.243 L0,0.243 Z M92.065,93.847 L1107.934,93.847 L1107.934,908.154 L92.065,908.154 L92.065,93.847 L92.065,93.847 Z M301.465,211.4 C272.815,211.4 248.709,221.162 229.175,240.697 C209.641,260.232 199.878,284.337 199.878,312.987 C199.878,340.336 209.641,363.765 229.175,383.3 C248.709,402.835 272.815,412.597 301.465,412.597 C328.813,412.597 352.243,402.834 371.778,383.3 C391.313,363.766 401.075,340.336 401.075,312.987 C401.075,284.337 391.312,260.232 371.778,240.697 C352.244,221.162 328.813,211.4 301.465,211.4 L301.465,211.4 L301.465,211.4 Z M733.154,260.912 L502.661,610.57 L380.273,508.983 L199.878,743.358 L199.878,811.766 L1000.122,811.766 L1000.122,536.962 L733.154,260.912 L733.154,260.912 Z" id="path16525" fill="#A09889" sketch:type="MSShapeGroup"></path>
    </g>
</svg>