<?xml version="1.0" encoding="UTF-8" standalone="no"?>
<svg
   xmlns:dc="http://purl.org/dc/elements/1.1/"
   xmlns:cc="http://creativecommons.org/ns#"
   xmlns:rdf="http://www.w3.org/1999/02/22-rdf-syntax-ns#"
   xmlns:svg="http://www.w3.org/2000/svg"
   xmlns="http://www.w3.org/2000/svg"
   xmlns:sodipodi="http://sodipodi.sourceforge.net/DTD/sodipodi-0.dtd"
   xmlns:inkscape="http://www.inkscape.org/namespaces/inkscape"
   viewBox="0 0 1026.7961 354.70251"
   height="68.947"
   width="250"
   xml:space="preserve"
   version="1.1"
   id="svg2"
   inkscape:version="0.91 r13725"
   sodipodi:docname="unccd_logo.svg"><sodipodi:namedview
     pagecolor="#ffffff"
     bordercolor="#666666"
     borderopacity="1"
     objecttolerance="10"
     gridtolerance="10"
     guidetolerance="10"
     inkscape:pageopacity="0"
     inkscape:pageshadow="2"
     inkscape:window-width="1855"
     inkscape:window-height="1056"
     id="namedview150"
     showgrid="false"
     inkscape:zoom="1.38"
     inkscape:cx="124.27536"
     inkscape:cy="34.473499"
     inkscape:window-x="65"
     inkscape:window-y="24"
     inkscape:window-maximized="1"
     inkscape:current-layer="svg2" /><metadata
     id="metadata8"><rdf:RDF><cc:Work
         rdf:about=""><dc:format>image/svg+xml</dc:format><dc:type
           rdf:resource="http://purl.org/dc/dcmitype/StillImage" /><dc:title /></cc:Work></rdf:RDF></metadata><defs
     id="defs6"><clipPath
       id="clipPath16"
       clipPathUnits="userSpaceOnUse"><path
         id="path18"
         d="m 0,283.762 821.437,0 L 821.437,0 0,0 0,283.762 Z" /></clipPath></defs><g
     transform="matrix(1.25,0,0,-1.25,-164.6262,354.7025)"
     id="g10"><g
       id="g12"><g
         clip-path="url(#clipPath16)"
         id="g14"><g
           transform="translate(338.4633,193.066)"
           id="g20"><path
             id="path22"
             style="fill:#548ad0;fill-opacity:1;fill-rule:nonzero;stroke:none"
             d="m 0,0 c 0,-4.428 2.25,-6.641 6.753,-6.641 4.501,0 6.752,2.213 6.752,6.641 l 0,25.28 7.702,0 0,-25.112 c 0,-4.651 -1.2,-8.064 -3.6,-10.24 -2.4,-2.177 -6.018,-3.266 -10.854,-3.266 -4.837,0 -8.455,1.089 -10.855,3.266 -2.399,2.176 -3.599,5.589 -3.599,10.24 l 0,25.112 L 0,25.28 0,0 Z"
             inkscape:connector-curvature="0" /></g><g
           transform="translate(372.0023,180.398)"
           id="g24"><path
             id="path26"
             style="fill:#548ad0;fill-opacity:1;fill-rule:nonzero;stroke:none"
             d="m 0,0 -7.478,0 0,27.903 7.422,0 0,-1.562 c 2.53,1.487 4.855,2.232 6.976,2.232 3.72,0 6.287,-1.097 7.701,-3.293 1.414,-2.195 2.121,-5.58 2.121,-10.156 l 0,-15.124 -7.478,0 0,14.9 c 0,2.381 -0.279,4.139 -0.837,5.274 -0.558,1.135 -1.674,1.702 -3.349,1.702 -1.526,0 -2.995,-0.261 -4.408,-0.781 L 0,20.872 0,0 Z"
             inkscape:connector-curvature="0" /></g><path
           id="path28"
           style="fill:#548ad0;fill-opacity:1;fill-rule:nonzero;stroke:none"
           d="m 393.655,208.301 7.478,0 0,-27.903 -7.478,0 0,27.903 z m 0,11.161 7.478,0 0,-7.59 -7.478,0 0,7.59 z"
           inkscape:connector-curvature="0" /><g
           transform="translate(424.0692,201.9391)"
           id="g30"><path
             id="path32"
             style="fill:#548ad0;fill-opacity:1;fill-rule:nonzero;stroke:none"
             d="m 0,0 -6.864,0 0,-11.439 c 0,-1.117 0.028,-1.908 0.083,-2.373 0.056,-0.465 0.26,-0.865 0.614,-1.2 0.354,-0.334 0.902,-0.502 1.646,-0.502 l 4.242,0.112 0.335,-5.971 c -2.493,-0.559 -4.391,-0.838 -5.692,-0.838 -3.349,0 -5.637,0.754 -6.865,2.261 -1.228,1.507 -1.841,4.287 -1.841,8.343 l 0,11.607 -3.293,0 0,6.362 3.293,0 0,7.757 7.478,0 0,-7.757 L 0,6.362 0,0 Z"
             inkscape:connector-curvature="0" /></g><g
           transform="translate(444.8846,196.8609)"
           id="g34"><path
             id="path36"
             style="fill:#548ad0;fill-opacity:1;fill-rule:nonzero;stroke:none"
             d="M 0,0 C 0,2.232 -0.354,3.785 -1.06,4.66 -1.767,5.533 -3.005,5.972 -4.771,5.972 -6.539,5.972 -7.785,5.516 -8.51,4.604 -9.236,3.692 -9.618,2.157 -9.654,0 L 0,0 Z m -8.231,-9.403 c 0.873,-0.763 2.129,-1.144 3.767,-1.144 3.46,0 6.547,0.111 9.264,0.334 l 1.562,0.168 0.112,-5.525 c -4.279,-1.041 -8.148,-1.563 -11.608,-1.563 -4.205,0 -7.255,1.117 -9.152,3.349 -1.898,2.232 -2.846,5.86 -2.846,10.883 0,10.006 4.11,15.011 12.333,15.011 8.11,0 12.165,-4.205 12.165,-12.612 l -0.557,-5.19 -16.408,0 c 0.037,-1.712 0.493,-2.949 1.368,-3.711"
             inkscape:connector-curvature="0" /></g><g
           transform="translate(473.0109,187.0953)"
           id="g38"><path
             id="path40"
             style="fill:#548ad0;fill-opacity:1;fill-rule:nonzero;stroke:none"
             d="m 0,0 0.781,0.167 0,14.677 c -2.046,0.372 -3.87,0.558 -5.469,0.558 -3.013,0 -4.52,-2.678 -4.52,-8.036 0,-2.901 0.335,-4.967 1.004,-6.194 0.67,-1.229 1.777,-1.842 3.321,-1.842 1.543,0 3.171,0.223 4.883,0.67 m 8.259,32.367 0,-39.064 -7.422,0 0,1.172 c -2.605,-1.228 -4.855,-1.842 -6.753,-1.842 -4.055,0 -6.883,1.172 -8.482,3.516 -1.6,2.344 -2.4,6.055 -2.4,11.133 0,5.079 0.958,8.78 2.874,11.106 1.916,2.325 4.808,3.488 8.678,3.488 1.19,0 2.846,-0.187 4.967,-0.558 l 1.06,-0.223 0,11.272 7.478,0 z"
             inkscape:connector-curvature="0" /></g><g
           transform="translate(502.2521,180.398)"
           id="g42"><path
             id="path44"
             style="fill:#548ad0;fill-opacity:1;fill-rule:nonzero;stroke:none"
             d="m 0,0 0,37.948 13.003,0 9.152,-31.251 0.558,0 0,31.251 7.702,0 L 30.415,0 17.747,0 8.26,31.252 7.702,31.252 7.702,0 0,0 Z"
             inkscape:connector-curvature="0" /></g><g
           transform="translate(547.9015,192.2291)"
           id="g46"><path
             id="path48"
             style="fill:#548ad0;fill-opacity:1;fill-rule:nonzero;stroke:none"
             d="m 0,0 c -2.084,-0.187 -3.125,-1.303 -3.125,-3.349 0,-2.046 0.911,-3.068 2.734,-3.068 1.414,0 2.958,0.223 4.632,0.669 l 0.837,0.224 0,5.97 L 0,0 Z m 12.557,7.366 0,-11.607 c 0.074,-0.893 0.223,-1.517 0.446,-1.869 0.223,-0.355 0.688,-0.606 1.395,-0.754 l -0.223,-5.637 c -1.898,0 -3.414,0.131 -4.548,0.391 -1.136,0.261 -2.279,0.781 -3.433,1.562 -2.678,-1.301 -5.413,-1.953 -8.203,-1.953 -5.767,0 -8.65,3.051 -8.65,9.152 0,2.977 0.8,5.088 2.4,6.334 1.599,1.246 4.054,1.982 7.366,2.205 l 5.971,0.447 0,1.729 C 5.078,8.52 4.817,9.311 4.297,9.738 3.775,10.165 2.938,10.38 1.786,10.38 l -10.492,-0.446 -0.223,5.19 c 3.981,1.078 7.766,1.618 11.357,1.618 3.59,0 6.175,-0.745 7.757,-2.232 1.581,-1.489 2.372,-3.87 2.372,-7.144"
             inkscape:connector-curvature="0" /></g><g
           transform="translate(582.7238,201.9391)"
           id="g50"><path
             id="path52"
             style="fill:#548ad0;fill-opacity:1;fill-rule:nonzero;stroke:none"
             d="m 0,0 -6.864,0 0,-11.439 c 0,-1.117 0.028,-1.908 0.084,-2.373 0.055,-0.465 0.259,-0.865 0.613,-1.2 0.354,-0.334 0.902,-0.502 1.646,-0.502 l 4.242,0.112 0.335,-5.971 c -2.493,-0.559 -4.39,-0.838 -5.692,-0.838 -3.348,0 -5.636,0.754 -6.864,2.261 -1.229,1.507 -1.842,4.287 -1.842,8.343 l 0,11.607 -3.293,0 0,6.362 3.293,0 0,7.757 7.478,0 0,-7.757 L 0,6.362 0,0 Z"
             inkscape:connector-curvature="0" /></g><path
           id="path54"
           style="fill:#548ad0;fill-opacity:1;fill-rule:nonzero;stroke:none"
           d="m 587.802,208.301 7.478,0 0,-27.903 -7.478,0 0,27.903 z m 0,11.161 7.478,0 0,-7.59 -7.478,0 0,7.59 z"
           inkscape:connector-curvature="0" /><g
           transform="translate(608.5343,188.0992)"
           id="g56"><path
             id="path58"
             style="fill:#548ad0;fill-opacity:1;fill-rule:nonzero;stroke:none"
             d="m 0,0 c 0.762,-1.339 2.129,-2.009 4.102,-2.009 1.971,0 3.338,0.67 4.101,2.009 0.762,1.34 1.145,3.441 1.145,6.307 0,2.864 -0.383,4.947 -1.145,6.25 C 7.44,13.858 6.073,14.51 4.102,14.51 2.129,14.51 0.762,13.858 0,12.557 -0.763,11.254 -1.145,9.171 -1.145,6.307 -1.145,3.441 -0.763,1.34 0,0 m -5.776,17.049 c 1.971,2.549 5.264,3.823 9.878,3.823 4.612,0 7.905,-1.274 9.877,-3.823 1.972,-2.549 2.958,-6.13 2.958,-10.742 0,-9.786 -4.279,-14.678 -12.835,-14.678 -8.558,0 -12.836,4.892 -12.836,14.678 0,4.612 0.985,8.193 2.958,10.742"
             inkscape:connector-curvature="0" /></g><g
           transform="translate(637.3575,180.398)"
           id="g60"><path
             id="path62"
             style="fill:#548ad0;fill-opacity:1;fill-rule:nonzero;stroke:none"
             d="m 0,0 -7.478,0 0,27.903 7.422,0 0,-1.562 c 2.53,1.487 4.856,2.232 6.976,2.232 3.72,0 6.287,-1.097 7.702,-3.293 1.413,-2.195 2.12,-5.58 2.12,-10.156 l 0,-15.124 -7.478,0 0,14.9 c 0,2.381 -0.279,4.139 -0.837,5.274 -0.558,1.135 -1.674,1.702 -3.348,1.702 -1.526,0 -2.996,-0.261 -4.409,-0.781 L 0,20.872 0,0 Z"
             inkscape:connector-curvature="0" /></g><g
           transform="translate(680.6632,201.3258)"
           id="g64"><path
             id="path66"
             style="fill:#548ad0;fill-opacity:1;fill-rule:nonzero;stroke:none"
             d="m 0,0 c -4.613,0.595 -7.841,0.893 -9.683,0.893 -1.841,0 -3.032,-0.167 -3.571,-0.502 -0.54,-0.335 -0.809,-0.866 -0.809,-1.591 0,-0.726 0.363,-1.228 1.088,-1.507 0.725,-0.279 2.585,-0.689 5.58,-1.228 2.995,-0.54 5.125,-1.422 6.391,-2.65 1.264,-1.227 1.897,-3.219 1.897,-5.972 0,-6.027 -3.739,-9.041 -11.217,-9.041 -2.455,0 -5.433,0.336 -8.929,1.005 l -1.786,0.335 0.224,6.25 c 4.612,-0.596 7.821,-0.892 9.626,-0.892 1.804,0 3.032,0.175 3.683,0.53 0.651,0.352 0.977,0.884 0.977,1.591 0,0.706 -0.345,1.227 -1.033,1.562 -0.688,0.334 -2.474,0.743 -5.357,1.228 -2.884,0.483 -5.032,1.301 -6.446,2.455 -1.414,1.153 -2.12,3.209 -2.12,6.167 0,2.957 1.004,5.189 3.013,6.696 2.009,1.507 4.595,2.261 7.757,2.261 2.195,0 5.191,-0.355 8.985,-1.061 L 0.112,6.194 0,0 Z"
             inkscape:connector-curvature="0" /></g><g
           transform="translate(352.0363,119.1207)"
           id="g68"><path
             id="path70"
             style="fill:#548ad0;fill-opacity:1;fill-rule:nonzero;stroke:none"
             d="m 0,0 c -3.429,-0.699 -6.359,-1.049 -8.789,-1.049 -2.431,0 -4.387,0.259 -5.868,0.775 -1.482,0.515 -2.689,1.24 -3.621,2.172 -0.932,0.932 -1.665,2.147 -2.197,3.645 -0.999,2.73 -1.498,6.442 -1.498,11.137 0,7.523 1.198,12.502 3.596,14.931 1.963,2.032 4.96,3.047 8.989,3.047 2.763,0 5.892,-0.349 9.388,-1.049 l -0.15,-2.697 c -3.463,0.633 -6.242,0.949 -8.34,0.949 -2.097,0 -3.72,-0.224 -4.869,-0.674 -1.148,-0.449 -2.081,-1.048 -2.796,-1.797 -0.717,-0.749 -1.257,-1.79 -1.623,-3.121 -0.667,-2.265 -0.999,-5.095 -0.999,-8.491 0,-3.395 0.116,-5.934 0.35,-7.615 0.232,-1.682 0.682,-3.205 1.348,-4.569 0.665,-1.365 1.648,-2.348 2.946,-2.948 1.299,-0.598 3.097,-0.898 5.394,-0.898 2.297,0 5.16,0.316 8.589,0.949 L 0,0 Z"
             inkscape:connector-curvature="0" /></g><g
           transform="translate(359.527,131.1812)"
           id="g72"><path
             id="path74"
             style="fill:#548ad0;fill-opacity:1;fill-rule:nonzero;stroke:none"
             d="m 0,0 c 0,-3.945 0.457,-6.676 1.373,-8.189 0.916,-1.516 2.913,-2.273 5.993,-2.273 3.079,0 5.085,0.765 6.018,2.297 0.931,1.531 1.398,4.253 1.398,8.165 0,3.912 -0.524,6.592 -1.573,8.04 C 12.16,9.488 10.22,10.213 7.391,10.213 4.561,10.213 2.622,9.496 1.573,8.065 0.524,6.633 0,3.945 0,0 m -3.096,-0.075 c 0,4.694 0.79,8.023 2.372,9.988 1.581,1.964 4.277,2.946 8.09,2.946 3.812,0 6.509,-0.982 8.09,-2.946 1.581,-1.965 2.372,-5.294 2.372,-9.988 0,-4.695 -0.724,-8.04 -2.172,-10.037 -1.448,-1.998 -4.204,-2.997 -8.265,-2.997 -4.062,0 -6.825,0.999 -8.29,2.997 -1.465,1.997 -2.197,5.342 -2.197,10.037"
             inkscape:connector-curvature="0" /></g><g
           transform="translate(385.0951,118.5719)"
           id="g76"><path
             id="path78"
             style="fill:#548ad0;fill-opacity:1;fill-rule:nonzero;stroke:none"
             d="m 0,0 -2.947,0 0,24.969 2.947,0 0,-1.848 c 2.797,1.565 5.51,2.348 8.14,2.348 3.329,0 5.551,-0.883 6.667,-2.647 1.115,-1.765 1.673,-4.994 1.673,-9.688 l 0,-13.134 -2.997,0 0,12.984 c 0,3.828 -0.366,6.417 -1.098,7.766 -0.733,1.348 -2.297,2.021 -4.695,2.021 -1.165,0 -2.389,-0.173 -3.67,-0.523 C 2.738,21.898 1.748,21.54 1.049,21.174 L 0,20.675 0,0 Z"
             inkscape:connector-curvature="0" /></g><g
           transform="translate(404.7206,143.5406)"
           id="g80"><path
             id="path82"
             style="fill:#548ad0;fill-opacity:1;fill-rule:nonzero;stroke:none"
             d="m 0,0 3.296,0 6.242,-22.372 1.998,0 6.492,22.372 3.096,0 -7.291,-24.969 -6.542,0 L 0,0 Z"
             inkscape:connector-curvature="0" /></g><g
           transform="translate(431.0878,132.3043)"
           id="g84"><path
             id="path86"
             style="fill:#548ad0;fill-opacity:1;fill-rule:nonzero;stroke:none"
             d="m 0,0 14.083,0 c 0,3.297 -0.542,5.644 -1.623,7.042 C 11.377,8.44 9.646,9.14 7.266,9.14 4.885,9.14 3.079,8.415 1.848,6.967 0.615,5.519 0,3.197 0,0 m 14.582,-11.235 1.498,0.149 0.1,-2.447 c -3.763,-0.466 -6.941,-0.699 -9.538,-0.699 -3.596,0.034 -6.11,1.099 -7.541,3.196 -1.432,2.098 -2.147,5.326 -2.147,9.688 0,8.722 3.428,13.084 10.287,13.084 3.296,0 5.759,-0.941 7.391,-2.821 1.631,-1.882 2.447,-4.887 2.447,-9.015 l -0.1,-2.396 -16.979,0 c 0,-3.064 0.524,-5.336 1.573,-6.817 1.049,-1.482 2.846,-2.222 5.394,-2.222 2.546,0 5.085,0.099 7.615,0.3"
             inkscape:connector-curvature="0" /></g><g
           transform="translate(455.8575,118.5719)"
           id="g88"><path
             id="path90"
             style="fill:#548ad0;fill-opacity:1;fill-rule:nonzero;stroke:none"
             d="m 0,0 -2.947,0 0,24.969 2.947,0 0,-1.848 c 2.797,1.565 5.51,2.348 8.14,2.348 3.329,0 5.551,-0.883 6.667,-2.647 1.115,-1.765 1.673,-4.994 1.673,-9.688 l 0,-13.134 -2.997,0 0,12.984 c 0,3.828 -0.366,6.417 -1.098,7.766 -0.733,1.348 -2.297,2.021 -4.695,2.021 -1.165,0 -2.389,-0.173 -3.67,-0.523 C 2.738,21.898 1.748,21.54 1.049,21.174 L 0,20.675 0,0 Z"
             inkscape:connector-curvature="0" /></g><g
           transform="translate(490.964,140.8941)"
           id="g92"><path
             id="path94"
             style="fill:#548ad0;fill-opacity:1;fill-rule:nonzero;stroke:none"
             d="m 0,0 -8.34,0 0,-12.335 c 0,-3.229 0.233,-5.343 0.699,-6.342 0.466,-0.999 1.565,-1.498 3.296,-1.498 l 4.595,0.35 0.199,-2.548 c -2.197,-0.332 -3.878,-0.499 -5.043,-0.499 -2.531,0 -4.287,0.624 -5.269,1.873 -0.982,1.248 -1.473,3.637 -1.473,7.166 l 0,13.833 -3.695,0 0,2.646 3.695,0 0,7.841 2.996,0 0,-7.841 8.34,0 L 0,0 Z"
             inkscape:connector-curvature="0" /></g><path
           id="path96"
           style="fill:#548ad0;fill-opacity:1;fill-rule:nonzero;stroke:none"
           d="m 496.557,143.541 2.946,0 0,-24.969 -2.946,0 0,24.969 z m 0,9.988 2.946,0 0,-3.745 -2.946,0 0,3.745 z"
           inkscape:connector-curvature="0" /><g
           transform="translate(507.3434,131.1812)"
           id="g98"><path
             id="path100"
             style="fill:#548ad0;fill-opacity:1;fill-rule:nonzero;stroke:none"
             d="m 0,0 c 0,-3.945 0.458,-6.676 1.374,-8.189 0.915,-1.516 2.912,-2.273 5.992,-2.273 3.079,0 5.085,0.765 6.017,2.297 0.932,1.531 1.399,4.253 1.399,8.165 0,3.912 -0.525,6.592 -1.574,8.04 C 12.16,9.488 10.22,10.213 7.391,10.213 4.561,10.213 2.622,9.496 1.573,8.065 0.524,6.633 0,3.945 0,0 m -3.096,-0.075 c 0,4.694 0.79,8.023 2.372,9.988 1.581,1.964 4.277,2.946 8.09,2.946 3.812,0 6.509,-0.982 8.09,-2.946 1.581,-1.965 2.372,-5.294 2.372,-9.988 0,-4.695 -0.724,-8.04 -2.172,-10.037 -1.448,-1.998 -4.203,-2.997 -8.265,-2.997 -4.062,0 -6.825,0.999 -8.29,2.997 -1.465,1.997 -2.197,5.342 -2.197,10.037"
             inkscape:connector-curvature="0" /></g><g
           transform="translate(532.462,118.5719)"
           id="g102"><path
             id="path104"
             style="fill:#548ad0;fill-opacity:1;fill-rule:nonzero;stroke:none"
             d="m 0,0 -2.946,0 0,24.969 2.946,0 0,-1.848 c 2.797,1.565 5.51,2.348 8.14,2.348 3.329,0 5.551,-0.883 6.667,-2.647 1.115,-1.765 1.673,-4.994 1.673,-9.688 l 0,-13.134 -2.997,0 0,12.984 c 0,3.828 -0.366,6.417 -1.098,7.766 -0.733,1.348 -2.297,2.021 -4.695,2.021 -1.165,0 -2.388,-0.173 -3.669,-0.523 C 2.738,21.898 1.748,21.54 1.049,21.174 L 0,20.675 0,0 Z"
             inkscape:connector-curvature="0" /></g><g
           transform="translate(580.4523,140.8941)"
           id="g106"><path
             id="path108"
             style="fill:#548ad0;fill-opacity:1;fill-rule:nonzero;stroke:none"
             d="m 0,0 -8.34,0 0,-12.335 c 0,-3.229 0.233,-5.343 0.699,-6.342 0.466,-0.999 1.565,-1.498 3.296,-1.498 l 4.595,0.35 0.199,-2.548 c -2.197,-0.332 -3.878,-0.499 -5.043,-0.499 -2.531,0 -4.287,0.624 -5.269,1.873 -0.982,1.248 -1.473,3.637 -1.473,7.166 l 0,13.833 -3.695,0 0,2.646 3.695,0 0,7.841 2.996,0 0,-7.841 8.34,0 L 0,0 Z"
             inkscape:connector-curvature="0" /></g><g
           transform="translate(587.5431,131.1812)"
           id="g110"><path
             id="path112"
             style="fill:#548ad0;fill-opacity:1;fill-rule:nonzero;stroke:none"
             d="m 0,0 c 0,-3.945 0.457,-6.676 1.373,-8.189 0.915,-1.516 2.913,-2.273 5.993,-2.273 3.079,0 5.085,0.765 6.017,2.297 0.932,1.531 1.399,4.253 1.399,8.165 0,3.912 -0.525,6.592 -1.574,8.04 C 12.16,9.488 10.22,10.213 7.391,10.213 4.561,10.213 2.622,9.496 1.573,8.065 0.524,6.633 0,3.945 0,0 m -3.097,-0.075 c 0,4.694 0.791,8.023 2.372,9.988 1.581,1.964 4.278,2.946 8.091,2.946 3.812,0 6.508,-0.982 8.09,-2.946 1.581,-1.965 2.372,-5.294 2.372,-9.988 0,-4.695 -0.724,-8.04 -2.173,-10.037 -1.448,-1.998 -4.203,-2.997 -8.264,-2.997 -4.063,0 -6.826,0.999 -8.29,2.997 -1.465,1.997 -2.198,5.342 -2.198,10.037"
             inkscape:connector-curvature="0" /></g><g
           transform="translate(644.2726,119.1207)"
           id="g114"><path
             id="path116"
             style="fill:#548ad0;fill-opacity:1;fill-rule:nonzero;stroke:none"
             d="m 0,0 c -3.43,-0.699 -6.359,-1.049 -8.789,-1.049 -2.431,0 -4.387,0.259 -5.868,0.775 -1.482,0.515 -2.689,1.24 -3.62,2.172 -0.933,0.932 -1.666,2.147 -2.198,3.645 -0.999,2.73 -1.498,6.442 -1.498,11.137 0,7.523 1.199,12.502 3.596,14.931 1.963,2.032 4.96,3.047 8.988,3.047 2.764,0 5.893,-0.349 9.389,-1.049 l -0.149,-2.697 c -3.464,0.633 -6.243,0.949 -8.34,0.949 -2.098,0 -3.721,-0.224 -4.869,-0.674 -1.149,-0.449 -2.081,-1.048 -2.797,-1.797 -0.717,-0.749 -1.257,-1.79 -1.623,-3.121 -0.666,-2.265 -0.999,-5.095 -0.999,-8.491 0,-3.395 0.116,-5.934 0.349,-7.615 0.233,-1.682 0.683,-3.205 1.349,-4.569 0.665,-1.365 1.648,-2.348 2.946,-2.948 1.299,-0.598 3.097,-0.898 5.394,-0.898 2.297,0 5.16,0.316 8.59,0.949 L 0,0 Z"
             inkscape:connector-curvature="0" /></g><g
           transform="translate(651.7633,131.1812)"
           id="g118"><path
             id="path120"
             style="fill:#548ad0;fill-opacity:1;fill-rule:nonzero;stroke:none"
             d="m 0,0 c 0,-3.945 0.458,-6.676 1.374,-8.189 0.915,-1.516 2.912,-2.273 5.992,-2.273 3.079,0 5.085,0.765 6.017,2.297 0.932,1.531 1.399,4.253 1.399,8.165 0,3.912 -0.525,6.592 -1.574,8.04 C 12.16,9.488 10.22,10.213 7.391,10.213 4.561,10.213 2.622,9.496 1.573,8.065 0.524,6.633 0,3.945 0,0 m -3.096,-0.075 c 0,4.694 0.79,8.023 2.372,9.988 1.581,1.964 4.277,2.946 8.09,2.946 3.812,0 6.509,-0.982 8.09,-2.946 1.581,-1.965 2.372,-5.294 2.372,-9.988 0,-4.695 -0.724,-8.04 -2.172,-10.037 -1.448,-1.998 -4.203,-2.997 -8.265,-2.997 -4.062,0 -6.825,0.999 -8.29,2.997 -1.465,1.997 -2.197,5.342 -2.197,10.037"
             inkscape:connector-curvature="0" /></g><g
           transform="translate(677.8312,118.5719)"
           id="g122"><path
             id="path124"
             style="fill:#548ad0;fill-opacity:1;fill-rule:nonzero;stroke:none"
             d="m 0,0 -2.947,0 0,24.969 2.947,0 0,-1.848 c 2.529,1.565 5.226,2.348 8.09,2.348 2.863,0 4.894,-0.883 6.093,-2.647 1.198,0.732 2.654,1.356 4.369,1.872 1.715,0.517 3.254,0.775 4.619,0.775 3.329,0 5.552,-0.874 6.667,-2.622 1.115,-1.747 1.673,-4.986 1.673,-9.713 l 0,-13.134 -2.946,0 0,12.984 c 0,3.828 -0.358,6.417 -1.074,7.766 -0.716,1.348 -2.272,2.021 -4.669,2.021 -1.199,0 -2.431,-0.173 -3.696,-0.523 -1.266,-0.35 -2.23,-0.708 -2.896,-1.074 l -0.999,-0.499 c 0.499,-1.266 0.749,-3.829 0.749,-7.691 l 0,-12.984 -2.996,0 0,12.884 c 0,3.895 -0.358,6.517 -1.074,7.866 -0.716,1.348 -2.256,2.021 -4.619,2.021 -1.166,0 -2.356,-0.173 -3.571,-0.523 C 2.504,21.898 1.581,21.54 0.948,21.174 L 0,20.675 0,0 Z"
             inkscape:connector-curvature="0" /></g><g
           transform="translate(718.2316,121.0689)"
           id="g126"><path
             id="path128"
             style="fill:#548ad0;fill-opacity:1;fill-rule:nonzero;stroke:none"
             d="m 0,0 c 2.33,-0.2 4.202,-0.3 5.618,-0.3 1.414,0 2.688,0.199 3.82,0.6 1.131,0.398 2.005,1.073 2.622,2.021 0.616,0.95 1.024,2.032 1.223,3.246 0.2,1.215 0.3,2.823 0.3,4.82 0,3.528 -0.424,6.059 -1.273,7.591 -0.849,1.531 -2.44,2.296 -4.769,2.296 -1.133,0 -2.331,-0.141 -3.596,-0.423 C 2.679,19.567 1.697,19.276 0.999,18.977 L 0,18.577 0,0 Z m 7.79,22.972 c 3.329,0 5.644,-0.966 6.941,-2.897 1.299,-1.931 1.949,-5.268 1.949,-10.012 0,-4.745 -0.825,-8.108 -2.473,-10.088 -1.647,-1.982 -4.719,-2.972 -9.213,-2.972 -1.865,0 -4.096,0.134 -6.692,0.4 l -1.299,0.1 0,36.056 2.997,0 0,-12.435 c 2.597,1.231 5.193,1.848 7.79,1.848"
             inkscape:connector-curvature="0" /></g><g
           transform="translate(742.4513,125.6627)"
           id="g130"><path
             id="path132"
             style="fill:#548ad0;fill-opacity:1;fill-rule:nonzero;stroke:none"
             d="m 0,0 c 0,-3.362 1.381,-5.044 4.145,-5.044 1.199,0 2.513,0.142 3.945,0.425 1.431,0.282 2.563,0.574 3.396,0.874 l 1.248,0.449 0,9.039 L 4.595,4.895 C 2.963,4.761 1.789,4.295 1.074,3.496 0.357,2.697 0,1.531 0,0 m 15.681,10.438 0,-13.384 c 0.132,-1.233 1.215,-1.965 3.246,-2.198 l -0.15,-2.396 c -2.564,0 -4.444,0.665 -5.643,1.997 -3.13,-1.365 -6.259,-2.048 -9.388,-2.048 -2.231,0 -3.929,0.641 -5.094,1.923 -1.166,1.281 -1.748,3.112 -1.748,5.493 0,2.38 0.591,4.146 1.773,5.294 1.181,1.149 3.038,1.856 5.568,2.122 l 8.489,0.85 0,2.347 c 0,1.864 -0.407,3.204 -1.223,4.02 -0.816,0.814 -1.906,1.223 -3.271,1.223 -2.131,0 -4.894,-0.2 -8.29,-0.599 l -1.548,-0.149 -0.15,2.396 c 3.662,0.699 6.867,1.049 9.613,1.049 2.747,0 4.737,-0.649 5.968,-1.947 1.231,-1.299 1.848,-3.297 1.848,-5.993"
             inkscape:connector-curvature="0" /></g><g
           transform="translate(778.5568,140.8941)"
           id="g134"><path
             id="path136"
             style="fill:#548ad0;fill-opacity:1;fill-rule:nonzero;stroke:none"
             d="m 0,0 -8.34,0 0,-12.335 c 0,-3.229 0.233,-5.343 0.699,-6.342 0.466,-0.999 1.565,-1.498 3.296,-1.498 l 4.595,0.35 0.199,-2.548 c -2.197,-0.332 -3.878,-0.499 -5.043,-0.499 -2.531,0 -4.287,0.624 -5.269,1.873 -0.982,1.248 -1.473,3.637 -1.473,7.166 l 0,13.833 -3.695,0 0,2.646 3.695,0 0,7.841 2.996,0 0,-7.841 8.34,0 L 0,0 Z"
             inkscape:connector-curvature="0" /></g><g
           transform="translate(353.0851,83.7721)"
           id="g138"><path
             id="path140"
             style="fill:#548ad0;fill-opacity:1;fill-rule:nonzero;stroke:none"
             d="m 0,0 c 0,9.389 -3.046,14.083 -9.139,14.083 l -9.538,0 0,-29.164 9.538,0 C -3.046,-15.081 0,-10.055 0,0 m -9.139,-17.828 -12.634,0 0,34.708 12.634,0 c 8.223,0 12.335,-5.627 12.335,-16.88 0,-11.886 -4.112,-17.828 -12.335,-17.828"
             inkscape:connector-curvature="0" /></g><g
           transform="translate(363.3224,79.6773)"
           id="g142"><path
             id="path144"
             style="fill:#548ad0;fill-opacity:1;fill-rule:nonzero;stroke:none"
             d="m 0,0 14.083,0 c 0,3.296 -0.542,5.643 -1.623,7.041 C 11.377,8.439 9.646,9.139 7.266,9.139 4.885,9.139 3.079,8.414 1.848,6.967 0.615,5.518 0,3.196 0,0 m 14.582,-11.236 1.498,0.149 0.1,-2.446 C 12.417,-14 9.239,-14.232 6.642,-14.232 c -3.596,0.033 -6.11,1.098 -7.541,3.195 -1.432,2.098 -2.147,5.326 -2.147,9.688 0,8.722 3.428,13.084 10.287,13.084 3.296,0 5.759,-0.94 7.391,-2.821 1.631,-1.881 2.447,-4.887 2.447,-9.014 l -0.1,-2.397 -16.979,0 c 0,-3.064 0.524,-5.336 1.573,-6.816 1.049,-1.483 2.846,-2.223 5.394,-2.223 2.546,0 5.085,0.099 7.615,0.3"
             inkscape:connector-curvature="0" /></g><g
           transform="translate(394.1346,88.6656)"
           id="g146"><path
             id="path148"
             style="fill:#548ad0;fill-opacity:1;fill-rule:nonzero;stroke:none"
             d="m 0,0 c -3.929,0 -5.893,-1.415 -5.893,-4.244 0,-1.299 0.433,-2.215 1.299,-2.747 0.865,-0.532 2.821,-1.057 5.867,-1.573 3.047,-0.516 5.194,-1.223 6.443,-2.123 1.248,-0.898 1.872,-2.622 1.872,-5.168 0,-2.547 -0.816,-4.412 -2.447,-5.593 -1.631,-1.183 -4.028,-1.773 -7.191,-1.773 -1.831,0 -4.195,0.233 -7.091,0.7 l -1.448,0.199 0.199,2.646 c 3.729,-0.566 6.592,-0.848 8.59,-0.848 1.998,0 3.553,0.349 4.669,1.048 1.115,0.7 1.673,1.88 1.673,3.546 0,1.664 -0.458,2.772 -1.373,3.321 -0.916,0.549 -2.88,1.056 -5.893,1.523 -3.014,0.466 -5.136,1.132 -6.367,1.998 -1.232,0.865 -1.848,2.496 -1.848,4.894 0,2.397 0.849,4.145 2.547,5.243 1.698,1.099 3.795,1.648 6.292,1.648 1.998,0 4.495,-0.217 7.491,-0.649 L 8.74,1.849 8.64,-0.799 C 5.077,-0.267 2.198,0 0,0"
             inkscape:connector-curvature="0" /></g><g
           transform="translate(411.3134,79.6773)"
           id="g150"><path
             id="path152"
             style="fill:#548ad0;fill-opacity:1;fill-rule:nonzero;stroke:none"
             d="m 0,0 14.083,0 c 0,3.296 -0.542,5.643 -1.623,7.041 C 11.377,8.439 9.646,9.139 7.266,9.139 4.885,9.139 3.079,8.414 1.848,6.967 0.615,5.518 0,3.196 0,0 m 14.582,-11.236 1.498,0.149 0.1,-2.446 C 12.417,-14 9.239,-14.232 6.642,-14.232 c -3.596,0.033 -6.11,1.098 -7.541,3.195 -1.432,2.098 -2.147,5.326 -2.147,9.688 0,8.722 3.428,13.084 10.287,13.084 3.296,0 5.759,-0.94 7.391,-2.821 1.631,-1.881 2.447,-4.887 2.447,-9.014 l -0.1,-2.397 -16.979,0 c 0,-3.064 0.524,-5.336 1.573,-6.816 1.049,-1.483 2.846,-2.223 5.394,-2.223 2.546,0 5.085,0.099 7.615,0.3"
             inkscape:connector-curvature="0" /></g><g
           transform="translate(434.6346,65.9439)"
           id="g154"><path
             id="path156"
             style="fill:#548ad0;fill-opacity:1;fill-rule:nonzero;stroke:none"
             d="m 0,0 0,24.97 2.947,0 0,-3.596 c 1.231,0.865 2.738,1.697 4.519,2.497 1.781,0.799 3.421,1.331 4.919,1.598 l 0,-2.996 C 10.953,22.173 9.455,21.715 7.89,21.1 6.325,20.483 5.11,19.942 4.245,19.477 L 2.947,18.728 2.947,0 0,0 Z"
             inkscape:connector-curvature="0" /></g><g
           transform="translate(464.9967,88.2672)"
           id="g158"><path
             id="path160"
             style="fill:#548ad0;fill-opacity:1;fill-rule:nonzero;stroke:none"
             d="m 0,0 -8.34,0 0,-12.336 c 0,-3.229 0.233,-5.343 0.699,-6.342 0.466,-0.999 1.565,-1.498 3.297,-1.498 l 4.594,0.35 0.199,-2.547 c -2.197,-0.332 -3.878,-0.5 -5.043,-0.5 -2.531,0 -4.287,0.625 -5.269,1.873 -0.982,1.248 -1.473,3.637 -1.473,7.166 l 0,13.834 -3.695,0 0,2.646 3.695,0 0,7.84 2.996,0 0,-7.84 8.34,0 L 0,0 Z"
             inkscape:connector-curvature="0" /></g><path
           id="path162"
           style="fill:#548ad0;fill-opacity:1;fill-rule:nonzero;stroke:none"
           d="m 470.34,90.914 2.947,0 0,-24.97 -2.947,0 0,24.97 z m 0,9.987 2.947,0 0,-3.745 -2.947,0 0,3.745 z"
           inkscape:connector-curvature="0" /><g
           transform="translate(484.922,88.2672)"
           id="g164"><path
             id="path166"
             style="fill:#548ad0;fill-opacity:1;fill-rule:nonzero;stroke:none"
             d="m 0,0 0,-22.323 -2.997,0 0,22.323 -3.245,0 0,2.646 3.245,0 0,2.547 c 0,3.529 0.482,5.918 1.449,7.166 0.965,1.248 2.679,1.873 5.144,1.873 l 4.843,-0.25 0,-2.546 C 6.475,11.502 5.01,11.535 4.045,11.535 2.479,11.535 1.415,11.103 0.849,10.237 0.282,9.371 0,7.673 0,5.144 l 0,-2.498 7.541,0 L 7.541,0 0,0 Z"
             inkscape:connector-curvature="0" /></g><path
           id="path168"
           style="fill:#548ad0;fill-opacity:1;fill-rule:nonzero;stroke:none"
           d="m 497.456,90.914 2.946,0 0,-24.97 -2.946,0 0,24.97 z m 0,9.987 2.946,0 0,-3.745 -2.946,0 0,3.745 z"
           inkscape:connector-curvature="0" /><g
           transform="translate(516.5831,91.4127)"
           id="g170"><path
             id="path172"
             style="fill:#548ad0;fill-opacity:1;fill-rule:nonzero;stroke:none"
             d="m 0,0 c 1.498,0 3.278,-0.167 5.343,-0.499 l 1.149,-0.15 -0.15,-2.547 c -2.631,0.333 -4.578,0.5 -5.843,0.5 -2.964,0 -4.994,-0.725 -6.093,-2.173 -1.098,-1.448 -1.647,-4.112 -1.647,-7.99 0,-3.879 0.499,-6.584 1.498,-8.115 0.998,-1.532 3.079,-2.297 6.242,-2.297 l 5.943,0.449 0.1,-2.547 c -2.964,-0.4 -5.161,-0.599 -6.592,-0.599 -3.963,0 -6.667,0.982 -8.115,2.947 -1.448,1.963 -2.173,5.342 -2.173,10.137 0,4.794 0.791,8.14 2.372,10.037 C -6.385,-0.948 -3.729,0 0,0"
             inkscape:connector-curvature="0" /></g><g
           transform="translate(530.6154,73.0348)"
           id="g174"><path
             id="path176"
             style="fill:#548ad0;fill-opacity:1;fill-rule:nonzero;stroke:none"
             d="m 0,0 c 0,-3.362 1.381,-5.043 4.145,-5.043 1.199,0 2.513,0.141 3.945,0.424 1.431,0.283 2.563,0.574 3.396,0.874 l 1.248,0.45 0,9.038 L 4.595,4.895 C 2.963,4.762 1.789,4.295 1.074,3.496 0.357,2.697 0,1.531 0,0 m 15.681,10.438 0,-13.383 c 0.132,-1.233 1.215,-1.965 3.246,-2.199 l -0.15,-2.396 c -2.564,0 -4.444,0.665 -5.643,1.997 -3.13,-1.365 -6.259,-2.047 -9.388,-2.047 -2.231,0 -3.929,0.641 -5.094,1.922 -1.166,1.281 -1.748,3.113 -1.748,5.494 0,2.379 0.591,4.145 1.773,5.293 1.181,1.149 3.038,1.856 5.568,2.123 l 8.489,0.849 0,2.347 c 0,1.864 -0.407,3.204 -1.223,4.02 -0.816,0.815 -1.906,1.224 -3.271,1.224 -2.131,0 -4.894,-0.201 -8.29,-0.6 l -1.548,-0.149 -0.15,2.396 c 3.662,0.699 6.867,1.049 9.613,1.049 2.747,0 4.737,-0.649 5.968,-1.947 1.231,-1.299 1.848,-3.296 1.848,-5.993"
             inkscape:connector-curvature="0" /></g><g
           transform="translate(567.0206,88.2672)"
           id="g178"><path
             id="path180"
             style="fill:#548ad0;fill-opacity:1;fill-rule:nonzero;stroke:none"
             d="m 0,0 -8.34,0 0,-12.336 c 0,-3.229 0.233,-5.343 0.699,-6.342 0.466,-0.999 1.565,-1.498 3.296,-1.498 l 4.595,0.35 0.199,-2.547 c -2.197,-0.332 -3.878,-0.5 -5.043,-0.5 -2.531,0 -4.287,0.625 -5.269,1.873 -0.982,1.248 -1.473,3.637 -1.473,7.166 l 0,13.834 -3.695,0 0,2.646 3.695,0 0,7.84 2.996,0 0,-7.84 8.34,0 L 0,0 Z"
             inkscape:connector-curvature="0" /></g><path
           id="path182"
           style="fill:#548ad0;fill-opacity:1;fill-rule:nonzero;stroke:none"
           d="m 572.413,90.914 2.946,0 0,-24.97 -2.946,0 0,24.97 z m 0,9.987 2.946,0 0,-3.745 -2.946,0 0,3.745 z"
           inkscape:connector-curvature="0" /><g
           transform="translate(584.2491,78.5533)"
           id="g184"><path
             id="path186"
             style="fill:#548ad0;fill-opacity:1;fill-rule:nonzero;stroke:none"
             d="m 0,0 c 0,-3.945 0.457,-6.675 1.373,-8.189 0.915,-1.516 2.913,-2.273 5.993,-2.273 3.079,0 5.085,0.766 6.017,2.297 0.932,1.531 1.399,4.253 1.399,8.165 0,3.912 -0.525,6.593 -1.574,8.04 C 12.16,9.489 10.22,10.213 7.391,10.213 4.561,10.213 2.622,9.496 1.573,8.065 0.524,6.634 0,3.945 0,0 m -3.097,-0.075 c 0,4.695 0.791,8.023 2.372,9.988 1.581,1.964 4.278,2.946 8.091,2.946 3.812,0 6.508,-0.982 8.09,-2.946 1.581,-1.965 2.372,-5.293 2.372,-9.988 0,-4.694 -0.724,-8.039 -2.173,-10.037 -1.448,-1.998 -4.203,-2.996 -8.264,-2.996 -4.063,0 -6.826,0.998 -8.29,2.996 -1.465,1.998 -2.198,5.343 -2.198,10.037"
             inkscape:connector-curvature="0" /></g><g
           transform="translate(610.5167,65.9439)"
           id="g188"><path
             id="path190"
             style="fill:#548ad0;fill-opacity:1;fill-rule:nonzero;stroke:none"
             d="m 0,0 -2.947,0 0,24.97 2.947,0 0,-1.848 c 2.796,1.565 5.509,2.347 8.14,2.347 3.329,0 5.55,-0.882 6.667,-2.647 1.115,-1.764 1.672,-4.994 1.672,-9.688 l 0,-13.134 -2.996,0 0,12.984 c 0,3.828 -0.367,6.417 -1.098,7.766 -0.733,1.349 -2.298,2.022 -4.695,2.022 -1.166,0 -2.389,-0.174 -3.67,-0.524 C 2.738,21.898 1.748,21.54 1.048,21.174 L 0,20.675 0,0 Z"
             inkscape:connector-curvature="0" /></g><g
           transform="translate(240.7969,175.7389)"
           id="g192"><path
             id="path194"
             style="fill:#548ad0;fill-opacity:1;fill-rule:nonzero;stroke:none"
             d="m 0,0 c -0.676,-0.306 -1.359,-0.627 -2.054,-0.974 -1.386,-0.693 -2.842,-1.49 -4.341,-2.356 -1.626,-0.941 -3.308,-1.973 -5.029,-3.076 -19.334,-12.403 -43.342,-33.766 -43.342,-33.766 0,0 13.451,-4.215 25.481,-0.036 0,0 18.57,18.38 30.218,24.186 0.051,0.025 0.105,0.053 0.156,0.079 0.027,0.838 0.064,1.673 0.064,2.517 0,1.425 -0.054,2.84 -0.131,4.25 -0.12,2.173 -0.325,4.327 -0.615,6.459"
             inkscape:connector-curvature="0" /></g><g
           transform="translate(239.8166,180.6202)"
           id="g196"><path
             id="path198"
             style="fill:#548ad0;fill-opacity:1;fill-rule:nonzero;stroke:none"
             d="M 0,0 C -0.03,0.127 -0.064,0.251 -0.097,0.377 -0.147,0.582 -0.192,0.79 -0.243,0.995 -0.339,1.377 -0.457,1.75 -0.558,2.129 -0.74,2.822 -0.93,3.513 -1.13,4.199 c -0.113,0.382 -0.225,0.763 -0.344,1.143 -0.068,0.222 -0.13,0.447 -0.201,0.668 -0.284,0.886 -0.586,1.763 -0.9,2.635 -0.034,0.094 -0.065,0.189 -0.099,0.282 -0.226,0.619 -0.469,1.23 -0.709,1.842 -0.204,0.513 -0.405,1.027 -0.619,1.535 -0.144,0.343 -0.292,0.683 -0.44,1.024 -7.109,16.374 -19.654,29.984 -35.901,38.143 -10.669,5.479 -22.756,8.586 -35.574,8.586 -39.799,0 -72.593,-29.811 -77.375,-68.315 -0.006,-0.046 -0.011,-0.092 -0.017,-0.138 -0.125,-1.022 -0.234,-2.048 -0.319,-3.081 -0.017,-0.192 -0.044,-0.38 -0.06,-0.572 -0.057,-0.72 -0.096,-1.444 -0.138,-2.168 -0.021,-0.468 -0.056,-0.932 -0.07,-1.403 -0.003,-0.103 -0.013,-0.204 -0.016,-0.307 l 0.008,0 c -0.027,-0.791 -0.056,-1.582 -0.056,-2.38 0,-43.104 34.943,-78.047 78.047,-78.047 39.968,0 72.898,30.05 77.48,68.786 -1.606,-0.659 -3.197,-1.41 -4.761,-2.296 -7.09,-4.017 -13.427,-9.624 -19.034,-15.799 -9.048,-9.966 -18.126,-17.618 -30.876,-21.282 -14.504,-4.168 -32.602,-3.858 -46.158,3.869 -2.441,1.392 -4.836,3.11 -6.942,5.023 -0.835,0.758 -2.383,2.002 -2.555,3.267 -0.572,4.228 12.434,0.073 13.955,-0.322 6.486,-1.688 12.95,-3.915 19.108,-6.498 9.337,-3.916 19.541,-4.47 28.779,-0.136 4.01,1.882 7.693,4.584 10.974,7.73 0.709,0.681 2.782,2.699 3.485,4.056 -28.193,-3.404 -18.965,0.859 -84.617,30.252 -10.334,4.627 -20.305,6.919 -29.776,7.512 2.949,36.558 33.629,65.408 70.934,65.408 30.95,0 57.331,-19.864 67.11,-47.506 -6.641,-0.844 -12.928,-3.099 -16.909,-5.308 -7.514,-4.17 -47.454,-36.91 -47.454,-36.91 l 15.208,-6.944 c 0,0 5.811,6.308 20.348,17.333 11.814,8.959 20.607,15.206 27.171,19.582 1.537,1.026 2.958,1.954 4.258,2.782 2.433,1.55 4.477,2.783 6.178,3.751"
             inkscape:connector-curvature="0" /></g><g
           transform="translate(179.9835,173.7701)"
           id="g200"><path
             id="path202"
             style="fill:#548ad0;fill-opacity:1;fill-rule:nonzero;stroke:none"
             d="m 0,0 c -21.629,-14.806 -30.11,-21.623 -30.11,-21.623 0,0 9.937,-4.875 13.027,-6.355 l 31.884,26.659 c 0,0 12.406,9.14 17.424,11.763 0,0 -13.746,2.205 -32.225,-10.444"
             inkscape:connector-curvature="0" /></g><g
           transform="translate(150.1809,187.3583)"
           id="g204"><path
             id="path206"
             style="fill:#548ad0;fill-opacity:1;fill-rule:nonzero;stroke:none"
             d="m 0,0 c -0.382,-0.159 -0.763,-0.317 -1.143,-0.474 -1.328,-0.55 -2.701,-1.119 -4.023,-1.712 l -0.772,-0.347 c 0.164,-5.707 -0.173,-16.345 -3.961,-26.306 l 5.465,-2.818 C 0.095,-19.748 0.242,-6.269 0,0"
             inkscape:connector-curvature="0" /></g><g
           transform="translate(144.1059,188.4603)"
           id="g208"><path
             id="path210"
             style="fill:#548ad0;fill-opacity:1;fill-rule:nonzero;stroke:none"
             d="m 0,0 c 1.963,0.876 3.953,1.669 5.917,2.498 3.445,1.455 6.807,3.025 9.793,5.362 4.597,3.597 8.01,8.038 9.887,13.551 1.522,4.47 2.795,9.024 4.179,13.539 -0.155,0.071 -0.309,0.142 -0.464,0.212 C -3.365,25.168 -0.173,-0.077 -0.173,-0.077 -0.115,-0.051 -0.057,-0.026 0,0"
             inkscape:connector-curvature="0" /></g><g
           transform="translate(140.4396,188.9727)"
           id="g212"><path
             id="path214"
             style="fill:#548ad0;fill-opacity:1;fill-rule:nonzero;stroke:none"
             d="m 0,0 c -1.289,4.411 -3.678,8.377 -7.476,11.756 -3.078,2.738 -6.313,5.347 -9.478,8.014 -0.112,-0.073 -0.223,-0.147 -0.335,-0.22 C -20.724,-5.732 0.821,-13.488 0.821,-13.488 0.762,-8.96 1.329,-4.547 0,0"
             inkscape:connector-curvature="0" /></g><g
           transform="translate(157.7691,67.9739)"
           id="g216"><path
             id="path218"
             style="fill:#548ad0;fill-opacity:1;fill-rule:nonzero;stroke:none"
             d="m 0,0 c -3.765,0.475 -7.584,0.558 -11.362,0.2 -5.997,-0.566 -11.399,-2.399 -16.755,-5.075 -5.602,-2.798 -11.476,-5.053 -17.512,-6.722 -7.133,-1.971 -15.074,-1.178 -21.814,1.994 -0.411,0.194 -0.787,-0.332 -0.468,-0.656 3.344,-3.412 7.928,-6.31 15.08,-8.694 8.299,-2.767 15.215,-1.383 20.057,0 6.097,1.74 11.551,5.925 16.816,9.359 3.423,2.233 6.646,5.197 10.724,6.167 1.829,0.435 3.825,0.371 5.817,0.051 1.898,0.789 3.832,1.473 5.815,2.024 C 4.323,-0.752 2.201,-0.278 0,0"
             inkscape:connector-curvature="0" /></g><g
           transform="translate(165.5746,62.5147)"
           id="g220"><path
             id="path222"
             style="fill:#548ad0;fill-opacity:1;fill-rule:nonzero;stroke:none"
             d="m 0,0 c 7.313,-2.878 13.702,-8.586 19.397,-13.858 0.671,-0.621 7.189,-7.005 8.58,-8.611 0.156,-0.18 0.432,-0.188 0.6,-0.02 l 4.542,4.543 c 0.166,0.165 0.161,0.435 -0.012,0.592 C 31.293,-15.699 21.916,-7.325 11.982,-1.737 9.499,-0.34 6.989,0.933 4.42,2.026 2.416,1.747 0.41,1.187 -1.441,0.54 -0.947,0.363 -0.465,0.182 0,0"
             inkscape:connector-curvature="0" /></g><g
           transform="translate(107.0128,61.47)"
           id="g224"><path
             id="path226"
             style="fill:#548ad0;fill-opacity:1;fill-rule:nonzero;stroke:none"
             d="M 0,0 C 10.781,0.673 22.969,4.435 26.99,5.761 27.382,5.891 27.357,6.45 26.956,6.548 11.978,10.236 4.351,19.186 0,24.206 c -4.744,5.474 -9.886,9.03 -12.066,10.413 -0.34,0.215 -0.752,-0.134 -0.597,-0.505 1.443,-3.44 5.905,-13.645 9.897,-18.207 2.853,-3.261 6.668,-5.561 9.319,-6.9 0.421,-0.212 0.207,-0.849 -0.258,-0.77 -11.22,1.918 -15.613,0.873 -26.352,2.137 -8.726,1.026 -15.167,5.101 -17.907,7.134 -0.363,0.269 -0.831,-0.161 -0.593,-0.545 0.937,-1.512 2.858,-4.088 6.743,-7.972 C -24.898,2.075 -15.72,-0.981 0,0"
             inkscape:connector-curvature="0" /></g><g
           transform="translate(101.1658,74.3855)"
           id="g228"><path
             id="path230"
             style="fill:#548ad0;fill-opacity:1;fill-rule:nonzero;stroke:none"
             d="m 0,0 c 0.398,-0.086 0.667,0.402 0.377,0.689 -4.441,4.402 -8.677,12.29 -12.511,24.433 -3.2,10.132 -9.678,18.208 -12.477,21.375 -0.287,0.325 -0.814,0.04 -0.703,-0.378 1.082,-4.045 2.016,-12.221 3.514,-20.305 1.783,-9.615 10.5,-17.77 11.961,-19.08 -1.199,1.039 -7.723,6.399 -21.661,12.856 -12.09,5.6 -18.949,12.394 -21.691,15.538 -0.303,0.347 -0.859,0.011 -0.692,-0.418 1.058,-2.706 3.527,-7.876 8.96,-15.12 C -36.624,8.524 -25.275,3.683 -17.668,2.991 -11.713,2.45 -3.352,0.724 0,0"
             inkscape:connector-curvature="0" /></g><g
           transform="translate(60.4099,104.2818)"
           id="g232"><path
             id="path234"
             style="fill:#548ad0;fill-opacity:1;fill-rule:nonzero;stroke:none"
             d="m 0,0 c 5.407,-2.394 12.927,-7.488 16.049,-9.667 0.349,-0.244 0.792,0.141 0.598,0.521 -2.959,5.808 -5.715,15.758 -5.46,28.338 C 11.398,29.595 8.362,39.016 6.863,43.005 6.707,43.419 6.098,43.328 6.07,42.888 5.802,38.651 4.214,30.712 2.892,22.728 1.763,15.916 3.763,9.654 5.645,5.587 7.722,2.532 8.314,0.838 8.314,0.838 c 0,0 -1.303,1.798 -2.669,4.749 -2.283,3.356 -6.359,8.354 -13.43,14.568 -9.569,8.41 -12.928,16.683 -14.073,20.793 -0.127,0.458 -0.799,0.371 -0.805,-0.105 -0.042,-3.031 0.413,-8.56 3.085,-16.699 C -15.261,11.003 -6.985,3.093 0,0"
             inkscape:connector-curvature="0" /></g><g
           transform="translate(66.0547,109.8692)"
           id="g236"><path
             id="path238"
             style="fill:#548ad0;fill-opacity:1;fill-rule:nonzero;stroke:none"
             d="M 0,0 C 1.366,-2.952 2.67,-4.749 2.67,-4.749 2.67,-4.749 2.078,-3.055 0,0"
             inkscape:connector-curvature="0" /></g><g
           transform="translate(58.8852,123.2014)"
           id="g240"><path
             id="path242"
             style="fill:#548ad0;fill-opacity:1;fill-rule:nonzero;stroke:none"
             d="M 0,0 C 0.276,-0.243 0.705,-0.031 0.681,0.336 0.469,3.483 0.231,13.786 4.88,25.052 9.231,35.596 9.493,47.52 9.439,51.609 9.434,52.027 8.881,52.17 8.673,51.808 6.76,48.463 1.641,39.539 0.522,37.86 -0.861,35.785 -2.947,31.016 -3.97,26.391 -4.558,23.732 -4.633,20.749 -4.532,18.23 c 0.02,-0.493 -0.688,-0.593 -0.808,-0.114 -1.034,4.164 -2.438,9.621 -3.421,12.666 -1.328,4.115 -4.147,9.028 -5.855,14.151 -1.65,4.948 -2.836,8.379 -3.352,11.674 -0.071,0.454 -0.715,0.476 -0.808,0.026 -1.286,-6.287 -3.903,-23.444 2.744,-35.372 C -8.888,8.439 -2.208,1.948 0,0"
             inkscape:connector-curvature="0" /></g><g
           transform="translate(50.8804,163.1883)"
           id="g244"><path
             id="path246"
             style="fill:#548ad0;fill-opacity:1;fill-rule:nonzero;stroke:none"
             d="m 0,0 c 0.485,-1.693 0.98,-4.263 1.364,-6.455 0.072,-0.407 0.633,-0.467 0.784,-0.081 3.073,7.825 11.469,20.121 11.729,20.501 0.004,0.006 0.009,0.012 0.013,0.018 8.259,10.465 10.025,18.718 10.393,22.159 0.046,0.43 -0.521,0.628 -0.753,0.264 -1.291,-2.023 -4.225,-5.9 -9.891,-10.233 C 8.062,21.908 5.131,15.547 3.81,11.837 3.653,11.398 3.003,11.519 3.014,11.984 3.123,16.63 3.13,25.667 1.928,33.736 0.87,40.837 1.871,46.068 2.786,49.021 2.923,49.462 2.338,49.756 2.064,49.384 0.942,47.862 -0.471,45.88 -1.488,44.228 -3.83,40.423 -5.056,35.624 -5.781,31.265 -6.51,26.878 -6.6,22.346 -5.715,17.975 -4.458,11.763 -1.743,6.092 0,0"
             inkscape:connector-curvature="0" /></g><g
           transform="translate(56.2139,187.0643)"
           id="g248"><path
             id="path250"
             style="fill:#548ad0;fill-opacity:1;fill-rule:nonzero;stroke:none"
             d="m 0,0 c 0.007,-0.38 0.481,-0.548 0.724,-0.257 1.503,1.8 5.339,6.182 10.753,10.849 6.792,5.856 17.631,12.835 18.273,24.175 0.023,0.412 -0.508,0.596 -0.747,0.261 C 27.744,33.26 24.839,29.732 19.529,25.963 13.205,21.475 9.098,17.67 6.353,13.263 6.107,12.867 5.498,13.119 5.607,13.572 c 1.141,4.746 3.303,13.769 3.918,16.539 0.866,3.896 2.308,9.52 6.029,13.295 0.311,0.315 -0.026,0.832 -0.438,0.671 C 12.151,42.916 6.561,40.128 3.437,34.747 -0.955,27.183 -0.224,15.472 -0.224,13.765 -0.224,12.361 -0.058,3.218 0,0"
             inkscape:connector-curvature="0" /></g><g
           transform="translate(68.8055,211.6707)"
           id="g252"><path
             id="path254"
             style="fill:#548ad0;fill-opacity:1;fill-rule:nonzero;stroke:none"
             d="m 0,0 c 4.516,4.217 13.331,10.771 17.428,16.484 4.616,6.435 9.471,13 11.25,15.397 0.236,0.319 -0.072,0.752 -0.451,0.635 C 25.976,31.82 20.5,29.755 12.305,24.292 3.05,18.122 0.036,4.498 -0.682,0.37 -0.75,-0.017 -0.287,-0.268 0,0"
             inkscape:connector-curvature="0" /></g><g
           transform="translate(237.567,58.2421)"
           id="g256"><path
             id="path258"
             style="fill:#548ad0;fill-opacity:1;fill-rule:nonzero;stroke:none"
             d="m 0,0 c -6.74,-3.172 -14.681,-3.965 -21.814,-1.994 -6.036,1.669 -11.91,3.924 -17.512,6.723 -5.356,2.675 -10.758,4.508 -16.755,5.075 -3.778,0.357 -7.597,0.275 -11.362,-0.2 -2.044,-0.259 -4.022,-0.686 -5.957,-1.224 1.985,-0.574 3.925,-1.272 5.827,-2.081 1.841,0.256 3.674,0.279 5.364,-0.123 4.078,-0.97 7.301,-3.934 10.725,-6.166 5.264,-3.434 10.718,-7.62 16.815,-9.36 4.842,-1.383 11.758,-2.766 20.057,0 7.153,2.384 11.737,5.282 15.08,8.694 C 0.787,-0.331 0.412,0.194 0,0"
             inkscape:connector-curvature="0" /></g><g
           transform="translate(150.3366,60.6498)"
           id="g260"><path
             id="path262"
             style="fill:#548ad0;fill-opacity:1;fill-rule:nonzero;stroke:none"
             d="m 0,0 c -9.934,-5.588 -19.31,-13.963 -21.125,-15.617 -0.173,-0.158 -0.178,-0.428 -0.012,-0.593 l 4.542,-4.543 c 0.169,-0.168 0.443,-0.159 0.6,0.021 1.391,1.606 7.909,7.99 8.58,8.611 5.695,5.271 12.083,10.98 19.397,13.858 0.581,0.227 1.192,0.45 1.816,0.668 C 11.985,3.056 10.003,3.629 8.016,3.948 5.288,2.814 2.628,1.478 0,0"
             inkscape:connector-curvature="0" /></g><g
           transform="translate(158.3525,64.598)"
           id="g264"><path
             id="path266"
             style="fill:#548ad0;fill-opacity:1;fill-rule:nonzero;stroke:none"
             d="m 0,0 c 1.987,-0.319 3.969,-0.893 5.782,-1.543 1.85,0.647 3.856,1.207 5.86,1.486 C 9.74,0.752 7.8,1.45 5.815,2.024 3.832,1.473 1.898,0.789 0,0"
             inkscape:connector-curvature="0" /></g><g
           transform="translate(258.8447,78.8492)"
           id="g268"><path
             id="path270"
             style="fill:#548ad0;fill-opacity:1;fill-rule:nonzero;stroke:none"
             d="m 0,0 c -2.741,-2.033 -9.181,-6.107 -17.908,-7.134 -10.739,-1.263 -15.131,-0.218 -26.351,-2.136 -0.465,-0.08 -0.679,0.557 -0.258,0.769 2.652,1.339 6.466,3.639 9.319,6.9 3.992,4.562 8.454,14.767 9.897,18.208 0.155,0.37 -0.258,0.719 -0.597,0.505 -2.18,-1.384 -7.322,-4.94 -12.066,-10.413 -4.351,-5.02 -11.978,-13.971 -26.956,-17.658 -0.401,-0.099 -0.426,-0.658 -0.034,-0.787 4.02,-1.327 16.209,-5.089 26.99,-5.762 15.72,-0.981 24.897,2.075 31.813,8.991 3.886,3.885 5.806,6.461 6.744,7.972 C 0.831,-0.161 0.363,0.27 0,0"
             inkscape:connector-curvature="0" /></g><g
           transform="translate(279.9191,109.3851)"
           id="g272"><path
             id="path274"
             style="fill:#548ad0;fill-opacity:1;fill-rule:nonzero;stroke:none"
             d="m 0,0 c -2.742,-3.144 -9.602,-9.938 -21.692,-15.538 -13.938,-6.456 -20.461,-11.818 -21.661,-12.856 1.462,1.31 10.179,9.465 11.961,19.08 1.499,8.084 2.432,16.26 3.514,20.305 0.112,0.419 -0.416,0.703 -0.702,0.378 -2.799,-3.167 -9.277,-11.243 -12.477,-21.374 -3.835,-12.144 -8.07,-20.032 -12.511,-24.434 -0.29,-0.287 -0.022,-0.775 0.377,-0.689 3.351,0.724 11.712,2.45 17.667,2.991 7.608,0.692 18.956,5.533 27.255,16.599 5.434,7.244 7.903,12.414 8.96,15.12 C 0.859,0.011 0.302,0.347 0,0"
             inkscape:connector-curvature="0" /></g><g
           transform="translate(290.1466,144.9966)"
           id="g276"><path
             id="path278"
             style="fill:#548ad0;fill-opacity:1;fill-rule:nonzero;stroke:none"
             d="m 0,0 c -0.007,0.475 -0.678,0.563 -0.805,0.105 -1.146,-4.11 -4.504,-12.384 -14.073,-20.793 -7.071,-6.214 -11.148,-11.212 -13.43,-14.568 -1.366,-2.952 -2.669,-4.749 -2.669,-4.749 0,0 0.592,1.694 2.669,4.749 1.882,4.067 3.882,10.329 2.753,17.14 -1.322,7.985 -2.91,15.923 -3.178,20.16 -0.028,0.441 -0.638,0.532 -0.793,0.118 -1.499,-3.989 -4.535,-13.41 -4.324,-23.813 0.255,-12.58 -2.5,-22.53 -5.461,-28.338 -0.193,-0.381 0.249,-0.765 0.599,-0.521 3.122,2.179 10.642,7.273 16.049,9.667 6.985,3.092 15.261,11.002 19.577,24.144 C -0.413,-8.561 0.042,-3.031 0,0"
             inkscape:connector-curvature="0" /></g><g
           transform="translate(261.8389,109.7405)"
           id="g280"><path
             id="path282"
             style="fill:#548ad0;fill-opacity:1;fill-rule:nonzero;stroke:none"
             d="m 0,0 c -2.078,-3.055 -2.67,-4.749 -2.67,-4.749 0,0 1.304,1.797 2.67,4.749"
             inkscape:connector-curvature="0" /></g><g
           transform="translate(274.3479,141.1889)"
           id="g284"><path
             id="path286"
             style="fill:#548ad0;fill-opacity:1;fill-rule:nonzero;stroke:none"
             d="m 0,0 c -0.119,-0.48 -0.828,-0.379 -0.808,0.114 0.102,2.519 0.026,5.501 -0.562,8.161 -1.024,4.625 -3.108,9.394 -4.492,11.469 -1.119,1.679 -6.238,10.603 -8.151,13.948 -0.208,0.362 -0.761,0.219 -0.766,-0.198 -0.054,-4.09 0.209,-16.014 4.559,-26.557 4.649,-11.267 4.411,-21.57 4.2,-24.718 -0.025,-0.366 0.405,-0.578 0.68,-0.335 2.208,1.948 8.889,8.44 16.033,21.261 6.646,11.928 4.029,29.085 2.743,35.372 -0.092,0.45 -0.736,0.428 -0.808,-0.025 C 12.112,35.196 10.925,31.765 9.277,26.817 7.569,21.694 4.749,16.781 3.421,12.667 2.438,9.621 1.034,4.165 0,0"
             inkscape:connector-curvature="0" /></g><g
           transform="translate(263.3737,189.2328)"
           id="g288"><path
             id="path290"
             style="fill:#548ad0;fill-opacity:1;fill-rule:nonzero;stroke:none"
             d="m 0,0 c -5.666,4.333 -8.6,8.21 -9.891,10.233 -0.233,0.365 -0.799,0.166 -0.753,-0.264 0.368,-3.441 2.134,-11.694 10.393,-22.159 0.005,-0.006 0.009,-0.011 0.013,-0.018 0.261,-0.381 8.656,-12.676 11.729,-20.501 0.151,-0.385 0.713,-0.326 0.784,0.082 0.384,2.191 0.88,4.761 1.364,6.454 1.744,6.092 4.458,11.763 5.715,17.975 0.885,4.371 0.795,8.904 0.066,13.291 -0.725,4.358 -1.952,9.157 -4.293,12.962 -1.016,1.652 -2.43,3.635 -3.552,5.156 -0.274,0.371 -0.859,0.078 -0.722,-0.363 0.915,-2.953 1.916,-8.183 0.858,-15.284 -1.202,-8.07 -1.195,-17.107 -1.086,-21.753 0.011,-0.466 -0.639,-0.586 -0.795,-0.147 C 8.508,-10.626 5.578,-4.265 0,0"
             inkscape:connector-curvature="0" /></g><g
           transform="translate(262.1542,217.0473)"
           id="g292"><path
             id="path294"
             style="fill:#548ad0;fill-opacity:1;fill-rule:nonzero;stroke:none"
             d="m 0,0 c 0.615,-2.77 2.777,-11.793 3.918,-16.539 0.109,-0.453 -0.5,-0.705 -0.746,-0.309 -2.745,4.406 -6.852,8.212 -13.175,12.7 -5.311,3.768 -8.216,7.296 -9.475,9.064 -0.239,0.336 -0.77,0.151 -0.747,-0.261 0.642,-11.34 11.481,-18.319 18.273,-24.174 5.414,-4.667 9.25,-9.049 10.754,-10.849 0.243,-0.291 0.716,-0.123 0.723,0.256 0.059,3.219 0.223,12.362 0.223,13.765 0,1.708 0.732,13.419 -3.659,20.982 -3.125,5.382 -8.715,8.17 -11.679,9.33 -0.413,0.161 -0.749,-0.355 -0.439,-0.67 C -2.308,9.52 -0.866,3.896 0,0"
             inkscape:connector-curvature="0" /></g><g
           transform="translate(241.6591,228.0265)"
           id="g296"><path
             id="path298"
             style="fill:#548ad0;fill-opacity:1;fill-rule:nonzero;stroke:none"
             d="m 0,0 c 4.098,-5.714 12.912,-12.267 17.428,-16.485 0.287,-0.267 0.75,-0.016 0.683,0.371 -0.719,4.127 -3.733,17.751 -12.987,23.921 -8.195,5.463 -13.671,7.528 -15.922,8.225 -0.379,0.117 -0.688,-0.316 -0.451,-0.635 C -9.471,13 -4.615,6.435 0,0"
             inkscape:connector-curvature="0" /></g></g></g></g></svg>