<?xml version="1.0" encoding="UTF-8" standalone="no"?>
<svg width="1200px" height="1200px" viewBox="0 0 1200 1200" version="1.1" xmlns="http://www.w3.org/2000/svg" xmlns:xlink="http://www.w3.org/1999/xlink" xmlns:sketch="http://www.bohemiancoding.com/sketch/ns">
    <!-- Generator: Sketch 3.2.2 (9983) - http://www.bohemiancoding.com/sketch -->
    <title>path24952</title>
    <desc>Created with Sketch.</desc>
    <defs></defs>
    <g id="Page-1" stroke="none" stroke-width="1" fill="none" fill-rule="evenodd" sketch:type="MSPage">
        <path d="M600,1200 C268.63,1200 0,931.369 0,600 C0,268.63 268.63,0 600,0 C931.369,0 1200,268.63 1200,600 C1200,931.37 931.369,1200 600,1200 L600,1200 L600,1200 Z M600,130.435 C340.631,130.435 130.435,340.696 130.435,600 C130.435,859.305 340.631,1069.565 600,1069.565 C859.369,1069.565 1069.565,859.305 1069.565,600 C1069.565,340.696 859.369,130.435 600,130.435 L600,130.435 L600,130.435 Z M717.392,851.087 L482.608,851.087 L482.608,584.348 L335.87,584.348 L600,335.87 L864.131,584.348 L717.392,584.348 L717.392,851.087 L717.392,851.087 Z" id="path24952" fill="#A09889" sketch:type="MSShapeGroup"></path>
    </g>
</svg>