<?xml version="1.0" encoding="UTF-8" standalone="no"?>
<svg width="166px" height="36px" viewBox="0 0 166 36" version="1.1" xmlns="http://www.w3.org/2000/svg" xmlns:xlink="http://www.w3.org/1999/xlink" xmlns:sketch="http://www.bohemiancoding.com/sketch/ns">
    <!-- Generator: Sketch 3.2.2 (9983) - http://www.bohemiancoding.com/sketch -->
    <title>wocat_logo</title>
    <desc>Created with Sketch.</desc>
    <defs></defs>
    <g id="WOCAT" stroke="none" stroke-width="1" fill="none" fill-rule="evenodd" sketch:type="MSPage">
        <g id="01_Global-Landing-Page" sketch:type="MSArtboardGroup" transform="translate(-30.000000, -25.000000)">
            <g id="Header-home" sketch:type="MSLayerGroup" transform="translate(30.000000, 24.000000)">
                <g id="wocat_logo" transform="translate(0.000000, 1.000000)" sketch:type="MSShapeGroup">
                    <path d="M162.090188,21.9636818 C162.31439,22.1866364 162.091007,22.0414091 162.483669,22.1596364 C162.259467,21.9358636 162.482849,22.0810909 162.090188,21.9636818 L162.090188,21.9636818 Z M65.8847852,16.8578182 L65.8847852,17.0545909 L66.672158,17.0545909 L66.672158,16.8578182 L65.8847852,16.8578182 L65.8847852,16.8578182 Z M73.3613432,15.8755909 L73.3613432,16.0727727 L74.1483062,16.0727727 L74.1483062,15.8755909 L73.3613432,15.8755909 L73.3613432,15.8755909 Z M121.561595,15.4836818 C121.658736,15.5675455 121.807931,15.8469545 122.151817,15.6796364 L122.151817,15.4836818 L121.561595,15.4836818 L121.561595,15.4836818 Z M79.8533778,14.8937727 L79.8533778,15.0905455 L80.6407506,15.0905455 L80.6407506,14.8937727 L79.8533778,14.8937727 L79.8533778,14.8937727 Z M82.8053086,15.4836818 C83.1328,15.4178182 83.4607012,15.3527727 83.7886025,15.2869091 L83.7886025,15.0905455 C83.5262815,14.9592273 83.2639605,14.8287273 83.0016395,14.6974091 C82.9360593,14.9592273 82.870479,15.2214545 82.8053086,15.4836818 L82.8053086,15.4836818 Z M165.828262,21.9636818 L165.828262,22.7487273 C164.835131,22.5482727 164.277699,22.0381364 163.074301,21.9636818 L163.074301,22.1596364 L162.877151,22.1596364 C163.11242,22.4345455 163.514919,22.5932727 163.860854,22.7487273 L163.860854,22.9450909 L163.467783,22.9450909 L163.467783,22.7487273 L162.68082,22.7487273 L162.68082,22.5523636 L162.090188,22.5523636 L162.090188,22.3555909 C161.500375,22.2250909 160.909743,22.0937727 160.319931,21.9636818 L160.319931,21.7669091 C159.777664,21.627 159.221052,22.2197727 159.139077,22.1596364 C159.073496,21.9636818 159.008326,21.7669091 158.942336,21.5705455 C158.417694,21.5046818 157.893052,21.4396364 157.36882,21.3745909 L157.36882,21.5705455 L157.565151,21.5705455 C157.936909,21.7390909 157.171669,21.7669091 157.171669,21.7669091 L157.171669,21.5705455 L156.581857,21.5705455 L156.581857,20.9818636 C155.446089,20.9675455 154.647649,20.6423182 153.827486,20.3927727 L152.253151,20.3927727 L152.253151,20.196 C151.385852,19.9345909 150.846454,20.1199091 150.285743,20.196 L150.285743,19.8028636 C149.325812,19.7750455 148.825353,19.3982727 148.121595,19.2137727 C147.728114,19.2800455 147.334632,19.3450909 146.941151,19.4105455 L146.941151,19.2137727 L146.547669,19.2137727 C146.482089,19.0828636 146.416509,18.9519545 146.351338,18.8210455 C146.023027,18.7555909 145.695126,18.6905455 145.367225,18.6250909 L145.367225,18.4283182 C144.580262,18.3628636 143.793709,18.2974091 143.006746,18.2319545 L143.006746,18.036 C142.809595,18.1014545 142.613264,18.1669091 142.416114,18.2319545 L142.416114,18.036 L142.022632,18.036 L142.022632,17.8396364 C141.629151,17.7741818 141.235669,17.7091364 140.842188,17.6432727 C140.776607,17.7741818 140.711027,17.9050909 140.645447,18.036 L140.448706,18.036 L140.448706,17.8396364 C140.317546,17.9050909 140.186795,17.9701364 140.055225,18.036 L140.055225,17.8396364 C139.831022,17.6158636 139.976938,17.8388182 139.858894,17.4465 L135.727338,17.4465 L135.727338,17.2505455 L134.939965,17.2505455 L134.939965,17.0545909 L134.153002,17.0545909 L134.153002,16.8578182 C133.56319,16.9232727 132.972558,16.9887273 132.382746,17.0545909 L132.382746,16.8578182 C132.185595,16.7919545 131.989264,16.7269091 131.792114,16.6614545 L131.792114,16.8578182 C132.016316,17.0815909 131.87081,16.8590455 131.989264,17.2505455 C131.364202,17.1994091 131.237141,17.0517273 130.80841,16.8578182 C130.87399,16.9887273 130.93957,17.1196364 131.005151,17.2505455 L129.824706,17.2505455 C129.072993,16.5722727 127.158049,16.6614545 125.693151,16.6614545 C123.791733,16.5955909 121.889496,16.5305455 119.987669,16.4655 L119.987669,16.2687273 L119.594188,16.2687273 L119.594188,16.0727727 L118.414153,16.0727727 L118.414153,15.8755909 C118.189951,15.6518182 118.335457,15.8747727 118.217002,15.4836818 C117.159521,15.2869091 116.611106,15.4456364 115.462632,15.4836818 L115.462632,15.2869091 L115.659373,15.2869091 C116.031131,15.1187727 115.266301,15.0905455 115.266301,15.0905455 C115.067921,14.9138182 112.738183,14.7113182 112.31478,14.6974091 L112.31478,14.8937727 L112.708672,14.8937727 L112.708672,15.0905455 L113.298484,15.0905455 L113.298484,15.2869091 L113.102153,15.2869091 L113.102153,15.4836818 L112.31478,15.4836818 C112.337733,15.7598182 112.272973,15.5364545 112.511521,15.6796364 C112.294286,15.8665909 112.51398,15.7806818 112.11804,15.8755909 C111.839733,15.3826364 111.714721,15.3130909 110.937595,15.2869091 C111.031047,15.7279091 111.191719,15.6595909 110.740854,16.0727727 C110.544523,15.8813182 109.404657,15.3945 108.970598,15.4836818 L108.970598,15.6796364 L107.986484,15.6796364 C107.70162,15.6370909 107.339289,15.3568636 106.80604,15.4836818 C106.80604,15.4836818 106.717506,15.7598182 106.215817,15.6796364 L106.215817,15.4836818 C106.019077,15.5483182 105.822336,15.6141818 105.625595,15.6796364 L105.625595,15.4836818 L105.035373,15.4836818 L105.035373,15.2869091 L103.854928,15.2869091 L103.854928,15.4836818 C103.523748,15.5364545 103.515141,15.2987727 103.461447,15.2869091 L101.297709,15.2869091 C100.66404,15.1073182 100.003728,14.9134091 99.1335605,14.8937727 L99.1335605,15.2869091 L97.362484,15.2869091 C97.0882765,15.2386364 97.4432296,15.1138636 97.1661531,15.0905455 C96.9050617,15.2316818 95.8643852,15.6002727 95.3950765,15.4836818 L95.3950765,15.2869091 C93.5592395,15.1555909 91.7221728,15.0246818 89.8875654,14.8937727 L89.8875654,15.0905455 C90.2822765,15.2034545 90.0572543,15.0668182 90.2802272,15.2869091 L89.1006025,15.2869091 C88.4521778,15.8522727 88.2017432,15.1224545 87.5266765,15.2869091 L87.5266765,15.4836818 C87.0020346,15.5483182 86.4773926,15.6141818 85.9527506,15.6796364 L85.9527506,16.0727727 L84.9690469,16.0727727 C84.9038765,15.9414545 84.8382963,15.8101364 84.7723062,15.6796364 C84.0513333,15.7446818 83.3295407,15.8101364 82.608158,15.8755909 L82.608158,16.0727727 C82.2113975,16.1419091 81.8683309,15.7021364 81.2309728,15.8755909 L81.2309728,16.0727727 L79.8533778,16.0727727 L79.8533778,16.2687273 L78.4766025,16.2687273 L78.4766025,16.4655 C77.6896395,16.3996364 76.9026765,16.3337727 76.1157136,16.2687273 L76.1157136,16.4655 L75.5254914,16.4655 L75.5254914,16.6614545 L74.9352691,16.6614545 L74.9352691,16.8578182 C74.2142963,16.9232727 73.4925037,16.9887273 72.771121,17.0545909 C72.7055407,17.1846818 72.6399605,17.316 72.5743802,17.4465 C72.3776395,17.3810455 72.1813086,17.316 71.984158,17.2505455 L71.984158,17.4465 C71.459516,17.5119545 70.9348741,17.5774091 70.4102321,17.6432727 L70.4102321,17.2505455 C69.1642074,17.4465 67.9181827,17.6432727 66.672158,17.8396364 L66.672158,17.6432727 C66.2270321,17.4894545 65.9655309,17.7160909 65.6888642,17.4465 L65.6888642,17.0545909 C65.4679407,16.8856364 65.5519654,17.235 65.4917136,17.2505455 C65.443758,17.2628182 64.9162469,16.9482273 64.5080099,17.0545909 L64.5080099,17.2505455 L63.1308247,17.2505455 C63.1308247,17.2505455 63.1218074,17.3769545 62.7373432,17.4465 L62.7373432,17.8396364 C62.3782914,17.7066818 62.5824099,17.5610455 62.3438617,17.8396364 L62.147121,17.8396364 L62.147121,17.4465 L61.9503802,17.4465 L61.9503802,17.6432727 L60.5731951,17.6432727 L60.5731951,17.8396364 L58.8025284,17.8396364 L58.8025284,18.036 L58.0155654,18.036 L58.0155654,18.2319545 L57.0318617,18.2319545 L57.0318617,18.4283182 C56.6383802,18.3628636 56.2448988,18.2974091 55.8514173,18.2319545 L55.8514173,18.4283182 L55.4579358,18.4283182 L55.4579358,18.6250909 C54.8582864,18.864 54.7853284,18.6721364 54.2774914,18.6250909 L54.2774914,19.0174091 C53.9995951,19.0075909 54.354958,18.8689091 54.0807506,18.8210455 C53.9118815,18.45 53.8844198,19.2137727 53.8844198,19.2137727 C53.3966667,19.1270455 53.1618074,19.0333636 52.5068247,19.0174091 C52.3383654,19.2387273 52.4100938,19.3013182 52.1133432,19.4105455 C52.0227605,19.359 52.0698963,19.0685455 51.7198617,19.2137727 C51.6542815,19.3450909 51.5887012,19.476 51.523121,19.6065 C50.9328988,19.6727727 50.3426765,19.7378182 49.7524543,19.8028636 L49.7524543,19.9996364 L49.1622321,19.9996364 L49.1622321,20.196 L48.7687506,20.196 L48.7687506,20.3927727 C48.1785284,20.5232727 47.5883062,20.6537727 46.998084,20.7846818 L46.998084,20.9818636 C46.5213975,21.1336364 46.2496494,20.7675 46.0143802,20.7846818 L46.0143802,20.9818636 L45.424158,20.9818636 L45.424158,21.1778182 C44.5064444,21.2428636 43.5879111,21.3087273 42.6697877,21.3745909 L42.6697877,21.7669091 C42.2107259,21.8323636 41.7516642,21.8978182 41.2926025,21.9636818 L41.2926025,22.1596364 L39.5215259,22.1596364 L39.5215259,22.3555909 L38.3410815,22.3555909 C38.2759111,22.4865 38.209921,22.6182273 38.1443407,22.7487273 L37.7508593,22.7487273 L37.7508593,22.9450909 L37.160637,22.9450909 L37.160637,23.1410455 C36.3085037,23.3374091 35.4555506,23.5341818 34.6034173,23.7301364 L34.6034173,24.3196364 C34.4718469,24.2541818 34.3406864,24.1891364 34.2095259,24.1228636 L34.2095259,24.5155909 C34.0783654,24.4501364 33.9472049,24.3850909 33.8160444,24.3196364 L33.8160444,24.5155909 L32.8323407,24.5155909 L32.8323407,24.7127727 C32.5933827,24.7508182 32.4839457,24.3355909 32.0453778,24.5155909 C31.9797975,24.6469091 31.9146272,24.7782273 31.848637,24.9087273 L31.4555654,24.9087273 L31.4555654,24.5155909 C30.3407012,24.7774091 29.2254272,25.0396364 28.110563,25.3010455 L28.110563,25.4978182 L27.3236,25.4978182 C27.2580198,25.6283182 27.1924395,25.7596364 27.1268593,25.8909545 L26.7337877,25.8909545 L26.7337877,26.0865 L25.750084,26.0865 L25.750084,26.2836818 L24.963121,26.2836818 C24.963121,26.2836818 24.7303111,26.5909091 24.5692296,26.676 L24.5692296,26.0865 L24.3724889,26.0865 C24.0425383,26.6956364 23.7761185,26.8727727 22.798563,26.8719545 L22.798563,27.4618636 C22.4050815,27.5273182 22.0120099,27.5923636 21.6185284,27.6578182 C21.5525383,27.7883182 21.486958,27.9200455 21.4217877,28.0501364 C21.0938864,28.116 20.7655753,28.1810455 20.4376741,28.2469091 L20.4376741,28.4432727 L19.8474519,28.4432727 L19.8474519,28.6392273 L19.2572296,28.6392273 C19.1920593,28.7705455 19.1260691,28.9010455 19.0604889,29.0319545 L18.8637481,29.0319545 L18.8637481,28.836 C18.5358469,28.9665 18.2079457,29.0982273 17.8800444,29.2287273 L17.8800444,29.4246818 C18.2079457,29.4905455 18.5358469,29.556 18.8637481,29.6218636 L18.8637481,30.0141818 C17.4861531,29.7335455 15.8909136,29.2737273 14.9289333,30.4069091 C15.1531358,30.6306818 15.0076296,30.4073182 15.1256741,30.8000455 C14.7280938,30.8213182 13.3816494,30.9849545 13.1582667,31.1923636 L13.9452296,31.1923636 L13.9452296,31.5850909 C12.0630765,31.5883636 11.131837,32.4372273 9.61693333,32.7632727 C9.32346173,33.8359091 9.31239506,33.1772727 8.63322963,33.5483182 C8.56805926,33.6796364 8.50247901,33.8101364 8.43648889,33.9410455 L7.84626667,33.9410455 C7.64952593,34.2032727 7.45278519,34.4650909 7.25604444,34.7269091 C6.79698272,34.7923636 6.33792099,34.8578182 5.87926914,34.9232727 C5.26814321,35.1593182 2.99619753,36.3072273 1.94404444,35.9046818 L1.94404444,35.7091364 C0.37462716,34.9465909 0.936158025,34.5309545 0.370528395,32.9592273 C0.857051852,32.6622273 1.12142222,31.8771818 1.55097284,31.5850909 C1.81288395,31.5196364 2.07520494,31.4541818 2.33752593,31.3883182 L2.33752593,31.1923636 C2.73100741,31.0610455 3.12448889,30.9301364 3.51797037,30.8000455 L3.51797037,30.6028636 L4.10819259,30.6028636 L4.10819259,30.4069091 C4.37051358,30.3414545 4.63283457,30.2755909 4.89556543,30.2101364 L4.89556543,30.0141818 C5.22346667,29.9487273 5.55095802,29.8832727 5.87926914,29.8178182 L5.87926914,29.6218636 C6.46908148,29.4246818 7.05971358,29.2287273 7.64952593,29.0319545 L7.64952593,28.836 C7.91184691,28.7705455 8.1741679,28.7050909 8.43648889,28.6392273 L8.43648889,28.4432727 L9.02671111,28.4432727 L9.02671111,28.2469091 L9.42019259,28.2469091 L9.42019259,28.0501364 L10.0108247,28.0501364 L10.0108247,27.8541818 L10.4038963,27.8541818 L10.4038963,27.6578182 L10.9945284,27.6578182 L10.9945284,27.4618636 L11.3876,27.4618636 L11.3876,27.2646818 L11.9782321,27.2646818 L11.9782321,27.0687273 C12.3057235,27.0028636 12.6340346,26.9374091 12.9615259,26.8719545 L12.9615259,26.676 L13.3550074,26.676 L13.3550074,26.4796364 L13.9452296,26.4796364 L13.9452296,26.2836818 L14.3387111,26.2836818 L14.3387111,26.0865 L14.9289333,26.0865 L14.9289333,25.8909545 L15.3228247,25.8909545 L15.3228247,25.6937727 C15.7158963,25.6283182 16.1097877,25.5636818 16.5032691,25.4978182 L16.5032691,25.3010455 L16.8963407,25.3010455 L16.8963407,25.1050909 L17.486563,25.1050909 L17.486563,24.9087273 L18.0767852,24.9087273 L18.0767852,24.7127727 L18.6670074,24.7127727 L18.6670074,24.5155909 L19.2572296,24.5155909 L19.2572296,24.3196364 L19.651121,24.3196364 L19.651121,24.1228636 C20.2409333,23.9919545 20.8315654,23.8614545 21.4217877,23.7301364 L21.4217877,23.5341818 C21.8152691,23.4687273 22.2083407,23.4036818 22.6018222,23.3374091 L22.6018222,23.1410455 L22.9953037,23.1410455 L22.9953037,22.9450909 C23.3887852,22.8792273 23.7822667,22.8137727 24.1757481,22.7487273 L24.1757481,22.5523636 L24.5692296,22.5523636 L24.5692296,22.3555909 L25.1594519,22.3555909 L25.1594519,22.1596364 L25.750084,22.1596364 L25.750084,21.9636818 L26.7337877,21.9636818 L26.7337877,21.7669091 L27.1268593,21.7669091 L27.1268593,21.5705455 L27.7170815,21.5705455 L27.7170815,21.3745909 L28.3073037,21.3745909 L28.3073037,21.1778182 L28.8975259,21.1778182 L28.8975259,20.9818636 C29.0942667,21.0469091 29.2914173,21.1123636 29.4877481,21.1778182 C29.5533284,21.0469091 29.6193185,20.916 29.6844889,20.7846818 L30.6681926,20.7846818 L30.6681926,20.5887273 L31.2588247,20.5887273 L31.2588247,20.3927727 L31.848637,20.3927727 L31.848637,20.196 L32.4388593,20.196 L32.4388593,19.9996364 L33.2258222,19.9996364 L33.2258222,19.8028636 L33.6193037,19.8028636 L33.6193037,19.6065 C35.9142025,18.9523636 38.2103309,18.2974091 40.5052296,17.6432727 L41.686084,17.6432727 L41.686084,17.4465 L42.4730469,17.4465 L42.4730469,17.2505455 L42.8665284,17.2505455 L42.8665284,17.0545909 L43.6534914,17.0545909 L43.6534914,16.8578182 L44.6371951,16.8578182 L44.6371951,16.6614545 L45.0306765,16.6614545 L45.0306765,16.4655 C46.211121,16.2687273 47.3919753,16.0727727 48.5724198,15.8755909 L48.5724198,15.6796364 L49.3589728,15.6796364 L49.3589728,15.4836818 C50.0803556,15.4178182 50.8021481,15.3527727 51.523121,15.2869091 L51.523121,15.0905455 L52.7035654,15.0905455 L52.7035654,14.8937727 L53.8844198,14.8937727 C53.9495901,14.7636818 54.0151704,14.6319545 54.0807506,14.5014545 C54.7365531,14.4364091 55.3923556,14.3709545 56.048158,14.3046818 L56.048158,14.1083182 L57.0318617,14.1083182 L57.0318617,13.9123636 L58.0155654,13.9123636 L58.0155654,13.7164091 C59.1960099,13.6505455 60.3764543,13.5855 61.5568988,13.5192273 L61.5568988,13.3228636 L62.5406025,13.3228636 C62.6061827,13.1923636 62.671763,13.0610455 62.7373432,12.9305455 L63.7210469,12.9305455 L63.7210469,12.7341818 L64.9014914,12.7341818 L64.9014914,12.5374091 L66.0819358,12.5374091 L66.0819358,12.3414545 L67.6558617,12.3414545 C69.4859605,11.8125 71.9366123,11.8984091 73.7552346,11.3596364 C75.1975901,11.2941818 76.6407654,11.2287273 78.083121,11.1632727 L78.083121,10.9665 L80.2472691,10.9665 L80.2472691,10.7705455 C81.6900346,10.7050909 83.1328,10.6392273 84.5755654,10.5741818 L84.5755654,10.7705455 C85.7592889,11.1186818 87.3582173,10.6032273 88.1173086,10.3778182 L91.6570025,10.3778182 L92.641116,10.3778182 C92.691121,10.3667727 92.7050568,10.1262273 93.0345975,10.1810455 L93.0345975,10.3778182 L96.3787802,10.3778182 C96.4267358,10.3880455 96.4398519,10.6502727 96.7722617,10.5741818 L96.7722617,10.3778182 L97.1661531,10.3778182 L97.1661531,10.1810455 C97.8047407,9.95972727 98.9843654,10.2755455 99.3298914,10.3778182 L104.44556,10.3778182 L104.44556,10.5741818 L106.412558,10.5741818 C107.920904,10.6392273 109.429659,10.7050909 110.937595,10.7705455 L110.937595,10.9665 L112.905002,10.9665 L113.495635,10.9665 L113.495635,11.1632727 L115.659373,11.1632727 L115.659373,11.3596364 C117.43004,11.4905455 119.201116,11.6210455 120.971373,11.7519545 C122.246499,12.1238182 124.046677,12.1577727 125.299669,12.5374091 L126.677264,12.5374091 L126.677264,12.7341818 L127.463817,12.7341818 L127.463817,12.9305455 L128.05404,12.9305455 L128.05404,13.1269091 L129.038153,13.1269091 L129.038153,13.3228636 L130.021447,13.3228636 L130.021447,13.1269091 C130.432553,13.0336364 131.331822,13.4386364 131.595373,13.5192273 C132.841398,13.5855 134.087832,13.6505455 135.333447,13.7164091 L135.333447,13.9123636 L136.12041,13.9123636 L136.12041,14.1083182 L136.710632,14.1083182 L136.710632,14.3046818 L137.694746,14.3046818 L137.694746,14.5014545 L138.67804,14.5014545 L138.67804,14.6974091 L139.268262,14.6974091 L139.268262,14.8937727 C139.858484,14.9592273 140.448706,15.0246818 141.038928,15.0905455 L141.038928,15.2869091 L141.826301,15.2869091 L141.826301,15.4836818 C142.416114,15.5483182 143.006746,15.6141818 143.596558,15.6796364 L143.596558,15.8755909 L144.383521,15.8755909 L144.383521,16.0727727 L145.170484,16.0727727 L145.170484,16.2687273 L145.957857,16.2687273 L145.957857,16.4655 L146.941151,16.4655 C147.868701,16.7657727 149.163501,17.1405 150.089002,17.4465 L151.072706,17.4465 L151.072706,17.6432727 C151.531768,17.7091364 151.99124,17.7741818 152.450301,17.8396364 L152.450301,18.036 L152.843783,18.036 L152.843783,18.2319545 L153.433595,18.2319545 L153.433595,18.4283182 C154.023407,18.4945909 154.614449,18.5596364 155.204262,18.6250909 L155.204262,18.8210455 L155.991225,18.8210455 L155.991225,19.0174091 C156.450286,19.0828636 156.909758,19.1483182 157.36882,19.2137727 L157.36882,19.4105455 L157.958632,19.4105455 L157.958632,19.6065 L158.745595,19.6065 L158.745595,19.8028636 C159.139077,19.8683182 159.532558,19.9337727 159.92604,19.9996364 L159.92604,20.196 L160.516262,20.196 L160.516262,20.3927727 L161.106894,20.3927727 L161.106894,20.5887273 L161.696706,20.5887273 L161.696706,20.7846818 L162.287338,20.7846818 L162.287338,20.9818636 L163.074301,20.9818636 L163.074301,21.1778182 C163.992015,21.4396364 164.910138,21.7010455 165.828262,21.9636818 L165.828262,21.9636818 Z" id="grif" fill="#EF772E"></path>
                    <path d="M17.7833584,1.5119345 L25.4797086,23.7450186 L34.619201,0 L43.2776461,23.7450186 L51.8044877,1.5119345 L55.3904776,1.5119345 L43.1464514,32.7272727 L34.5754695,8.98225409 L25.3922454,32.7272727 L14.1973684,1.5119345 L17.7833584,1.5119345 Z M55.9168915,16.3636364 C55.9168915,7.51520385 62.6952871,1.02277922 71.0913427,1.02277922 C79.4873982,1.02277922 86.2653851,7.51520385 86.2653851,16.3636364 C86.2653851,25.1680158 79.5307211,31.7049091 71.0913427,31.7049091 C62.6515555,31.7049091 55.9168915,25.1680158 55.9168915,16.3636364 Z M59.2404919,16.3636364 C59.2404919,23.1673416 64.531605,28.5921028 71.0913427,28.5921028 C77.6506717,28.5921028 82.9417847,23.1673416 82.9417847,16.3636364 C82.9417847,9.5603467 77.6506717,4.13558555 71.0913427,4.13558555 C64.531605,4.13558555 59.2404919,9.5603467 59.2404919,16.3636364 Z M113.824866,8.0484122 C112.906503,7.1145703 111.507092,6.00285375 110.020218,5.29135516 C108.489613,4.57985657 106.696618,4.13558555 104.991086,4.13558555 C98.2572396,4.13558555 93.2718389,9.64928402 93.2718389,16.4970423 C93.2718389,24.5454545 99.6999732,28.5921028 105.035226,28.5921028 C107.002739,28.5921028 108.926929,28.0140102 110.457534,27.2135743 C112.119335,26.3686697 113.299679,25.2569531 113.824866,24.7233292 L113.824866,28.8144461 C110.588729,31.1712852 107.221397,31.7049091 105.035226,31.7049091 C96.3767814,31.7049091 89.9486472,25.0346098 89.9486472,16.4529893 C89.9486472,7.60414117 96.4642446,1.02277922 105.209744,1.02277922 C106.959416,1.02277922 110.32634,1.24512253 113.824866,3.9577109 L113.824866,8.0484122 Z M135.62077,22.8111767 L123.201409,22.8111767 L119.702882,31.1712852 L116.1173,31.1712852 L129.542488,0.0893529186 L142.617415,31.1712852 L139.031425,31.1712852 L135.62077,22.8111767 Z M134.352554,19.698786 L129.455025,7.82606889 L124.469624,19.698786 L134.352554,19.698786 Z M153.426109,4.29671374 L153.426109,31.6363636 L150.179154,31.6363636 L150.179154,4.29671374 L139.789474,4.29671374 L139.789474,1.09090909 L163.815789,1.09090909 L163.815789,4.29671374 L153.426109,4.29671374 Z" id="wocat" fill="#FFFFFF"></path>
                </g>
            </g>
        </g>
    </g>
</svg>
