<svg xmlns="http://www.w3.org/2000/svg" height="144" width="664" viewBox="0 0 164 36"><title>wocat_logo</title><defs><filter id="a" color-interpolation-filters="sRGB"><feFlood flood-opacity=".396" flood-color="#000" result="flood"/><feComposite in="flood" in2="SourceGraphic" operator="in" result="composite1"/><feGaussianBlur in="composite1" stdDeviation="1.2" result="blur"/><feOffset dx=".1" dy=".1" result="offset"/><feComposite in="SourceGraphic" in2="offset" result="fbSourceGraphic"/><feColorMatrix result="fbSourceGraphicAlpha" in="fbSourceGraphic" values="0 0 0 -1 0 0 0 0 -1 0 0 0 0 -1 0 0 0 0 1 0"/><feFlood flood-opacity=".467" flood-color="#000" result="flood"/><feComposite in2="fbSourceGraphic" in="flood" operator="in" result="composite1"/><feGaussianBlur in="composite1" stdDeviation="1.2" result="blur"/><feOffset dx=".1" dy=".1" result="offset"/><feComposite in2="offset" in="fbSourceGraphic" result="composite2"/></filter></defs><g fill="none" fill-rule="evenodd"><path d="M162.09 21.964c.224.223.001.077.394.196-.225-.224-.001-.079-.394-.196zm-96.205-5.106v.197h.787v-.197h-.787zm7.476-.982v.197h.787v-.197h-.787zm48.2-.392c.098.084.247.363.59.196v-.196h-.59zm-41.708-.59v.197h.788v-.197h-.788zm2.952.59l.984-.197v-.196l-.787-.394-.197.787zm83.023 6.48v.785c-.993-.2-1.55-.71-2.754-.785v.196h-.197c.235.275.638.433.984.589v.196h-.393v-.196h-.787v-.197h-.59v-.196l-1.771-.392v-.197c-.542-.14-1.099.453-1.18.393-.067-.196-.132-.393-.198-.59l-1.573-.195v.196h.196c.372.168-.393.196-.393.196v-.196h-.59v-.59c-1.136-.013-1.934-.339-2.755-.588h-1.574v-.197c-.867-.261-1.407-.076-1.967 0v-.393c-.96-.028-1.46-.405-2.164-.59l-1.18.198v-.197h-.394l-.197-.393-.984-.196v-.197l-2.36-.196v-.196l-.59.196v-.196h-.394v-.196c-.394-.066-.787-.13-1.18-.197l-.198.393h-.196v-.196l-.394.196v-.196c-.224-.224-.078-.001-.196-.393h-4.132v-.196h-.787v-.196h-.787v-.197c-.59.065-1.18.13-1.77.197v-.197l-.59-.197v.197c.223.224.078.001.196.393-.625-.052-.752-.2-1.18-.393l.196.393h-1.18c-.752-.679-2.667-.59-4.132-.59l-5.705-.195v-.197h-.394v-.196h-1.18v-.197c-.224-.224-.079-.001-.197-.392-1.057-.197-1.606-.038-2.754 0v-.197h.196c.372-.168-.393-.196-.393-.196-.198-.177-2.528-.38-2.951-.394v.197h.394v.197h.59v.196h-.197v.197h-.787c.023.276-.042.052.197.196-.218.187.002.1-.394.196-.278-.493-.403-.563-1.18-.59.093.442.254.374-.197.787-.196-.192-1.336-.678-1.77-.59v.197h-.985c-.284-.043-.647-.323-1.18-.196 0 0-.088.276-.59.196v-.196c-.197.064-.394.13-.59.196v-.196h-.59v-.197h-1.181v.197c-.331.052-.34-.185-.394-.197h-2.163c-.634-.18-1.294-.374-2.164-.393v.393h-1.772c-.274-.048.081-.173-.196-.196-.26.14-1.302.51-1.77.393v-.197l-5.508-.393v.197c.394.112.17-.024.392.196H89.1c-.648.565-.898-.165-1.573 0v.197c-.525.064-1.05.13-1.574.196v.393h-.984c-.065-.132-.13-.263-.197-.393l-2.164.196v.197c-.397.069-.74-.37-1.377-.197v.197h-1.378v.196h-1.376v.197l-2.361-.197v.197h-.59v.195h-.59v.197c-.722.065-1.443.13-2.165.197l-.197.392-.59-.196v.195l-1.574.197v-.392c-1.246.195-2.492.392-3.738.589v-.197c-.445-.154-.706.073-.983-.197v-.391c-.221-.17-.137.18-.197.196-.048.012-.576-.303-.984-.196v.196h-1.377s-.01.126-.394.195v.394c-.359-.133-.155-.279-.393 0h-.197v-.394h-.197v.197h-1.377v.197h-1.77v.196h-.787v.196h-.984v.196l-1.18-.196v.196h-.394v.197c-.6.239-.673.047-1.18 0v.392c-.278-.01.077-.148-.197-.196-.17-.371-.197.393-.197.393-.487-.087-.722-.18-1.377-.197-.169.222-.097.284-.394.394-.09-.052-.043-.342-.393-.197l-.197.393-1.77.196V20h-.59v.196h-.394v.197c-.59.13-1.18.26-1.77.392v.197c-.478.152-.75-.215-.985-.197v.197h-.59v.196c-.918.065-1.836.13-2.754.197v.392c-.46.065-.918.13-1.377.197v.196h-1.771v.196h-1.18l-.198.393h-.393v.196h-.59v.196l-2.558.59v.589c-.131-.066-.262-.13-.393-.197v.393l-.394-.196v.196h-.984v.197c-.239.038-.348-.377-.787-.197l-.196.393h-.393v-.393l-3.345.785v.197h-.787l-.197.393h-.393v.196h-.984v.197h-.787s-.233.307-.394.392v-.59h-.197c-.33.61-.596.787-1.573.786v.59l-1.18.196-.197.392-.984.197v.196h-.59v.196h-.59l-.198.393h-.196v-.196l-.984.393v.196l.984.197v.392c-1.378-.28-2.973-.74-3.935.393.224.224.079 0 .197.393-.398.021-1.744.185-1.968.392h.787v.393c-1.882.003-2.813.852-4.328 1.178-.294 1.073-.305.414-.984.785-.065.132-.13.262-.197.393h-.59l-.59.786-1.377.196c-.61.236-2.883 1.384-3.935.982v-.196C.374 34.947.936 34.531.371 32.96c.486-.297.75-1.082 1.18-1.374.262-.065.524-.13.787-.197v-.196l1.18-.392v-.197h.59v-.196l.788-.197v-.196l.983-.196v-.196l1.77-.59v-.196c.263-.065.525-.13.787-.197v-.196h.59v-.196h.394v-.197h.59v-.196h.394v-.196h.59v-.196h.394v-.197h.59v-.196l.984-.197v-.196h.393v-.196h.59v-.196h.394v-.198h.59v-.195h.394v-.197l1.18-.196V25.3h.393v-.196h.59v-.196h.59v-.196h.591v-.197h.59v-.196h.394v-.197l1.77-.393v-.196c.394-.065.787-.13 1.18-.197v-.196h.394v-.196l1.18-.196v-.197h.394v-.196h.59v-.196h.591v-.196h.984v-.197h.393v-.196h.59v-.196h.59v-.197h.59v-.196l.59.196.197-.393h.984v-.196h.59v-.196h.59v-.197h.59V20h.788v-.197h.393v-.197l6.886-1.963h1.181v-.197h.787v-.195h.394v-.196h.786v-.197h.984v-.197h.394v-.196c1.18-.196 2.361-.392 3.541-.59v-.195h.787v-.196l2.164-.197v-.196h1.18v-.197h1.181l.197-.393 1.967-.196v-.197h.984v-.196h.984v-.196c1.18-.065 2.36-.13 3.54-.197v-.196h.985l.196-.392h.984v-.197h1.18v-.197h1.18v-.196h1.575c1.83-.529 4.28-.443 6.1-.981l4.327-.197v-.197h2.164v-.195l4.329-.197v.197c1.183.348 2.782-.168 3.541-.393h4.524c.05-.011.064-.252.394-.197v.197h3.344c.048.01.06.272.393.196v-.196h.394v-.197c.639-.221 1.818.095 2.164.197h5.116v.196h1.967l4.525.197v.195h2.557v.197h2.164v.197l5.312.392c1.276.372 3.076.406 4.329.785h1.377v.197h.787v.197h.59v.196h.984v.196h.983v-.196c.412-.093 1.31.312 1.574.392l3.738.197v.196h.787v.196h.59v.197h.985v.196h.983v.196h.59v.197c.59.065 1.18.13 1.77.197v.196h.788v.197c.59.064 1.18.13 1.77.196v.196h.788v.197h.786v.196h.788v.196h.983c.928.3 2.222.675 3.148.981h.984v.197l1.377.197v.196h.394v.196h.59v.196c.59.067 1.18.132 1.77.197v.196h.787v.196l1.378.197v.197h.59v.195h.787v.197c.393.065.787.13 1.18.197v.196h.59v.197h.59v.196h.59v.196h.591v.197h.787v.196l2.754.786z" fill="#ef772e"/><path d="M17.783 1.512l7.697 22.233L34.62 0l8.658 23.745 8.526-22.233h3.586L43.146 32.727l-8.57-23.745-9.184 23.745L14.197 1.512h3.586zm38.134 14.852c0-8.849 6.778-15.341 15.174-15.341s15.174 6.492 15.174 15.34c0 8.805-6.734 15.342-15.174 15.342s-15.174-6.537-15.174-15.341zm3.323 0c0 6.803 5.292 12.228 11.851 12.228 6.56 0 11.85-5.425 11.85-12.228 0-6.804-5.29-12.228-11.85-12.228s-11.85 5.424-11.85 12.228zm54.585-8.316c-.918-.933-2.318-2.045-3.805-2.757-1.53-.711-3.323-1.155-5.029-1.155-6.734 0-11.72 5.513-11.72 12.361 0 8.048 6.429 12.095 11.764 12.095 1.968 0 3.892-.578 5.423-1.378 1.661-.845 2.842-1.957 3.367-2.49v4.09a15.012 15.012 0 0 1-8.79 2.89c-8.658 0-15.086-6.67-15.086-15.251 0-8.849 6.515-15.43 15.26-15.43 1.75 0 5.117.222 8.616 2.935v4.09zm21.796 14.763H123.2l-3.498 8.36h-3.586L129.542.09l13.075 31.082h-3.586l-3.41-8.36zm-1.268-3.112l-4.898-11.873L124.47 19.7h9.883zm19.073-15.402v27.34h-3.247V4.296h-10.39V1.09h24.027v3.206h-10.39z" fill="#fff" filter="url(#a)"/></g></svg>