<?xml version="1.0" standalone="no"?>
<!DOCTYPE svg PUBLIC "-//W3C//DTD SVG 20010904//EN"
 "http://www.w3.org/TR/2001/REC-SVG-20010904/DTD/svg10.dtd">
<svg version="1.0" xmlns="http://www.w3.org/2000/svg"
 width="512.000000pt" height="512.000000pt" viewBox="0 0 512.000000 512.000000"
 preserveAspectRatio="xMidYMid meet">
<metadata>
Created by potrace 1.11, written by Peter Selinger 2001-2013
</metadata>
<g transform="translate(0.000000,512.000000) scale(0.100000,-0.100000)"
fill="#000000" stroke="none">
<path d="M0 2560 l0 -2560 2560 0 2560 0 0 2560 0 2560 -2067 -1 c-1138 0
-2063 -3 -2056 -6 9 -3 6 -11 -9 -26 -14 -15 -22 -18 -25 -9 -5 13 -24 17 -21
5 5 -19 -15 -51 -35 -57 -39 -10 -67 -6 -74 10 -3 8 -11 13 -18 10 -8 -3 -16
2 -19 9 -3 8 -23 26 -45 40 l-41 25 -355 0 -355 0 0 -2560z m2755 735 c109
-297 224 -614 257 -705 95 -265 110 -302 118 -293 4 4 29 62 55 128 61 153
121 296 149 360 13 28 107 256 211 508 l188 457 179 0 c98 0 178 -3 178 -7 0
-3 -79 -194 -176 -422 -97 -229 -196 -463 -219 -521 -23 -58 -83 -199 -132
-315 -49 -115 -170 -402 -269 -637 -98 -236 -181 -428 -184 -428 -4 0 -263
706 -432 1180 -124 345 -131 362 -140 347 -4 -9 -46 -119 -92 -244 -46 -125
-109 -291 -139 -368 -30 -77 -119 -311 -197 -520 -79 -209 -146 -384 -150
-388 -4 -4 -95 212 -203 480 -446 1113 -727 1820 -727 1831 0 9 44 12 176 10
l176 -3 169 -435 c239 -615 401 -1021 405 -1017 2 1 26 63 54 137 28 74 55
144 60 155 5 11 111 288 235 615 243 643 244 644 250 639 2 -2 92 -247 200
-544z"/>
</g>
</svg>
