<?xml version="1.0" encoding="UTF-8" standalone="no"?>
<svg width="48px" height="38px" viewBox="0 0 48 38" version="1.1" xmlns="http://www.w3.org/2000/svg" xmlns:xlink="http://www.w3.org/1999/xlink">
    <!-- Generator: Sketch 3.8.3 (29802) - http://www.bohemiancoding.com/sketch -->
    <title>approach</title>
    <desc>Created with Sketch.</desc>
    <defs></defs>
    <g id="Icons" stroke="none" stroke-width="1" fill="none" fill-rule="evenodd">
        <path d="M23.9101072,23.853506 L23.9101072,23.853506 C18.3855999,23.853506 13.2304076,24.3513917 9.46989042,25.2109594 C7.7151178,25.6120601 6.34359021,26.0763016 5.47115329,26.5481679 C5.12267359,26.7366466 4.89215084,26.9062266 4.78655266,27.0243206 C4.81047971,26.9975622 4.86901131,26.8656464 4.86901131,26.6598274 L4.86901131,28.0531607 C4.86901131,27.8473417 4.81047971,27.7154259 4.78655266,27.6886675 C4.89215084,27.8067615 5.12267359,27.9763415 5.47115329,28.1648202 C6.34359021,28.6366865 7.7151178,29.100928 9.46989042,29.5020287 C13.2304076,30.3615964 18.3855999,30.8594821 23.9101072,30.8594821 C29.4346146,30.8594821 34.5898068,30.3615964 38.350324,29.5020287 C40.1050966,29.100928 41.4766242,28.6366865 42.3490611,28.1648202 C42.6975408,27.9763415 42.9280636,27.8067615 43.0336617,27.6886675 C43.0097347,27.7154259 42.9512031,27.8473417 42.9512031,28.0531607 L42.9512031,26.6598274 C42.9512031,26.8656464 43.0097347,26.9975622 43.0336617,27.0243206 C42.9280636,26.9062266 42.6975408,26.7366466 42.3490611,26.5481679 C41.4766242,26.0763016 40.1050966,25.6120601 38.350324,25.2109594 C34.5898068,24.3513917 29.4346146,23.853506 23.9101072,23.853506 L23.9101072,23.853506 L23.9101072,23.853506 L23.9101072,23.853506 Z M23.9101072,21.853506 C35.5509839,21.853506 44.9512031,24.005369 44.9512031,26.6598274 L44.9512031,28.0531607 C44.9512031,30.707619 35.5509839,32.8594821 23.9101072,32.8594821 C12.2692305,32.8594821 2.86901131,30.707619 2.86901131,28.0531607 L2.86901131,26.6598274 C2.86901131,24.005369 12.2692305,21.853506 23.9101072,21.853506 L23.9101072,21.853506 L23.9101072,21.853506 Z M12.2369456,8.07936548 C12.2369456,10.6834964 10.1913565,12.7945321 7.66795926,12.7945321 C5.14467159,12.7945321 3.09897296,10.6834964 3.09897296,8.07936548 C3.09897296,5.47523452 5.14467159,3.36419881 7.66795926,3.36419881 C10.1913565,3.36419881 12.2369456,5.47523452 12.2369456,8.07936548 L12.2369456,8.07936548 L12.2369456,8.07936548 Z M10.2369456,8.07936548 C10.2369456,6.56595471 9.07244669,5.36419881 7.66795926,5.36419881 C6.2635359,5.36419881 5.09897296,6.56600092 5.09897296,8.07936548 C5.09897296,9.59273003 6.2635359,10.7945321 7.66795926,10.7945321 C9.07244669,10.7945321 10.2369456,9.59277624 10.2369456,8.07936548 L10.2369456,8.07936548 L10.2369456,8.07936548 Z M1.3187209,24.9580155 C0.642118163,23.2359143 -0.0356900559,21.1960155 0.00146062899,20.0100988 C0.0744469304,17.6727595 1.6817894,13.7520869 1.6817894,13.7520869 C1.6817894,13.7520869 2.56310446,11.4997952 5.2617346,14.1105988 C6.43061131,15.2415512 8.44517612,13.9434863 9.57220036,17.3711345 C9.94517612,18.4434863 11.325625,20.7639917 11.325625,20.7639917 C11.325625,20.7639917 2.49943323,23.2196286 1.3187209,24.9580155 L1.3187209,24.9580155 L1.3187209,24.9580155 Z M7.6722679,17.9958398 C7.36977717,17.0758668 7.18609594,16.8910752 6.81241047,16.7814557 C6.69772796,16.7478139 6.59891102,16.7260817 6.28747853,16.6642713 C5.17277093,16.443034 4.5685251,16.2228017 3.87110465,15.5480091 C3.55040866,15.2377501 3.43558759,14.7656938 3.33000683,15.0530689 C3.13575132,15.5818034 2.85760909,16.3518048 2.74527851,16.7030101 C2.57657055,17.2304811 2.42975249,17.7387613 2.31126035,18.2143854 C2.12231019,18.972826 2.01481488,19.6136563 2.00048,20.0727212 C1.98217204,20.657144 2.30368888,21.5764574 2.30368888,21.5764574 L8.29594916,19.380135 C8.29594916,19.380135 7.84217058,18.4852166 7.6722679,17.9958398 L7.6722679,17.9958398 L7.6722679,17.9958398 Z M35.6534058,8.07936548 C35.6534058,5.47523452 37.6989949,3.36419881 40.2223921,3.36419881 C42.7456798,3.36419881 44.7913784,5.47523452 44.7913784,8.07936548 C44.7913784,10.6834964 42.7456798,12.7945321 40.2223921,12.7945321 C37.6989949,12.7945321 35.6534058,10.6834964 35.6534058,8.07936548 L35.6534058,8.07936548 L35.6534058,8.07936548 Z M37.6534058,8.07936548 C37.6534058,9.59277624 38.8179047,10.7945321 40.2223921,10.7945321 C41.6268155,10.7945321 42.7913784,9.59273003 42.7913784,8.07936548 C42.7913784,6.56600092 41.6268155,5.36419881 40.2223921,5.36419881 C38.8179047,5.36419881 37.6534058,6.56595471 37.6534058,8.07936548 L37.6534058,8.07936548 L37.6534058,8.07936548 Z M38.318151,17.3711345 C39.4451753,13.9434863 41.4597401,15.2415512 42.6286168,14.1105988 C45.3272469,11.4997952 46.208562,13.7520869 46.208562,13.7520869 C46.208562,13.7520869 47.8159045,17.6727595 47.8888908,20.0100988 C47.9260415,21.1960155 47.2482332,23.2359143 46.5716305,24.9580155 C45.3909182,23.2196286 41.7022606,21.7282417 36.5915757,20.7863845 L36.5647264,20.7639917 C36.5647264,20.7639917 37.9451753,18.4434863 38.318151,17.3711345 L38.318151,17.3711345 L38.318151,17.3711345 Z M45.5778555,21.723033 C45.5778555,21.723033 45.9004979,20.4119389 45.8898651,20.0725208 C45.8755365,19.6136563 45.7680412,18.972826 45.579091,18.2143854 C45.4605989,17.7387613 45.3137808,17.2304811 45.1450729,16.7030101 C44.971689,16.1609196 44.785099,15.6288378 44.5987117,15.1314951 C44.4879281,14.835888 44.3399427,15.2377501 44.0193208,15.5479374 C43.3218263,16.2228017 42.7175805,16.443034 41.6028729,16.6642713 C41.2914404,16.7260817 41.1926234,16.7478139 41.0779409,16.7814557 C40.7042555,16.8910752 40.5205742,17.0758668 40.2071535,18.0281504 C40.0762468,18.4045233 39.8757563,18.8515972 39.6117284,19.3767085 C39.5551216,19.4892908 39.4955942,19.6054601 39.4332059,19.7252888 C39.3744226,19.8381934 45.5778555,21.723033 45.5778555,21.723033 L45.5778555,21.723033 L45.5778555,21.723033 Z M15.6782935,20.0316661 C15.6782935,20.0316661 15.4168141,20.2162375 14.3592798,20.3393982 C15.3083209,17.9568208 17.0944031,13.557303 17.6087045,12.8773744 C18.9785675,11.0663804 20.6224031,11.094428 20.6224031,11.094428 L26.3759373,11.0680768 C26.6457456,11.0832315 28.1073346,11.2126125 29.3454716,12.8494399 C29.8539647,13.521678 31.6055264,17.8366006 32.5623483,20.2407792 C31.499225,20.131303 31.2398278,19.9730827 31.2398278,19.9730827 L28.734951,16.319428 L26.9763757,19.8685827 C25.975499,19.8353327 20.8971428,19.8551244 19.4641565,19.9253565 L17.867225,16.8363863 L15.6782935,20.0316661 L15.6782935,20.0316661 L15.6782935,20.0316661 Z M19.6438508,15.9179088 L20.6721866,17.8903542 L25.7493884,17.8401666 L26.9428764,15.4314706 C26.9428764,15.4314706 27.6894554,13.9770064 27.6587955,13.939606 C27.3505749,13.5636236 27.0301265,13.3270793 26.7056509,13.1871622 C26.5043596,13.1003634 26.3570838,13.0701702 26.2637768,13.0649293 L26.3850972,13.0680558 L20.5882835,13.0941369 C20.6343262,13.0946015 20.5659063,13.1033491 20.4345418,13.1439752 C20.1572862,13.2297199 19.8672294,13.3927944 19.5763493,13.6660556 C19.4489932,13.7856977 19.3245814,13.9242099 19.2037872,14.0839029 C19.1582333,14.1441271 18.9615973,14.5389606 18.9615973,14.5389606 L19.6438508,15.9179088 L19.6438508,15.9179088 L19.6438508,15.9179088 Z M18.8918168,4.71516667 C18.8918168,2.11103571 20.9374058,0 23.4608031,0 C25.9840908,0 28.0297894,2.11103571 28.0297894,4.71516667 C28.0297894,7.31929762 25.9840908,9.43033333 23.4608031,9.43033333 C20.9374058,9.43033333 18.8918168,7.31929762 18.8918168,4.71516667 L18.8918168,4.71516667 L18.8918168,4.71516667 Z M20.8918168,4.71516667 C20.8918168,6.22857743 22.0563157,7.43033333 23.4608031,7.43033333 C24.8652265,7.43033333 26.0297894,6.22853122 26.0297894,4.71516667 C26.0297894,3.20180211 24.8652265,2 23.4608031,2 C22.0563157,2 20.8918168,3.2017559 20.8918168,4.71516667 L20.8918168,4.71516667 L20.8918168,4.71516667 Z M40.6772305,32.8812304 L40.6772305,33.0293851 C40.6772305,35.6838435 33.1821072,37.8357065 23.9101072,37.8357065 C14.6381072,37.8357065 7.14298392,35.6838435 7.14298392,33.0293851 L7.14298392,32.8812304 C10.9822168,34.036272 17.0573949,34.7821351 23.9101072,34.7821351 C30.7628195,34.7821351 36.8379976,34.036272 40.6772305,32.8812304 L40.6772305,32.8812304 L40.6772305,32.8812304 Z" id="approach" fill="#000000"></path>
    </g>
</svg>