<?xml version="1.0" encoding="UTF-8" standalone="no"?>
<svg width="72px" height="72px" viewBox="0 0 72 72" version="1.1" xmlns="http://www.w3.org/2000/svg" xmlns:xlink="http://www.w3.org/1999/xlink">
    <!-- Generator: Sketch 3.8.3 (29802) - http://www.bohemiancoding.com/sketch -->
    <title>icon/biodiversity</title>
    <desc>Created with Sketch.</desc>
    <defs></defs>
    <g id="Icons" stroke="none" stroke-width="1" fill="none" fill-rule="evenodd">
        <g id="icon/biodiversity">
            <g id="biodiversity">
                <g>
                    <rect id="Rectangle-path" fill-opacity="0.799999952" fill="#5F594F" x="0" y="0" width="72" height="72"></rect>
                    <path d="M34.3355332,23.3286355 C33.1680977,19.799119 28.9912916,18.2082395 25.7001566,20.0740752 L27.1714328,21.1521744 C27.956806,17.4621577 25.119283,14.0666667 21.3553923,14.0666667 C17.5937389,14.0666667 14.7522966,17.4619292 15.5371483,21.1520372 L17.0090411,20.0744085 C13.7202936,18.2069902 9.54395941,19.7966667 8.37728859,23.3290507 C7.20173433,26.872109 9.63931564,30.5774353 13.4231088,30.9670082 L12.8630527,29.2231809 C10.0299483,31.7287083 10.2708617,36.1431515 13.3382427,38.3318831 C16.3922089,40.5082296 20.7227355,39.38251 22.2668113,35.9624129 L20.4439733,35.9624129 C21.9872547,39.3807503 26.3187403,40.5048263 29.371463,38.3326519 C32.4375707,36.1476534 32.6864406,31.7272578 29.8467819,29.2223417 L29.2878848,30.9669867 C33.0673923,30.5770527 35.5076641,26.8745157 34.3355905,23.3288086 L34.3355332,23.3286355 Z M32.4366506,23.9565247 C33.2051419,26.2813317 31.5992417,28.7179067 29.0826331,28.9775466 L26.8115657,29.211854 L28.5237361,30.7221916 C30.394398,32.3723376 30.2316074,35.2638045 28.2113553,36.7034958 C26.1775761,38.1506374 23.2876876,37.4006744 22.2668113,35.1394538 L21.3553923,33.120679 L20.4439733,35.1394538 C19.4222335,37.4025872 16.5339919,38.153385 14.4994294,36.7034958 C12.4777297,35.2609105 12.3201384,32.3732419 14.1879986,30.7213525 L15.8957953,29.2110194 L13.6279426,28.9775251 C11.1085308,28.7181307 9.50512809,26.2808252 10.2759602,23.9575763 C11.0460293,21.6260046 13.8269445,20.5674793 16.0214974,21.8135915 L17.9562525,22.9121851 L17.4933902,20.7359628 C16.9764931,18.3056873 18.8502946,16.0666667 21.3553923,16.0666667 C23.8620096,16.0666667 25.7326007,18.3050892 25.2152493,20.7358256 L24.7524131,22.9104267 L26.6865255,21.8139248 C28.8837556,20.5682541 31.6665132,21.6281624 32.4367079,23.9566978 L32.4366506,23.9565247 Z" id="Shape" fill="#FFFFFF" transform="translate(21.355594, 26.756722) scale(-1, 1) translate(-21.355594, -26.756722) "></path>
                    <path d="M21.3666667,32.0666667 C24.0162471,32.0666667 26.1717949,29.9517896 26.1717949,27.3333333 C26.1717949,24.7148771 24.0162471,22.6 21.3666667,22.6 C18.7170863,22.6 16.5615385,24.7148771 16.5615385,27.3333333 C16.5615385,29.9517896 18.7170863,32.0666667 21.3666667,32.0666667 L21.3666667,32.0666667 Z M21.3666667,30.0666667 C19.8132185,30.0666667 18.5615385,28.8386032 18.5615385,27.3333333 C18.5615385,25.8280635 19.8132185,24.6 21.3666667,24.6 C22.9201148,24.6 24.1717949,25.8280635 24.1717949,27.3333333 C24.1717949,28.8386032 22.9201148,30.0666667 21.3666667,30.0666667 L21.3666667,30.0666667 Z" id="Oval" fill="#FFFFFF" transform="translate(21.366667, 27.333333) scale(-1, 1) translate(-21.366667, -27.333333) "></path>
                    <path d="M22.3504038,56.7687181 C22.3691791,56.5856984 22.4069488,56.2388867 22.4635181,55.7517554 C22.5580282,54.9379079 22.6709565,54.0305653 22.802096,53.0532423 C23.176599,50.2622424 23.6215486,47.4718753 24.1347415,44.8717763 C24.8898827,41.0458427 25.7276296,37.9739165 26.6280188,35.9614634 C26.8535701,35.4573354 26.6277391,34.8658135 26.1236111,34.6402622 C25.6194831,34.4147108 25.0279611,34.6405419 24.8024098,35.1446699 C23.8260268,37.3269761 22.954643,40.5222451 22.1725957,44.484499 C21.6505636,47.1293817 21.1994128,49.9586379 20.8198614,52.7872613 C20.6870819,53.7768065 20.5726983,54.6958414 20.4768689,55.5210508 C20.4432804,55.8102886 20.4143958,56.0672874 20.3902361,56.2891283 C20.3756629,56.4229432 20.3659576,56.5148107 20.3608454,56.5646166 C20.3044843,57.1140179 20.7041724,57.6050854 21.2535738,57.6614465 C21.8029752,57.7178076 22.2940427,57.3181195 22.3504038,56.7687181 L22.3504038,56.7687181 Z" id="Shape" fill="#FFFFFF" transform="translate(23.535505, 46.109782) scale(-1, 1) translate(-23.535505, -46.109782) "></path>
                    <path d="M49.2009913,23.6054819 C49.2009913,23.420368 49.3482844,23.2721486 49.5259913,23.2721486 C49.7036982,23.2721486 49.8509913,23.420368 49.8509913,23.6054819 L49.8509913,33.3832597 C49.8509913,33.5683735 49.7036982,33.716593 49.5259913,33.716593 C49.3482844,33.716593 49.2009913,33.5683735 49.2009913,33.3832597 L49.2009913,23.6054819 L49.2009913,23.6054819 Z M47.2009913,23.6054819 L47.2009913,33.3832597 C47.2009913,34.6701458 48.2408982,35.716593 49.5259913,35.716593 C50.8110844,35.716593 51.8509913,34.6701458 51.8509913,33.3832597 L51.8509913,23.6054819 C51.8509913,22.3185958 50.8110844,21.2721486 49.5259913,21.2721486 C48.2408982,21.2721486 47.2009913,22.3185958 47.2009913,23.6054819 L47.2009913,23.6054819 Z" id="Shape" fill="#FFFFFF" transform="translate(49.525991, 28.494371) rotate(-30.000000) translate(-49.525991, -28.494371) "></path>
                    <path d="M45.8956695,24.2112913 L42.3084528,20.6157358 C41.9183822,20.2247584 41.2852176,20.2240233 40.8942402,20.6140939 C40.5032628,21.0041646 40.5025277,21.6373291 40.8925984,22.0283066 L44.479815,25.6238621 C44.8698857,26.0148395 45.5030502,26.0155746 45.8940276,25.6255039 C46.285005,25.2354333 46.2857401,24.6022687 45.8956695,24.2112913 L45.8956695,24.2112913 Z" id="Shape" fill="#FFFFFF" transform="translate(43.394134, 23.119799) rotate(-30.000000) translate(-43.394134, -23.119799) "></path>
                    <path d="M46.8489898,23.0017276 L50.4388565,19.4061721 C50.8290714,19.0153387 50.8285701,18.3821739 50.4377368,17.9919589 C50.0469034,17.601744 49.4137387,17.6022453 49.0235237,17.9930786 L45.433657,21.5886342 C45.043442,21.9794675 45.0439433,22.6126323 45.4347767,23.0028473 C45.82561,23.3930623 46.4587748,23.392561 46.8489898,23.0017276 L46.8489898,23.0017276 Z" id="Shape" fill="#FFFFFF" transform="translate(47.936257, 20.497403) rotate(-30.000000) translate(-47.936257, -20.497403) "></path>
                    <path d="M50.5318852,36.6643441 C50.5318852,38.8031476 49.5216367,39.9990806 48.1730639,40.1035537 C46.946064,40.1986086 45.9687185,39.34819 45.9687185,37.9541219 C45.9687185,36.7996868 46.8927466,35.8865663 48.0568519,35.8865663 L52.1826851,35.8865663 L48.5147055,33.9975387 C48.2308761,33.8513652 47.9478203,33.7080513 47.5916866,33.5295696 C47.560701,33.5140408 46.9239411,33.1956668 46.7492288,33.1077343 C46.1166116,32.7893386 45.6998074,32.5700856 45.3297804,32.3567552 C43.767093,31.4558241 43.2568852,30.7610102 43.2568852,29.4145663 C43.2568852,28.3134557 43.8347683,27.2962167 44.7759582,26.7376306 C45.7139613,26.183341 46.8732452,26.1689525 47.8252548,26.7008754 L49.7189481,27.7594452 L50.6948222,26.0136875 L48.8009556,24.9550209 C47.2272589,24.0757385 45.3089992,24.099547 43.7568442,25.0167578 C42.2063079,25.9369824 41.2568852,27.608237 41.2568852,29.4145663 C41.2568852,31.5733698 42.2040796,32.8632831 44.3308508,34.0894236 C44.7412268,34.3260163 45.1863216,34.560151 45.8500898,34.8942249 C46.0276063,34.9835688 46.6666961,35.3031077 46.6955935,35.3175901 C47.0457201,35.4930613 47.3226841,35.6332908 47.5989983,35.7755939 L48.0568519,33.8865663 C45.7934584,33.8865663 43.9687185,35.6897662 43.9687185,37.9541219 C43.9687185,40.5427946 45.9658258,42.2805395 48.3275398,42.097579 C50.7590281,41.9092131 52.5318852,39.8105036 52.5318852,36.6643441 L50.5318852,36.6643441 L50.5318852,36.6643441 Z" id="Shape" fill="#FFFFFF" transform="translate(46.894385, 33.211295) rotate(-30.000000) translate(-46.894385, -33.211295) "></path>
                    <path d="M49.2868587,32.0274904 C49.2868587,35.1615507 51.0600656,37.2569518 53.4891241,37.4502287 C55.8519855,37.6382384 57.8500254,35.9066726 57.8500254,33.3172682 C57.8500254,31.0529125 56.0252856,29.2497127 53.761892,29.2497127 L54.2197456,31.1387403 C54.4960599,30.9964371 54.7730238,30.8562076 55.1231504,30.6807364 C55.1520478,30.6662541 55.7911376,30.3467151 55.9686541,30.2573713 C56.6324223,29.9232974 57.0775171,29.6891626 57.4878931,29.4525699 C59.6146644,28.2264294 60.5618587,26.9365161 60.5618587,24.7777127 C60.5618587,22.9713833 59.612436,21.3001287 58.0635317,20.3808706 C56.5097447,19.4626934 54.591485,19.4388848 53.0179617,20.3180703 L51.1239217,21.3768338 L52.0997958,23.1225915 L53.9936624,22.0639248 C54.9454987,21.5320988 56.1047826,21.5464873 57.0444178,22.1017434 C57.9839756,22.6593631 58.5618587,23.676602 58.5618587,24.7777127 C58.5618587,26.1241565 58.0516509,26.8189705 56.4889635,27.7199015 C56.1189365,27.933232 55.7021324,28.1524849 55.0695151,28.4708806 C54.8948028,28.5588131 54.2580429,28.8771871 54.2270574,28.8927159 C53.8709236,29.0711977 53.5878678,29.2145115 53.3040384,29.3606851 L49.6360588,31.2497127 L53.761892,31.2497127 C54.9259973,31.2497127 55.8500254,32.1628331 55.8500254,33.3172682 C55.8500254,34.7094564 54.8752802,35.5542021 53.64776,35.45653 C52.2979838,35.3491301 51.2868587,34.1542821 51.2868587,32.0274904 L49.2868587,32.0274904 L49.2868587,32.0274904 Z" id="Shape" fill="#FFFFFF" transform="translate(54.924359, 28.569617) rotate(-30.000000) translate(-54.924359, -28.569617) "></path>
                    <path d="M34.0603248,52.1931786 C38.0279109,55.192476 43.7395488,52.3421627 43.7395488,47.3319707 C43.7395488,42.3205122 38.0246031,39.4698912 34.0558963,42.4730897 L28.0490429,46.5015739 L26.811336,47.3320399 L28.049107,48.1624104 L34.1062499,52.2259025 L34.0603248,52.1931786 Z M35.2204667,50.565023 L29.1633239,46.5015309 L29.1633879,48.1623674 L35.2164927,44.1009071 C37.9129646,42.0624569 41.7395488,43.9711612 41.7395488,47.3319707 C41.7395488,50.6918984 37.9154171,52.600278 35.2663918,50.5977468 L35.2204667,50.565023 Z" id="Shape" fill="#FFFFFF" transform="translate(35.275442, 47.331951) scale(-1, 1) rotate(46.000000) translate(-35.275442, -47.331951) "></path>
                    <path d="M36.5841773,51.1984203 L24.0105314,51.1984203 C23.4582466,51.1984203 23.0105314,51.6461356 23.0105314,52.1984203 C23.0105314,52.7507051 23.4582466,53.1984203 24.0105314,53.1984203 L36.5841773,53.1984203 C37.1364621,53.1984203 37.5841773,52.7507051 37.5841773,52.1984203 C37.5841773,51.6461356 37.1364621,51.1984203 36.5841773,51.1984203 L36.5841773,51.1984203 Z" id="Shape" fill="#FFFFFF" transform="translate(30.297354, 52.198420) scale(-1, 1) rotate(46.000000) translate(-30.297354, -52.198420) "></path>
                </g>
            </g>
        </g>
    </g>
</svg>