<?xml version="1.0" encoding="UTF-8" standalone="no"?>
<svg width="53px" height="44px" viewBox="0 0 53 44" version="1.1" xmlns="http://www.w3.org/2000/svg" xmlns:xlink="http://www.w3.org/1999/xlink">
    <!-- Generator: Sketch 3.8.3 (29802) - http://www.bohemiancoding.com/sketch -->
    <title>biodiversity</title>
    <desc>Created with Sketch.</desc>
    <defs></defs>
    <g id="Icons" stroke="none" stroke-width="1" fill="none" fill-rule="evenodd">
        <g id="biodiversity" fill="#000000">
            <path d="M26.3355332,9.32863553 C25.1680977,5.79911898 20.9912916,4.20823954 17.7001566,6.07407524 L19.1714328,7.1521744 C19.956806,3.46215772 17.119283,0.0666666667 13.3553923,0.0666666667 C9.59373888,0.0666666667 6.75229662,3.46192919 7.53714835,7.15203724 L9.00904114,6.07440853 C5.7202936,4.20699015 1.54395941,5.79666665 0.37728859,9.32905066 C-0.798265674,12.872109 1.63931564,16.5774353 5.42310876,16.9670082 L4.86305269,15.2231809 C2.02994833,17.7287083 2.27086173,22.1431515 5.33824275,24.3318831 C8.39220887,26.5082296 12.7227355,25.38251 14.2668113,21.9624129 L12.4439733,21.9624129 C13.9872547,25.3807503 18.3187403,26.5048263 21.371463,24.3326519 C24.4375707,22.1476534 24.6864406,17.7272578 21.8467819,15.2223417 L21.2878848,16.9669867 C25.0673923,16.5770527 27.5076641,12.8745157 26.3355905,9.32880863 L26.3355332,9.32863553 Z M24.4366506,9.95652471 C25.2051419,12.2813317 23.5992417,14.7179067 21.0826331,14.9775466 L18.8115657,15.211854 L20.5237361,16.7221916 C22.394398,18.3723376 22.2316074,21.2638045 20.2113553,22.7034958 C18.1775761,24.1506374 15.2876876,23.4006744 14.2668113,21.1394538 L13.3553923,19.120679 L12.4439733,21.1394538 C11.4222335,23.4025872 8.53399194,24.153385 6.49942937,22.7034958 C4.47772973,21.2609105 4.32013838,18.3732419 6.18799864,16.7213525 L7.89579527,15.2110194 L5.62794257,14.9775251 C3.10853083,14.7181307 1.50512809,12.2808252 2.27596015,9.95757627 C3.04602934,7.62600461 5.8269445,6.56747929 8.02149736,7.81359147 L9.95625246,8.91218514 L9.49339016,6.73596276 C8.97649313,4.30568732 10.8502946,2.06666667 13.3553923,2.06666667 C15.8620096,2.06666667 17.7326007,4.30508925 17.2152493,6.7358256 L16.7524131,8.91042673 L18.6865255,7.81392476 C20.8837556,6.56825407 23.6665132,7.62816244 24.4367079,9.95669781 L24.4366506,9.95652471 Z" id="Shape" transform="translate(13.355594, 12.756722) scale(-1, 1) translate(-13.355594, -12.756722) "></path>
            <path d="M13.3666667,18.0666667 C16.0162471,18.0666667 18.1717949,15.9517896 18.1717949,13.3333333 C18.1717949,10.7148771 16.0162471,8.6 13.3666667,8.6 C10.7170863,8.6 8.56153846,10.7148771 8.56153846,13.3333333 C8.56153846,15.9517896 10.7170863,18.0666667 13.3666667,18.0666667 L13.3666667,18.0666667 Z M13.3666667,16.0666667 C11.8132185,16.0666667 10.5615385,14.8386032 10.5615385,13.3333333 C10.5615385,11.8280635 11.8132185,10.6 13.3666667,10.6 C14.9201148,10.6 16.1717949,11.8280635 16.1717949,13.3333333 C16.1717949,14.8386032 14.9201148,16.0666667 13.3666667,16.0666667 L13.3666667,16.0666667 Z" id="Oval" transform="translate(13.366667, 13.333333) scale(-1, 1) translate(-13.366667, -13.333333) "></path>
            <path d="M14.3504038,42.7687181 C14.3691791,42.5856984 14.4069488,42.2388867 14.4635181,41.7517554 C14.5580282,40.9379079 14.6709565,40.0305653 14.802096,39.0532423 C15.176599,36.2622424 15.6215486,33.4718753 16.1347415,30.8717763 C16.8898827,27.0458427 17.7276296,23.9739165 18.6280188,21.9614634 C18.8535701,21.4573354 18.6277391,20.8658135 18.1236111,20.6402622 C17.6194831,20.4147108 17.0279611,20.6405419 16.8024098,21.1446699 C15.8260268,23.3269761 14.954643,26.5222451 14.1725957,30.484499 C13.6505636,33.1293817 13.1994128,35.9586379 12.8198614,38.7872613 C12.6870819,39.7768065 12.5726983,40.6958414 12.4768689,41.5210508 C12.4432804,41.8102886 12.4143958,42.0672874 12.3902361,42.2891283 C12.3756629,42.4229432 12.3659576,42.5148107 12.3608454,42.5646166 C12.3044843,43.1140179 12.7041724,43.6050854 13.2535738,43.6614465 C13.8029752,43.7178076 14.2940427,43.3181195 14.3504038,42.7687181 L14.3504038,42.7687181 Z" id="Shape" transform="translate(15.535505, 32.109782) scale(-1, 1) translate(-15.535505, -32.109782) "></path>
            <path d="M41.2009913,9.60548191 C41.2009913,9.42036804 41.3482844,9.27214857 41.5259913,9.27214857 C41.7036982,9.27214857 41.8509913,9.42036804 41.8509913,9.60548191 L41.8509913,19.3832597 C41.8509913,19.5683735 41.7036982,19.716593 41.5259913,19.716593 C41.3482844,19.716593 41.2009913,19.5683735 41.2009913,19.3832597 L41.2009913,9.60548191 L41.2009913,9.60548191 Z M39.2009913,9.60548191 L39.2009913,19.3832597 C39.2009913,20.6701458 40.2408982,21.716593 41.5259913,21.716593 C42.8110844,21.716593 43.8509913,20.6701458 43.8509913,19.3832597 L43.8509913,9.60548191 C43.8509913,8.31859577 42.8110844,7.27214857 41.5259913,7.27214857 C40.2408982,7.27214857 39.2009913,8.31859577 39.2009913,9.60548191 L39.2009913,9.60548191 Z" id="Shape" transform="translate(41.525991, 14.494371) rotate(-30.000000) translate(-41.525991, -14.494371) "></path>
            <path d="M37.8956695,10.2112913 L34.3084528,6.61573578 C33.9183822,6.22475837 33.2852176,6.22402329 32.8942402,6.61409394 C32.5032628,7.00416459 32.5025277,7.63732914 32.8925984,8.02830655 L36.479815,11.6238621 C36.8698857,12.0148395 37.5030502,12.0155746 37.8940276,11.6255039 C38.285005,11.2354333 38.2857401,10.6022687 37.8956695,10.2112913 L37.8956695,10.2112913 Z" id="Shape" transform="translate(35.394134, 9.119799) rotate(-30.000000) translate(-35.394134, -9.119799) "></path>
            <path d="M38.8489898,9.00172761 L42.4388565,5.40617206 C42.8290714,5.0153387 42.8285701,4.38217392 42.4377368,3.99195894 C42.0469034,3.60174396 41.4137387,3.60224525 41.0235237,3.99307861 L37.433657,7.58863416 C37.043442,7.97946752 37.0439433,8.6126323 37.4347767,9.00284728 C37.82561,9.39306226 38.4587748,9.39256097 38.8489898,9.00172761 L38.8489898,9.00172761 Z" id="Shape" transform="translate(39.936257, 6.497403) rotate(-30.000000) translate(-39.936257, -6.497403) "></path>
            <path d="M42.5318852,22.6643441 C42.5318852,24.8031476 41.5216367,25.9990806 40.1730639,26.1035537 C38.946064,26.1986086 37.9687185,25.34819 37.9687185,23.9541219 C37.9687185,22.7996868 38.8927466,21.8865663 40.0568519,21.8865663 L44.1826851,21.8865663 L40.5147055,19.9975387 C40.2308761,19.8513652 39.9478203,19.7080513 39.5916866,19.5295696 C39.560701,19.5140408 38.9239411,19.1956668 38.7492288,19.1077343 C38.1166116,18.7893386 37.6998074,18.5700856 37.3297804,18.3567552 C35.767093,17.4558241 35.2568852,16.7610102 35.2568852,15.4145663 C35.2568852,14.3134557 35.8347683,13.2962167 36.7759582,12.7376306 C37.7139613,12.183341 38.8732452,12.1689525 39.8252548,12.7008754 L41.7189481,13.7594452 L42.6948222,12.0136875 L40.8009556,10.9550209 C39.2272589,10.0757385 37.3089992,10.099547 35.7568442,11.0167578 C34.2063079,11.9369824 33.2568852,13.608237 33.2568852,15.4145663 C33.2568852,17.5733698 34.2040796,18.8632831 36.3308508,20.0894236 C36.7412268,20.3260163 37.1863216,20.560151 37.8500898,20.8942249 C38.0276063,20.9835688 38.6666961,21.3031077 38.6955935,21.3175901 C39.0457201,21.4930613 39.3226841,21.6332908 39.5989983,21.7755939 L40.0568519,19.8865663 C37.7934584,19.8865663 35.9687185,21.6897662 35.9687185,23.9541219 C35.9687185,26.5427946 37.9658258,28.2805395 40.3275398,28.097579 C42.7590281,27.9092131 44.5318852,25.8105036 44.5318852,22.6643441 L42.5318852,22.6643441 L42.5318852,22.6643441 Z" id="Shape" transform="translate(38.894385, 19.211295) rotate(-30.000000) translate(-38.894385, -19.211295) "></path>
            <path d="M41.2868587,18.0274904 C41.2868587,21.1615507 43.0600656,23.2569518 45.4891241,23.4502287 C47.8519855,23.6382384 49.8500254,21.9066726 49.8500254,19.3172682 C49.8500254,17.0529125 48.0252856,15.2497127 45.761892,15.2497127 L46.2197456,17.1387403 C46.4960599,16.9964371 46.7730238,16.8562076 47.1231504,16.6807364 C47.1520478,16.6662541 47.7911376,16.3467151 47.9686541,16.2573713 C48.6324223,15.9232974 49.0775171,15.6891626 49.4878931,15.4525699 C51.6146644,14.2264294 52.5618587,12.9365161 52.5618587,10.7777127 C52.5618587,8.97138333 51.612436,7.30012873 50.0635317,6.38087063 C48.5097447,5.46269335 46.591485,5.4388848 45.0179617,6.3180703 L43.1239217,7.37683385 L44.0997958,9.12259149 L45.9936624,8.06392482 C46.9454987,7.53209881 48.1047826,7.5464873 49.0444178,8.10174343 C49.9839756,8.65936305 50.5618587,9.67660198 50.5618587,10.7777127 C50.5618587,12.1241565 50.0516509,12.8189705 48.4889635,13.7199015 C48.1189365,13.933232 47.7021324,14.1524849 47.0695151,14.4708806 C46.8948028,14.5588131 46.2580429,14.8771871 46.2270574,14.8927159 C45.8709236,15.0711977 45.5878678,15.2145115 45.3040384,15.3606851 L41.6360588,17.2497127 L45.761892,17.2497127 C46.9259973,17.2497127 47.8500254,18.1628331 47.8500254,19.3172682 C47.8500254,20.7094564 46.8752802,21.5542021 45.64776,21.45653 C44.2979838,21.3491301 43.2868587,20.1542821 43.2868587,18.0274904 L41.2868587,18.0274904 L41.2868587,18.0274904 Z" id="Shape" transform="translate(46.924359, 14.569617) rotate(-30.000000) translate(-46.924359, -14.569617) "></path>
            <path d="M26.0603248,38.1931786 C30.0279109,41.192476 35.7395488,38.3421627 35.7395488,33.3319707 C35.7395488,28.3205122 30.0246031,25.4698912 26.0558963,28.4730897 L20.0490429,32.5015739 L18.811336,33.3320399 L20.049107,34.1624104 L26.1062499,38.2259025 L26.0603248,38.1931786 Z M27.2204667,36.565023 L21.1633239,32.5015309 L21.1633879,34.1623674 L27.2164927,30.1009071 C29.9129646,28.0624569 33.7395488,29.9711612 33.7395488,33.3319707 C33.7395488,36.6918984 29.9154171,38.600278 27.2663918,36.5977468 L27.2204667,36.565023 Z" id="Shape" transform="translate(27.275442, 33.331951) scale(-1, 1) rotate(46.000000) translate(-27.275442, -33.331951) "></path>
            <path d="M28.5841773,37.1984203 L16.0105314,37.1984203 C15.4582466,37.1984203 15.0105314,37.6461356 15.0105314,38.1984203 C15.0105314,38.7507051 15.4582466,39.1984203 16.0105314,39.1984203 L28.5841773,39.1984203 C29.1364621,39.1984203 29.5841773,38.7507051 29.5841773,38.1984203 C29.5841773,37.6461356 29.1364621,37.1984203 28.5841773,37.1984203 L28.5841773,37.1984203 Z" id="Shape" transform="translate(22.297354, 38.198420) scale(-1, 1) rotate(46.000000) translate(-22.297354, -38.198420) "></path>
        </g>
    </g>
</svg>