<?xml version="1.0" encoding="UTF-8" standalone="no"?>
<svg width="44px" height="44px" viewBox="0 0 44 44" version="1.1" xmlns="http://www.w3.org/2000/svg" xmlns:xlink="http://www.w3.org/1999/xlink">
    <!-- Generator: Sketch 3.8.3 (29802) - http://www.bohemiancoding.com/sketch -->
    <title>carbon</title>
    <desc>Created with Sketch.</desc>
    <defs></defs>
    <g id="Icons" stroke="none" stroke-width="1" fill="none" fill-rule="evenodd">
        <g id="carbon" fill="#000000">
            <path d="M44,0 L42.7551787,0.136715916 C42.6681564,0.146273386 42.5044241,0.165548528 42.2690765,0.195236636 C41.8798984,0.244329808 41.4293253,0.305224221 40.9224479,0.378617499 C39.4773449,0.587861102 37.8683675,0.855455291 36.1361721,1.1870284 C31.1849359,2.1347834 26.2324447,3.40603802 21.6017025,5.04809017 C13.1517764,8.04441751 6.72415536,11.9319875 3.12789457,16.8887389 C-1.35721047,23.0705905 -1.13334247,30.5329866 4.54225632,39.1699194 L4.65638824,39.3436014 L4.83006115,39.457732 C13.4666239,45.1333192 20.9287504,45.3572066 27.1105259,40.8721729 C32.0672642,37.2759346 35.9549311,30.8483139 38.9514201,22.3983893 C40.5935587,17.7676539 41.8649153,12.8151711 42.8127787,7.86394325 C43.1443897,6.13175074 43.41202,4.52277578 43.6212967,3.0776746 C43.6947017,2.57079756 43.7556065,2.12022466 43.8047088,1.73104647 C43.8344025,1.49569829 43.8536816,1.33196523 43.8632413,1.24494177 L44,0 Z M41.7850088,2.50394014 C41.7850088,2.50394014 41.3158294,5.51870088 40.9891524,7.23099118 C40.0561939,12.1211291 38.8054696,17.0100038 37.1959113,21.5644807 C30.6427688,40.1075418 20.6391905,47.390361 5.97563253,37.7209304 L6.26431937,38.0106183 C-3.37182928,23.296203 3.88598779,13.2582849 22.3655069,6.68293782 C26.904397,5.06791865 31.7765394,3.81298582 36.6499407,2.87692025 C38.3563707,2.54915525 39.9404009,2.28480369 41.3608141,2.07842743 C41.5482471,2.05119471 41.7276461,2.025737 41.8987339,2.00201731 C42.1804377,1.96296175 41.7850088,2.50394014 41.7850088,2.50394014 Z" id="Combined-Shape"></path>
            <path d="M13,29.5858017 L19,23.5857307 L19,17 C19,16.4477153 19.4477153,16 20,16 C20.5522847,16 21,16.4477153 21,17 L21,21.585707 L27,15.585636 L27,13 C27,12.4477153 27.4477153,12 28,12 C28.5522847,12 29,12.4477153 29,13 L29,15 L31,15 C31.5522847,15 32,15.4477153 32,16 C32,16.5522847 31.5522847,17 31,17 L28.4140632,17 L22.4141342,23 L27,23 C27.5522847,23 28,23.4477153 28,24 C28,24.5522847 27.5522847,25 27,25 L20.4141579,25 L14.4142289,31 L22,31 C22.5522847,31 23,31.4477153 23,32 C23,32.5522847 22.5522847,33 22,33 L12.4142525,33 L2.70729703,42.7070704 C2.31677525,43.0975972 1.68356156,43.0976499 1.29297468,42.7071882 C0.902387804,42.3167265 0.902335036,41.6836102 1.29285682,41.2930834 L11,31.5858254 L11,22 C11,21.4477153 11.4477153,21 12,21 C12.5522847,21 13,21.4477153 13,22 L13,29.5858017 Z" id="Combined-Shape"></path>
        </g>
    </g>
</svg>