<?xml version="1.0" encoding="UTF-8" standalone="no"?>
<svg width="72px" height="72px" viewBox="0 0 72 72" version="1.1" xmlns="http://www.w3.org/2000/svg" xmlns:xlink="http://www.w3.org/1999/xlink">
    <!-- Generator: Sketch 3.8.3 (29802) - http://www.bohemiancoding.com/sketch -->
    <title>icon/carbon</title>
    <desc>Created with Sketch.</desc>
    <defs></defs>
    <g id="Icons" stroke="none" stroke-width="1" fill="none" fill-rule="evenodd">
        <g id="icon/carbon">
            <g id="carbon">
                <g>
                    <rect id="Rectangle-path" fill-opacity="0.799999952" fill="#5F594F" x="0" y="0" width="72" height="72"></rect>
                    <path d="M58,15 L56.7551787,15.1367159 C56.6681564,15.1462734 56.5044241,15.1655485 56.2690765,15.1952366 C55.8798984,15.2443298 55.4293253,15.3052242 54.9224479,15.3786175 C53.4773449,15.5878611 51.8683675,15.8554553 50.1361721,16.1870284 C45.1849359,17.1347834 40.2324447,18.406038 35.6017025,20.0480902 C27.1517764,23.0444175 20.7241554,26.9319875 17.1278946,31.8887389 C12.6427895,38.0705905 12.8666575,45.5329866 18.5422563,54.1699194 L18.6563882,54.3436014 L18.8300611,54.457732 C27.4666239,60.1333192 34.9287504,60.3572066 41.1105259,55.8721729 C46.0672642,52.2759346 49.9549311,45.8483139 52.9514201,37.3983893 C54.5935587,32.7676539 55.8649153,27.8151711 56.8127787,22.8639433 C57.1443897,21.1317507 57.41202,19.5227758 57.6212967,18.0776746 C57.6947017,17.5707976 57.7556065,17.1202247 57.8047088,16.7310465 C57.8344025,16.4956983 57.8536816,16.3319652 57.8632413,16.2449418 L58,15 Z M55.7850088,17.5039401 C55.7850088,17.5039401 55.3158294,20.5187009 54.9891524,22.2309912 C54.0561939,27.1211291 52.8054696,32.0100038 51.1959113,36.5644807 C44.6427688,55.1075418 34.6391905,62.390361 19.9756325,52.7209304 L20.2643194,53.0106183 C10.6281707,38.296203 17.8859878,28.2582849 36.3655069,21.6829378 C40.904397,20.0679186 45.7765394,18.8129858 50.6499407,17.8769202 C52.3563707,17.5491552 53.9404009,17.2848037 55.3608141,17.0784274 C55.5482471,17.0511947 55.7276461,17.025737 55.8987339,17.0020173 C56.1804377,16.9629618 55.7850088,17.5039401 55.7850088,17.5039401 Z" id="Combined-Shape" fill="#FFFFFF"></path>
                    <path d="M27,44.5858017 L33,38.5857307 L33,32 C33,31.4477153 33.4477153,31 34,31 C34.5522847,31 35,31.4477153 35,32 L35,36.585707 L41,30.585636 L41,28 C41,27.4477153 41.4477153,27 42,27 C42.5522847,27 43,27.4477153 43,28 L43,30 L45,30 C45.5522847,30 46,30.4477153 46,31 C46,31.5522847 45.5522847,32 45,32 L42.4140632,32 L36.4141342,38 L41,38 C41.5522847,38 42,38.4477153 42,39 C42,39.5522847 41.5522847,40 41,40 L34.4141579,40 L28.4142289,46 L36,46 C36.5522847,46 37,46.4477153 37,47 C37,47.5522847 36.5522847,48 36,48 L26.4142525,48 L16.707297,57.7070704 C16.3167752,58.0975972 15.6835616,58.0976499 15.2929747,57.7071882 C14.9023878,57.3167265 14.902335,56.6836102 15.2928568,56.2930834 L25,46.5858254 L25,37 C25,36.4477153 25.4477153,36 26,36 C26.5522847,36 27,36.4477153 27,37 L27,44.5858017 Z" id="Combined-Shape" fill="#FFFFFF"></path>
                </g>
            </g>
        </g>
    </g>
</svg>