<?xml version="1.0" standalone="no"?>
<!DOCTYPE svg PUBLIC "-//W3C//DTD SVG 20010904//EN"
 "http://www.w3.org/TR/2001/REC-SVG-20010904/DTD/svg10.dtd">
<svg version="1.0" xmlns="http://www.w3.org/2000/svg"
 width="68.000000pt" height="62.000000pt" viewBox="0 0 68.000000 62.000000"
 preserveAspectRatio="xMidYMid meet">
<metadata>
Created by potrace 1.16, written by Peter Selinger 2001-2019
</metadata>
<g transform="translate(0.000000,62.000000) scale(0.100000,-0.100000)"
fill="#000000" stroke="none">
<path d="M0 550 c0 -104 70 -223 155 -261 53 -24 163 -24 232 -1 l51 18 11
-55 c6 -31 13 -98 17 -148 l7 -93 32 0 33 0 -5 98 -6 99 30 6 c43 8 88 57 103
112 12 45 10 218 -4 232 -3 3 -25 -12 -50 -33 -24 -21 -64 -55 -88 -75 l-43
-36 -18 37 c-22 47 -83 109 -124 126 -37 16 -129 18 -189 4 -31 -7 -54 -6 -90
5 -27 8 -50 15 -51 15 -2 0 -3 -22 -3 -50z m293 -34 c18 -7 43 -25 57 -40 l24
-27 -37 16 c-20 8 -60 15 -90 15 -53 0 -54 0 -49 -29 4 -26 9 -30 50 -36 62
-9 139 -42 126 -55 -5 -5 -34 -14 -63 -20 -99 -19 -174 21 -217 115 l-24 50
73 7 c39 5 76 10 82 12 19 8 35 6 68 -8z"/>
</g>
</svg>
