<?xml version="1.0" encoding="UTF-8" standalone="no"?>
<svg width="48px" height="48px" viewBox="0 0 48 48" version="1.1" xmlns="http://www.w3.org/2000/svg" xmlns:xlink="http://www.w3.org/1999/xlink">
    <!-- Generator: Sketch 39 (31667) - http://www.bohemiancoding.com/sketch -->
    <title>chart</title>
    <desc>Created with Sketch.</desc>
    <defs></defs>
    <g id="Icons" stroke="none" stroke-width="1" fill="none" fill-rule="evenodd">
        <path d="M0,27 C0,45.7006049 22.6901154,55.0080982 35.8491068,41.8491068 L36.5562136,41.142 L35.8491068,40.4348932 L21.7071068,26.2928932 L22,27 L22,7 L22,6 L21,6 C9.40371525,6 0,15.4037153 0,27 Z M20,27.4142136 L33.7638365,41.0763225 C21.7780988,52.0216186 2,43.6007013 2,27 C2,16.839252 9.97995406,8.53877124 20.0132245,8.02519555 L20,27.4142136 Z M47,22 L48,22 L48,21 C48,9.40303996 38.5976095,0 27,0 L26,0 L26,1 L26,21 L26,22 L27,22 L47,22 Z M28,20 L28,2 C37.6778027,2.5217513 45.4963715,10.3178823 46,20 L47,20 L28,20 Z M48,25 L48,24 L47,24 L27,24 L24.5857864,24 L26.2928932,25.7071068 L40.4348932,39.8491068 L41.142,40.5562136 L41.8491068,39.8491068 C45.761605,35.9366086 48,30.6441978 48,25 Z M29,26 L45.9736213,26.0083986 C45.742604,30.4153981 44.0026746,34.5314573 41.0883393,37.7484252 L29,26 Z" id="chart" fill="#000000"></path>
    </g>
</svg>