<?xml version="1.0" encoding="UTF-8" standalone="no"?>
<svg width="50px" height="52px" viewBox="0 0 50 52" version="1.1" xmlns="http://www.w3.org/2000/svg" xmlns:xlink="http://www.w3.org/1999/xlink">
    <!-- Generator: Sketch 3.8.3 (29802) - http://www.bohemiancoding.com/sketch -->
    <title>climate</title>
    <desc>Created with Sketch.</desc>
    <defs></defs>
    <g id="Icons" stroke="none" stroke-width="1" fill="none" fill-rule="evenodd">
        <path d="M32.4267207,41.7237956 L27.8244687,41.7174828 L33.5506713,35.9269411 C33.9390078,35.5342412 33.9354707,34.9010861 33.5427708,34.5127496 C33.150071,34.124413 32.5169159,34.1279502 32.1285793,34.5206501 L23.0276906,43.7237956 L27.6110483,43.6987012 L21.7171372,49.5712388 C21.3259041,49.9610531 21.324754,50.5942171 21.7145683,50.9854501 C22.1043825,51.3766831 22.7375465,51.3778332 23.1287795,50.988019 L32.4267207,41.7237956 Z M30.5474417,50.9603583 L45.5474417,35.9301917 C45.9375735,35.5392753 45.9369375,34.9061106 45.5460211,34.5159788 C45.1551047,34.125847 44.52194,34.1264831 44.1318082,34.5173995 L29.1318082,49.5475661 C28.7416765,49.9384825 28.7423125,50.5716472 29.1332289,50.961779 C29.5241453,51.3519108 30.1573099,51.3512747 30.5474417,50.9603583 L30.5474417,50.9603583 Z M12.2133984,50.961069 L13.627612,49.5468555 C14.0181363,49.1563312 14.0181363,48.5231662 13.627612,48.1326419 C13.2370877,47.7421176 12.6039227,47.7421176 12.2133984,48.1326419 L10.7991849,49.5468555 C10.4086606,49.9373798 10.4086606,50.5705447 10.7991849,50.961069 C11.1897092,51.3515933 11.8228742,51.3515933 12.2133984,50.961069 L12.2133984,50.961069 Z M15.7489323,47.4255351 L17.1631459,46.0113216 C17.5536702,45.6207973 17.5536702,44.9876323 17.1631459,44.597108 C16.7726216,44.2065837 16.1394566,44.2065837 15.7489323,44.597108 L14.3347188,46.0113216 C13.9441945,46.4018458 13.9441945,47.0350108 14.3347188,47.4255351 C14.7252431,47.8160594 15.3584081,47.8160594 15.7489323,47.4255351 L15.7489323,47.4255351 Z M19.2844663,43.8900012 L20.6986798,42.4757876 C21.0892041,42.0852634 21.0892041,41.4520984 20.6986798,41.0615741 C20.3081555,40.6710498 19.6749905,40.6710498 19.2844663,41.0615741 L17.8702527,42.4757876 C17.4797284,42.8663119 17.4797284,43.4994769 17.8702527,43.8900012 C18.260777,44.2805255 18.893942,44.2805255 19.2844663,43.8900012 L19.2844663,43.8900012 Z M22.8200002,40.3544673 L24.2342137,38.9402537 C24.624738,38.5497294 24.624738,37.9165645 24.2342137,37.5260402 C23.8436894,37.1355159 23.2105245,37.1355159 22.8200002,37.5260402 L21.4057866,38.9402537 C21.0152623,39.330778 21.0152623,39.963943 21.4057866,40.3544673 C21.7963109,40.7449916 22.4294759,40.7449916 22.8200002,40.3544673 L22.8200002,40.3544673 Z M26.3555341,36.8189334 L27.3800651,35.7944024 C27.7705894,35.4038781 27.7705894,34.7707131 27.3800651,34.3801888 C26.9895408,33.9896645 26.3563758,33.9896645 25.9658515,34.3801888 L24.9413205,35.4047198 C24.5507962,35.7952441 24.5507962,36.4284091 24.9413205,36.8189334 C25.3318448,37.2094577 25.9650098,37.2094577 26.3555341,36.8189334 L26.3555341,36.8189334 Z M4.62716021,6.03885914 L6.57828805,7.99250132 C6.96856079,8.38327699 7.60172564,8.3836847 7.99250132,7.99341195 C8.38327699,7.6031392 8.3836847,6.96997436 7.99341195,6.57919868 L6.04228411,4.6255565 C5.65201136,4.23478083 5.01884652,4.23437312 4.62807084,4.62464587 C4.23729517,5.01491861 4.23688746,5.64808346 4.62716021,6.03885914 L4.62716021,6.03885914 Z M31.1584759,4.6255565 L29.207348,6.57919868 C28.8170753,6.96997436 28.817483,7.6031392 29.2082587,7.99341195 C29.5990343,8.3836847 30.2321992,8.38327699 30.6224719,7.99250132 L32.5735998,6.03885914 C32.9638725,5.64808346 32.9634648,5.01491861 32.5726891,4.62464587 C32.1819135,4.23437312 31.5487486,4.23478083 31.1584759,4.6255565 L31.1584759,4.6255565 Z M46.2736829,41.00007 C48.2486664,39.4282319 49.4229583,37.0478198 49.4229583,34.4737956 C49.4229583,31.6874209 48.0419157,29.1312757 45.7825266,27.5871813 L46.1355138,28.8111718 C48.1315138,24.2155779 44.3742809,19.1565104 39.3697038,19.7772331 L40.4257281,20.4095879 C38.7877696,16.165318 34.7078336,13.3071289 30.089625,13.3071289 C24.3280374,13.3071289 19.5450738,17.723769 19.0521661,23.4317618 L19.9542789,22.5222403 C14.7590314,23.0137103 10.7562917,27.3866527 10.7562917,32.6404622 C10.7562917,36.2719821 12.676625,39.5727645 15.741357,41.3911443 C16.2163304,41.6729576 16.8298272,41.5163703 17.1116404,41.0413969 C17.3934537,40.5664235 17.2368664,39.9529267 16.761893,39.6711135 C14.2984081,38.2094681 12.7562917,35.5587872 12.7562917,32.6404622 C12.7562917,28.4208514 15.9718377,24.9079082 20.1426378,24.5133508 L20.972993,24.4347993 L21.0447506,23.6038293 C21.4486096,18.9270423 25.3687646,15.3071289 30.089625,15.3071289 C33.8731771,15.3071289 37.2167702,17.6494748 38.5598552,21.1296699 L38.8409863,21.8581355 L39.6158795,21.7620247 C43.0803196,21.3323267 45.6818645,24.8352747 44.3010696,28.0144194 L43.9719283,28.7722349 L44.6540567,29.2384098 C46.3739624,30.4138146 47.4229583,32.355381 47.4229583,34.4737956 C47.4229583,36.4317373 46.5315317,38.238752 45.0282337,39.4351878 C44.5961035,39.7791091 44.5245959,40.4082232 44.8685172,40.8403535 C45.2124385,41.2724838 45.8415526,41.3439913 46.2736829,41.00007 L46.2736829,41.00007 Z M11.0685276,23.6332501 C10.0790496,22.1560012 9.54302,20.4188468 9.54302,18.60038 C9.54302,13.5984877 13.5984877,9.54302 18.60038,9.54302 C20.7201157,9.54302 22.7248022,10.2725309 24.3338178,11.5877262 C24.7614282,11.9372513 25.391421,11.8739505 25.7409461,11.4463401 C26.0904711,11.0187297 26.0271704,10.3887369 25.59956,10.0392118 C23.6367592,8.43483558 21.1860615,7.54302 18.60038,7.54302 C12.4939182,7.54302 7.54302,12.4939182 7.54302,18.60038 C7.54302,20.8181488 8.19841133,22.9421285 9.4068427,24.7462655 C9.7141934,25.2051271 10.3353312,25.327951 10.7941928,25.0206003 C11.2530545,24.7132496 11.3758783,24.0921117 11.0685276,23.6332501 L11.0685276,23.6332501 Z M1,16.2237956 L3.51434,16.2237956 C4.06662475,16.2237956 4.51434,15.7760803 4.51434,15.2237956 C4.51434,14.6715108 4.06662475,14.2237956 3.51434,14.2237956 L1,14.2237956 C0.44771525,14.2237956 0,14.6715108 0,15.2237956 C0,15.7760803 0.44771525,16.2237956 1,16.2237956 L1,16.2237956 Z M17.339625,1 L17.339625,3.51434 C17.339625,4.06662475 17.7873402,4.51434 18.339625,4.51434 C18.8919097,4.51434 19.339625,4.06662475 19.339625,3.51434 L19.339625,1 C19.339625,0.44771525 18.8919097,-3.55271368e-15 18.339625,-3.55271368e-15 C17.7873402,-3.55271368e-15 17.339625,0.44771525 17.339625,1 L17.339625,1 Z" id="climate" fill="#000000"></path>
    </g>
</svg>