<?xml version="1.0" encoding="UTF-8" standalone="no"?>
<svg width="72px" height="72px" viewBox="0 0 72 72" version="1.1" xmlns="http://www.w3.org/2000/svg" xmlns:xlink="http://www.w3.org/1999/xlink">
    <!-- Generator: Sketch 3.8.3 (29802) - http://www.bohemiancoding.com/sketch -->
    <title>climate</title>
    <desc>Created with Sketch.</desc>
    <defs></defs>
    <g id="Icons" stroke="none" stroke-width="1" fill="none" fill-rule="evenodd">
        <g id="icon/climate">
            <g id="climate">
                <g>
                    <rect id="Rectangle-path" fill-opacity="0.799999952" fill="#5F594F" x="0" y="0" width="72" height="72"></rect>
                    <path d="M41.0870957,51.5 L36.4848437,51.4936872 L42.2110463,45.7031455 C42.5993828,45.3104457 42.5958457,44.6772906 42.2031458,44.288954 C41.810446,43.9006175 41.1772909,43.9041546 40.7889543,44.2968545 L31.6880656,53.5 L36.2714233,53.4749056 L30.3775122,59.3474433 C29.9862791,59.7372575 29.985129,60.3704215 30.3749433,60.7616545 C30.7647575,61.1528875 31.3979215,61.1540377 31.7891545,60.7642234 L41.0870957,51.5 Z M39.2078167,60.7365628 L54.2078167,45.7063961 C54.5979485,45.3154797 54.5973125,44.6823151 54.2063961,44.2921833 C53.8154797,43.9020515 53.1823151,43.9026875 52.7921833,44.2936039 L37.7921833,59.3237706 C37.4020515,59.714687 37.4026875,60.3478516 37.7936039,60.7379834 C38.1845203,61.1281152 38.8176849,61.1274792 39.2078167,60.7365628 L39.2078167,60.7365628 Z M20.8737734,60.7372734 L22.287987,59.3230599 C22.6785113,58.9325356 22.6785113,58.2993706 22.287987,57.9088463 C21.8974627,57.518322 21.2642977,57.518322 20.8737734,57.9088463 L19.4595599,59.3230599 C19.0690356,59.7135842 19.0690356,60.3467492 19.4595599,60.7372734 C19.8500842,61.1277977 20.4832492,61.1277977 20.8737734,60.7372734 L20.8737734,60.7372734 Z M24.4093074,57.2017395 L25.8235209,55.787526 C26.2140452,55.3970017 26.2140452,54.7638367 25.8235209,54.3733124 C25.4329966,53.9827881 24.7998316,53.9827881 24.4093074,54.3733124 L22.9950938,55.787526 C22.6045695,56.1780503 22.6045695,56.8112153 22.9950938,57.2017395 C23.3856181,57.5922638 24.0187831,57.5922638 24.4093074,57.2017395 L24.4093074,57.2017395 Z M27.9448413,53.6662056 L29.3590548,52.2519921 C29.7495791,51.8614678 29.7495791,51.2283028 29.3590548,50.8377785 C28.9685305,50.4472542 28.3353656,50.4472542 27.9448413,50.8377785 L26.5306277,52.2519921 C26.1401034,52.6425164 26.1401034,53.2756813 26.5306277,53.6662056 C26.921152,54.0567299 27.554317,54.0567299 27.9448413,53.6662056 L27.9448413,53.6662056 Z M31.4803752,50.1306717 L32.8945887,48.7164582 C33.285113,48.3259339 33.285113,47.6927689 32.8945887,47.3022446 C32.5040644,46.9117203 31.8708995,46.9117203 31.4803752,47.3022446 L30.0661616,48.7164582 C29.6756373,49.1069825 29.6756373,49.7401474 30.0661616,50.1306717 C30.4566859,50.521196 31.0898509,50.521196 31.4803752,50.1306717 L31.4803752,50.1306717 Z M35.0159091,46.5951378 L36.0404401,45.5706068 C36.4309644,45.1800825 36.4309644,44.5469175 36.0404401,44.1563932 C35.6499158,43.7658689 35.0167508,43.7658689 34.6262266,44.1563932 L33.6016955,45.1809243 C33.2111712,45.5714486 33.2111712,46.2046135 33.6016955,46.5951378 C33.9922198,46.9856621 34.6253848,46.9856621 35.0159091,46.5951378 L35.0159091,46.5951378 Z M13.2875352,15.8150636 L15.2386631,17.7687057 C15.6289358,18.1594814 16.2621006,18.1598891 16.6528763,17.7696164 C17.043652,17.3793436 17.0440597,16.7461788 16.653787,16.3554031 L14.7026591,14.4017609 C14.3123864,14.0109853 13.6792215,14.0105775 13.2884458,14.4008503 C12.8976702,14.791123 12.8972625,15.4242879 13.2875352,15.8150636 L13.2875352,15.8150636 Z M39.8188509,14.4017609 L37.867723,16.3554031 C37.4774503,16.7461788 37.477858,17.3793436 37.8686337,17.7696164 C38.2594094,18.1598891 38.8925742,18.1594814 39.2828469,17.7687057 L41.2339748,15.8150636 C41.6242475,15.4242879 41.6238398,14.791123 41.2330642,14.4008503 C40.8422885,14.0105775 40.2091236,14.0109853 39.8188509,14.4017609 L39.8188509,14.4017609 Z M54.9340579,50.7762744 C56.9090414,49.2044364 58.0833333,46.8240243 58.0833333,44.25 C58.0833333,41.4636253 56.7022907,38.9074801 54.4429016,37.3633857 L54.7958888,38.5873762 C56.7918888,33.9917823 53.0346559,28.9327148 48.0300788,29.5534376 L49.0861031,30.1857923 C47.4481446,25.9415224 43.3682086,23.0833333 38.75,23.0833333 C32.9884124,23.0833333 28.2054488,27.4999734 27.7125411,33.2079662 L28.6146539,32.2984448 C23.4194064,32.7899148 19.4166667,37.1628571 19.4166667,42.4166667 C19.4166667,46.0481865 21.337,49.3489689 24.401732,51.1673488 C24.8767054,51.449162 25.4902022,51.2925748 25.7720154,50.8176013 C26.0538287,50.3426279 25.8972414,49.7291311 25.422268,49.4473179 C22.9587831,47.9856726 21.4166667,45.3349916 21.4166667,42.4166667 C21.4166667,38.1970559 24.6322127,34.6841126 28.8030128,34.2895552 L29.633368,34.2110037 L29.7051256,33.3800338 C30.1089846,28.7032467 34.0291396,25.0833333 38.75,25.0833333 C42.5335521,25.0833333 45.8771452,27.4256792 47.2202302,30.9058744 L47.5013613,31.6343399 L48.2762545,31.5382291 C51.7406946,31.1085311 54.3422395,34.6114791 52.9614446,37.7906238 L52.6323033,38.5484393 L53.3144317,39.0146143 C55.0343374,40.190019 56.0833333,42.1315854 56.0833333,44.25 C56.0833333,46.2079417 55.1919067,48.0149564 53.6886088,49.2113922 C53.2564785,49.5553135 53.1849709,50.1844276 53.5288922,50.6165579 C53.8728135,51.0486882 54.5019276,51.1201957 54.9340579,50.7762744 L54.9340579,50.7762744 Z M19.7289026,33.4094546 C18.7394246,31.9322056 18.203395,30.1950513 18.203395,28.3765844 C18.203395,23.3746921 22.2588627,19.3192244 27.260755,19.3192244 C29.3804908,19.3192244 31.3851772,20.0487353 32.9941928,21.3639306 C33.4218032,21.7134557 34.051796,21.650155 34.4013211,21.2225445 C34.7508461,20.7949341 34.6875454,20.1649413 34.259935,19.8154163 C32.2971342,18.21104 29.8464365,17.3192244 27.260755,17.3192244 C21.1542932,17.3192244 16.203395,22.2701226 16.203395,28.3765844 C16.203395,30.5943532 16.8587863,32.718333 18.0672177,34.5224699 C18.3745684,34.9813315 18.9957062,35.1041554 19.4545678,34.7968047 C19.9134295,34.489454 20.0362533,33.8683162 19.7289026,33.4094546 L19.7289026,33.4094546 Z M9.66037501,26 L12.174715,26 C12.7269998,26 13.174715,25.5522847 13.174715,25 C13.174715,24.4477153 12.7269998,24 12.174715,24 L9.66037501,24 C9.10809026,24 8.66037501,24.4477153 8.66037501,25 C8.66037501,25.5522847 9.10809026,26 9.66037501,26 L9.66037501,26 Z M26,10.7762044 L26,13.2905444 C26,13.8428292 26.4477153,14.2905444 27,14.2905444 C27.5522847,14.2905444 28,13.8428292 28,13.2905444 L28,10.7762044 C28,10.2239197 27.5522847,9.77620443 27,9.77620443 C26.4477153,9.77620443 26,10.2239197 26,10.7762044 L26,10.7762044 Z" id="Combined-Shape" fill="#FFFFFF"></path>
                </g>
            </g>
        </g>
    </g>
</svg>