<?xml version="1.0" encoding="UTF-8" standalone="no"?>
<svg width="46px" height="47px" viewBox="0 0 46 47" version="1.1" xmlns="http://www.w3.org/2000/svg" xmlns:xlink="http://www.w3.org/1999/xlink">
    <!-- Generator: Sketch 3.8.3 (29802) - http://www.bohemiancoding.com/sketch -->
    <title>combination</title>
    <desc>Created with Sketch.</desc>
    <defs></defs>
    <g id="Icons" stroke="none" stroke-width="1" fill="none" fill-rule="evenodd">
        <g id="combination" fill="#000000">
            <path d="M19.2371788,39.0113568 C19.2895324,39.0776006 19.3852898,39.1953814 19.5212161,39.3574008 C19.7446926,39.6237771 20.001768,39.9196476 20.2892532,40.2377348 C21.1098198,41.1456486 22.0127049,42.0534597 22.973668,42.90331 C24.9851596,44.6822198 26.9798212,45.9731713 28.9047616,46.5658088 C31.2884447,47.2996808 33.4604779,46.9097703 35.1852678,45.1854675 C36.9116173,43.4586297 37.2981131,41.2823406 36.5579072,38.8933101 C35.9630916,36.97353 34.675015,34.9838996 32.9022376,32.9772024 C32.0527451,32.0156184 31.1453126,31.1120215 30.2377774,30.2907131 C29.9198231,30.0029683 29.6240768,29.7456482 29.3578134,29.5219493 C29.1958654,29.3858901 29.078139,29.290037 29.01193,29.2376321 C28.6139459,28.9226252 28.0430992,28.9557308 27.6841976,29.3146323 L19.3146323,37.6841976 C18.955928,38.0429019 18.9226357,38.6133614 19.2371788,39.0113568 L19.2371788,39.0113568 Z M20.8062995,37.7712519 L20.7288459,39.0984111 L29.0984111,30.7288459 L27.7706787,30.8058461 C27.8220164,30.8464803 27.9246902,30.9300776 28.0713024,31.0532525 C28.3193061,31.2616106 28.5966002,31.5028761 28.8957664,31.7736179 C29.7514325,32.5479853 30.6072014,33.4001369 31.4033634,34.3013534 C33.0053267,36.1146975 34.1519625,37.8858509 34.6475036,39.4852205 C35.1813518,41.2082272 34.9324974,42.6094823 33.7710541,43.7712541 C32.6097793,44.9322009 31.2112136,45.1832631 29.4932491,44.6543479 C27.8908178,44.1610023 26.1157813,43.0121929 24.2986124,41.405137 C23.3980576,40.6087102 22.5466455,39.752653 21.7730393,38.8966984 C21.502564,38.5974316 21.2615487,38.3200449 21.0534174,38.0719596 C20.930379,37.9253021 20.8468803,37.8225993 20.8062995,37.7712519 L20.8062995,37.7712519 Z" id="Shape"></path>
            <path d="M30.6201503,39.2059367 L8.55493287,17.1407193 C8.16440858,16.750195 7.5312436,16.750195 7.14071931,17.1407193 C6.75019501,17.5312436 6.75019501,18.1644086 7.14071931,18.5549329 L29.2059367,40.6201503 C29.596461,41.0106746 30.229626,41.0106746 30.6201503,40.6201503 C31.0106746,40.229626 31.0106746,39.596461 30.6201503,39.2059367 L30.6201503,39.2059367 Z" id="Shape"></path>
            <path d="M8.84782609,11.7608696 C8.84782609,10.8699647 7.77068417,10.4237979 7.14071931,11.0537628 L1.05376278,17.1407193 C0.423797923,17.7706842 0.869964715,18.8478261 1.76086957,18.8478261 L7.84782609,18.8478261 C8.40011084,18.8478261 8.84782609,18.4001108 8.84782609,17.8478261 L8.84782609,11.7608696 L8.84782609,11.7608696 Z M6.85251699,17.1636525 L4.18897536,16.8339339 L6.83756545,14.1853438 L6.85251699,17.1636525 Z" id="Shape"></path>
            <path d="M39.2072068,39.7070068 C40.9127308,38.0010003 41.2946883,35.8502651 40.5635828,33.4906063 C39.9765555,31.595963 38.7058697,29.6331953 36.9571976,27.6537841 C36.1194598,26.7055059 35.2246216,25.81445 34.3296806,25.0045393 C34.0161344,24.7207837 33.7244812,24.4670249 33.4618912,24.2464122 C33.3021471,24.1122046 33.1859951,24.0176333 33.1206256,23.965893 C32.7226415,23.6508861 32.1517948,23.6839916 31.7928932,24.0428932 L29.4930885,26.3426979 C29.1025642,26.7332222 29.1025642,27.3663872 29.4930885,27.7569115 C29.8836128,28.1474358 30.5167778,28.1474358 30.9073021,27.7569115 L33.2071068,25.4571068 L31.8793744,25.534107 C31.9298725,25.5740766 32.030972,25.6563921 32.1753802,25.7777154 C32.4197105,25.9829873 32.6929115,26.2206915 32.9876697,26.4874441 C33.8307415,27.2504139 34.673916,28.0900244 35.4583234,28.9779352 C37.0361814,30.7639933 38.1654264,32.5082839 38.6531792,34.0825167 C39.177927,35.7761517 38.9336108,37.1518529 37.7927932,38.2929932 C37.4023242,38.6835727 37.4024137,39.3167377 37.7929932,39.7072068 C38.1835727,40.0976758 38.8167377,40.0975863 39.2072068,39.7070068 L39.2072068,39.7070068 Z" id="Shape"></path>
            <path d="M27.2589256,26.3447121 L12.9571068,12.0428932 C12.5665825,11.6523689 11.9334175,11.6523689 11.5428932,12.0428932 C11.1523689,12.4334175 11.1523689,13.0665825 11.5428932,13.4571068 L25.8447121,27.7589256 C26.2352364,28.1494499 26.8684013,28.1494499 27.2589256,27.7589256 C27.6494499,27.3684013 27.6494499,26.7352364 27.2589256,26.3447121 L27.2589256,26.3447121 Z" id="Shape"></path>
            <path d="M11.25,9.15161133 L11.2455444,11.75 L10,11.75 L10,13.75 L12.25,13.75 C12.8022847,13.75 13.25,13.3022847 13.25,12.75 L13.25,6.75 C13.25,5.85909515 12.1728581,5.41292836 11.5428932,6.04289322 L9.29289322,8.29289322 C8.90236893,8.68341751 8.90236893,9.31658249 9.29289322,9.70710678 C9.68341751,10.0976311 10.3165825,10.0976311 10.7071068,9.70710678 L11.25,9.15161133 Z" id="Shape"></path>
            <path d="M44.2072068,34.7070068 C45.9127308,33.0010003 46.2946883,30.8502651 45.5635828,28.4906063 C44.9765555,26.595963 43.7058697,24.6331953 41.9571976,22.6537841 C41.1194598,21.7055059 40.2246216,20.81445 39.3296806,20.0045393 C39.0161344,19.7207837 38.7244812,19.4670249 38.4618912,19.2464122 C38.3021471,19.1122046 38.1859951,19.0176333 38.1206256,18.965893 C37.7226415,18.6508861 37.1517948,18.6839916 36.7928932,19.0428932 L34.4930885,21.3426979 C34.1025642,21.7332222 34.1025642,22.3663872 34.4930885,22.7569115 C34.8836128,23.1474358 35.5167778,23.1474358 35.9073021,22.7569115 L38.2071068,20.4571068 L36.8793744,20.534107 C36.9298725,20.5740766 37.030972,20.6563921 37.1753802,20.7777154 C37.4197105,20.9829873 37.6929115,21.2206915 37.9876697,21.4874441 C38.8307415,22.2504139 39.673916,23.0900244 40.4583234,23.9779352 C42.0361814,25.7639933 43.1654264,27.5082839 43.6531792,29.0825167 C44.177927,30.7761517 43.9336108,32.1518529 42.7927932,33.2929932 C42.4023242,33.6835727 42.4024137,34.3167377 42.7929932,34.7072068 C43.1835727,35.0976758 43.8167377,35.0975863 44.2072068,34.7070068 L44.2072068,34.7070068 Z" id="Shape"></path>
            <path d="M32.2589256,21.3447121 L17.9571068,7.04289322 C17.5665825,6.65236893 16.9334175,6.65236893 16.5428932,7.04289322 C16.1523689,7.43341751 16.1523689,8.06658249 16.5428932,8.45710678 L30.8447121,22.7589256 C31.2352364,23.1494499 31.8684013,23.1494499 32.2589256,22.7589256 C32.6494499,22.3684013 32.6494499,21.7352364 32.2589256,21.3447121 L32.2589256,21.3447121 Z" id="Shape"></path>
            <path d="M16.25825,4.17235181 L16.2670288,6.75 L15,6.75 L15,8.75 L17.25,8.75 C17.8022847,8.75 18.25,8.30228475 18.25,7.75 L18.25,1.75 C18.25,0.859095149 17.1728581,0.412928358 16.5428932,1.04289322 L14.2928932,3.29289322 C13.9023689,3.68341751 13.9023689,4.31658249 14.2928932,4.70710678 C14.6834175,5.09763107 15.3165825,5.09763107 15.7071068,4.70710678 L16.25825,4.17235181 Z" id="Shape"></path>
        </g>
    </g>
</svg>