<?xml version="1.0" encoding="UTF-8" standalone="no"?>
<svg width="72px" height="72px" viewBox="0 0 72 72" version="1.1" xmlns="http://www.w3.org/2000/svg" xmlns:xlink="http://www.w3.org/1999/xlink">
    <!-- Generator: Sketch 3.8.3 (29802) - http://www.bohemiancoding.com/sketch -->
    <title>icon/combination</title>
    <desc>Created with Sketch.</desc>
    <defs></defs>
    <g id="Icons" stroke="none" stroke-width="1" fill="none" fill-rule="evenodd">
        <g id="icon/combination">
            <g id="combination">
                <g>
                    <rect id="Rectangle-path" fill-opacity="0.799999952" fill="#5F594F" x="0" y="0" width="72" height="72"></rect>
                    <path d="M33.2371788,51.0113568 C33.2895324,51.0776006 33.3852898,51.1953814 33.5212161,51.3574008 C33.7446926,51.6237771 34.001768,51.9196476 34.2892532,52.2377348 C35.1098198,53.1456486 36.0127049,54.0534597 36.973668,54.90331 C38.9851596,56.6822198 40.9798212,57.9731713 42.9047616,58.5658088 C45.2884447,59.2996808 47.4604779,58.9097703 49.1852678,57.1854675 C50.9116173,55.4586297 51.2981131,53.2823406 50.5579072,50.8933101 C49.9630916,48.97353 48.675015,46.9838996 46.9022376,44.9772024 C46.0527451,44.0156184 45.1453126,43.1120215 44.2377774,42.2907131 C43.9198231,42.0029683 43.6240768,41.7456482 43.3578134,41.5219493 C43.1958654,41.3858901 43.078139,41.290037 43.01193,41.2376321 C42.6139459,40.9226252 42.0430992,40.9557308 41.6841976,41.3146323 L33.3146323,49.6841976 C32.955928,50.0429019 32.9226357,50.6133614 33.2371788,51.0113568 L33.2371788,51.0113568 Z M34.8062995,49.7712519 L34.7288459,51.0984111 L43.0984111,42.7288459 L41.7706787,42.8058461 C41.8220164,42.8464803 41.9246902,42.9300776 42.0713024,43.0532525 C42.3193061,43.2616106 42.5966002,43.5028761 42.8957664,43.7736179 C43.7514325,44.5479853 44.6072014,45.4001369 45.4033634,46.3013534 C47.0053267,48.1146975 48.1519625,49.8858509 48.6475036,51.4852205 C49.1813518,53.2082272 48.9324974,54.6094823 47.7710541,55.7712541 C46.6097793,56.9322009 45.2112136,57.1832631 43.4932491,56.6543479 C41.8908178,56.1610023 40.1157813,55.0121929 38.2986124,53.405137 C37.3980576,52.6087102 36.5466455,51.752653 35.7730393,50.8966984 C35.502564,50.5974316 35.2615487,50.3200449 35.0534174,50.0719596 C34.930379,49.9253021 34.8468803,49.8225993 34.8062995,49.7712519 L34.8062995,49.7712519 Z" id="Shape" fill="#FFFFFF"></path>
                    <path d="M44.6201503,51.2059367 L22.5549329,29.1407193 C22.1644086,28.750195 21.5312436,28.750195 21.1407193,29.1407193 C20.750195,29.5312436 20.750195,30.1644086 21.1407193,30.5549329 L43.2059367,52.6201503 C43.596461,53.0106746 44.229626,53.0106746 44.6201503,52.6201503 C45.0106746,52.229626 45.0106746,51.596461 44.6201503,51.2059367 L44.6201503,51.2059367 Z" id="Shape" fill="#FFFFFF"></path>
                    <path d="M20.8478261,23.7608696 L20.8478261,29.8478261 L21.8478261,28.8478261 L15.7608696,28.8478261 L16.4679763,30.5549329 L22.5549329,24.4679763 L20.8478261,23.7608696 L20.8478261,23.7608696 Z M22.8478261,23.7608696 C22.8478261,22.8699647 21.7706842,22.4237979 21.1407193,23.0537628 L15.0537628,29.1407193 C14.4237979,29.7706842 14.8699647,30.8478261 15.7608696,30.8478261 L21.8478261,30.8478261 C22.4001108,30.8478261 22.8478261,30.4001108 22.8478261,29.8478261 L22.8478261,23.7608696 L22.8478261,23.7608696 Z" id="Shape" fill="#FFFFFF"></path>
                    <path d="M53.2072068,51.7070068 C54.9127308,50.0010003 55.2946883,47.8502651 54.5635828,45.4906063 C53.9765555,43.595963 52.7058697,41.6331953 50.9571976,39.6537841 C50.1194598,38.7055059 49.2246216,37.81445 48.3296806,37.0045393 C48.0161344,36.7207837 47.7244812,36.4670249 47.4618912,36.2464122 C47.3021471,36.1122046 47.1859951,36.0176333 47.1206256,35.965893 C46.7226415,35.6508861 46.1517948,35.6839916 45.7928932,36.0428932 L43.4930885,38.3426979 C43.1025642,38.7332222 43.1025642,39.3663872 43.4930885,39.7569115 C43.8836128,40.1474358 44.5167778,40.1474358 44.9073021,39.7569115 L47.2071068,37.4571068 L45.8793744,37.534107 C45.9298725,37.5740766 46.030972,37.6563921 46.1753802,37.7777154 C46.4197105,37.9829873 46.6929115,38.2206915 46.9876697,38.4874441 C47.8307415,39.2504139 48.673916,40.0900244 49.4583234,40.9779352 C51.0361814,42.7639933 52.1654264,44.5082839 52.6531792,46.0825167 C53.177927,47.7761517 52.9336108,49.1518529 51.7927932,50.2929932 C51.4023242,50.6835727 51.4024137,51.3167377 51.7929932,51.7072068 C52.1835727,52.0976758 52.8167377,52.0975863 53.2072068,51.7070068 L53.2072068,51.7070068 Z" id="Shape" fill="#FFFFFF"></path>
                    <path d="M41.2589256,38.3447121 L26.9571068,24.0428932 C26.5665825,23.6523689 25.9334175,23.6523689 25.5428932,24.0428932 C25.1523689,24.4334175 25.1523689,25.0665825 25.5428932,25.4571068 L39.8447121,39.7589256 C40.2352364,40.1494499 40.8684013,40.1494499 41.2589256,39.7589256 C41.6494499,39.3684013 41.6494499,38.7352364 41.2589256,38.3447121 L41.2589256,38.3447121 Z" id="Shape" fill="#FFFFFF"></path>
                    <path d="M26.9571068,19.4571068 L25.25,18.75 L25.25,24.75 L26.25,23.75 L24,23.75 L24,25.75 L26.25,25.75 C26.8022847,25.75 27.25,25.3022847 27.25,24.75 L27.25,18.75 C27.25,17.8590951 26.1728581,17.4129284 25.5428932,18.0428932 L23.2928932,20.2928932 C22.9023689,20.6834175 22.9023689,21.3165825 23.2928932,21.7071068 C23.6834175,22.0976311 24.3165825,22.0976311 24.7071068,21.7071068 L26.9571068,19.4571068 Z" id="Shape" fill="#FFFFFF"></path>
                    <path d="M58.2072068,46.7070068 C59.9127308,45.0010003 60.2946883,42.8502651 59.5635828,40.4906063 C58.9765555,38.595963 57.7058697,36.6331953 55.9571976,34.6537841 C55.1194598,33.7055059 54.2246216,32.81445 53.3296806,32.0045393 C53.0161344,31.7207837 52.7244812,31.4670249 52.4618912,31.2464122 C52.3021471,31.1122046 52.1859951,31.0176333 52.1206256,30.965893 C51.7226415,30.6508861 51.1517948,30.6839916 50.7928932,31.0428932 L48.4930885,33.3426979 C48.1025642,33.7332222 48.1025642,34.3663872 48.4930885,34.7569115 C48.8836128,35.1474358 49.5167778,35.1474358 49.9073021,34.7569115 L52.2071068,32.4571068 L50.8793744,32.534107 C50.9298725,32.5740766 51.030972,32.6563921 51.1753802,32.7777154 C51.4197105,32.9829873 51.6929115,33.2206915 51.9876697,33.4874441 C52.8307415,34.2504139 53.673916,35.0900244 54.4583234,35.9779352 C56.0361814,37.7639933 57.1654264,39.5082839 57.6531792,41.0825167 C58.177927,42.7761517 57.9336108,44.1518529 56.7927932,45.2929932 C56.4023242,45.6835727 56.4024137,46.3167377 56.7929932,46.7072068 C57.1835727,47.0976758 57.8167377,47.0975863 58.2072068,46.7070068 L58.2072068,46.7070068 Z" id="Shape" fill="#FFFFFF"></path>
                    <path d="M46.2589256,33.3447121 L31.9571068,19.0428932 C31.5665825,18.6523689 30.9334175,18.6523689 30.5428932,19.0428932 C30.1523689,19.4334175 30.1523689,20.0665825 30.5428932,20.4571068 L44.8447121,34.7589256 C45.2352364,35.1494499 45.8684013,35.1494499 46.2589256,34.7589256 C46.6494499,34.3684013 46.6494499,33.7352364 46.2589256,33.3447121 L46.2589256,33.3447121 Z" id="Shape" fill="#FFFFFF"></path>
                    <path d="M31.9571068,14.4571068 L30.25,13.75 L30.25,19.75 L31.25,18.75 L29,18.75 L29,20.75 L31.25,20.75 C31.8022847,20.75 32.25,20.3022847 32.25,19.75 L32.25,13.75 C32.25,12.8590951 31.1728581,12.4129284 30.5428932,13.0428932 L28.2928932,15.2928932 C27.9023689,15.6834175 27.9023689,16.3165825 28.2928932,16.7071068 C28.6834175,17.0976311 29.3165825,17.0976311 29.7071068,16.7071068 L31.9571068,14.4571068 Z" id="Shape" fill="#FFFFFF"></path>
                </g>
            </g>
        </g>
    </g>
</svg>