<?xml version="1.0" encoding="UTF-8" standalone="no"?>
<svg width="72px" height="72px" viewBox="0 0 72 72" version="1.1" xmlns="http://www.w3.org/2000/svg" xmlns:xlink="http://www.w3.org/1999/xlink">
    <!-- Generator: Sketch 3.8.3 (29802) - http://www.bohemiancoding.com/sketch -->
    <title>icon/economics</title>
    <desc>Created with Sketch.</desc>
    <defs></defs>
    <g id="Icons" stroke="none" stroke-width="1" fill="none" fill-rule="evenodd">
        <g id="icon/economics">
            <g id="economics">
                <g>
                    <rect id="Rectangle-path" fill-opacity="0.799999952" fill="#5F594F" x="0" y="0" width="72" height="72"></rect>
                    <path d="M30,26 C36.4859813,26 42,24.5590031 42,22 C42,19.4409969 36.4859813,18 30,18 C22.5140187,18 17,19.4409969 17,22 C17,24.5590031 22.5140187,26 30,26 L30,26 Z M30,24 C23.7837537,24 19,22.7547054 19,22 C19,21.2452946 23.7837537,20 30,20 C35.2162463,20 40,21.2452946 40,22 C40,22.7547054 35.2162463,24 30,24 L30,24 Z" id="Oval" fill="#FFFFFF"></path>
                    <path d="M40,22 L40,27 C39.9591837,27.5643637 35.1957131,28.8823529 30,29 C23.8053317,28.8823529 19.0408163,27.564196 19,27 L19,22 L17,22 L17,27 C17,29.4747038 22.513226,31 30,31 C36.487733,31 42,29.4748287 42,27 L42,22 L40,22 L40,22 Z" id="Shape" fill="#FFFFFF"></path>
                    <path d="M40,27 L40,32 C39.9591837,32.5643637 35.1957131,33.8823529 30,34 C23.8053317,33.8823529 19.0408163,32.564196 19,32 L19,27 L17,27 L17,32 C17,34.4747038 22.513226,36 30,36 C36.487733,36 42,34.4748287 42,32 L42,27 L40,27 L40,27 Z" id="Shape" fill="#FFFFFF"></path>
                    <path d="M41.5,46 C48.4859813,46 54,44.5590031 54,42 C54,39.4409969 48.4859813,38 41.5,38 C34.5140187,38 29,39.4409969 29,42 C29,44.5590031 34.5140187,46 41.5,46 L41.5,46 Z M41.5,44 C35.8059743,44 31.0408163,42.7547054 31.0408163,42 C31.0408163,41.2452946 35.8059743,40 41.5,40 C47.1940257,40 51.9591837,41.2452946 51.9591837,42 C51.9591837,42.7547054 47.1940257,44 41.5,44 L41.5,44 Z" id="Oval" fill="#FFFFFF"></path>
                    <path d="M52,42 L52,47 C51.9591837,47.5643637 47.1957131,48.8823529 42,49 C35.8053317,48.8823529 31.0408163,47.564196 31,47 L31,42 L29,42 L29,47 C29,49.4747038 34.513226,51 42,51 C48.487733,51 54,49.4748287 54,47 L54,42 L52,42 L52,42 Z" id="Shape" fill="#FFFFFF"></path>
                    <path d="M52,47 L52,52 C51.9591837,52.5643637 47.1957131,53.8823529 42,54 C35.8053317,53.8823529 31.0408163,52.564196 31,52 L31,47 L29,47 L29,52 C29,54.4747038 34.513226,56 42,56 C48.487733,56 54,54.4748287 54,52 L54,47 L52,47 L52,47 Z" id="Shape" fill="#FFFFFF"></path>
                    <path d="M40,32 L40,37 C39.9591837,37.5643637 35.1957131,38.8823529 30,39 C23.8053317,38.8823529 19.0408163,37.564196 19,37 L19,32 L17,32 L17,37 C17,39.4747038 22.513226,41 30,41 C36.487733,41 42,39.4748287 42,37 L42,32 L40,32 L40,32 Z" id="Shape" fill="#FFFFFF"></path>
                    <path d="M17,37 L17,42 C17,44.4747038 22.4029615,46 29,46 L30,46 L30,44 L29,44 C23.669225,43.8823529 19,42.564196 19,42 L19,37 L17,37 L17,37 Z" id="Shape" fill="#FFFFFF"></path>
                    <path d="M17,42 L17,47 C17,49.4747038 22.4029615,51 29,51 L30,51 L30,49 L29,49 C23.669225,48.8823529 19,47.564196 19,47 L19,42 L17,42 L17,42 Z" id="Shape" fill="#FFFFFF"></path>
                </g>
            </g>
        </g>
    </g>
</svg>