<?xml version="1.0" encoding="UTF-8" standalone="no"?>
<svg width="37px" height="38px" viewBox="0 0 37 38" version="1.1" xmlns="http://www.w3.org/2000/svg" xmlns:xlink="http://www.w3.org/1999/xlink">
    <!-- Generator: Sketch 3.8.3 (29802) - http://www.bohemiancoding.com/sketch -->
    <title>economics</title>
    <desc>Created with Sketch.</desc>
    <defs></defs>
    <g id="Icons" stroke="none" stroke-width="1" fill="none" fill-rule="evenodd">
        <g id="economics" fill="#000000">
            <path d="M13,8 C19.4859813,8 25,6.55900311 25,4 C25,1.44099689 19.4859813,0 13,0 C5.51401871,0 0,1.44099689 0,4 C0,6.55900311 5.51401871,8 13,8 L13,8 Z M13,6 C6.78375369,6 2,4.75470539 2,4 C2,3.24529461 6.78375369,2 13,2 C18.2162463,2 23,3.24529461 23,4 C23,4.75470539 18.2162463,6 13,6 L13,6 Z" id="Oval"></path>
            <path d="M23,4 L23,9 C22.9591837,9.56436367 18.1957131,10.8823529 13,11 C6.80533167,10.8823529 2.04081633,9.564196 2,9 L2,4 L0,4 L0,9 C0,11.4747038 5.51322601,13 13,13 C19.487733,13 25,11.4748287 25,9 L25,4 L23,4 L23,4 Z" id="Shape"></path>
            <path d="M23,9 L23,14 C22.9591837,14.5643637 18.1957131,15.8823529 13,16 C6.80533167,15.8823529 2.04081633,14.564196 2,14 L2,9 L0,9 L0,14 C0,16.4747038 5.51322601,18 13,18 C19.487733,18 25,16.4748287 25,14 L25,9 L23,9 L23,9 Z" id="Shape"></path>
            <path d="M24.5,28 C31.4859813,28 37,26.5590031 37,24 C37,21.4409969 31.4859813,20 24.5,20 C17.5140187,20 12,21.4409969 12,24 C12,26.5590031 17.5140187,28 24.5,28 L24.5,28 Z M24.5,26 C18.8059743,26 14.0408163,24.7547054 14.0408163,24 C14.0408163,23.2452946 18.8059743,22 24.5,22 C30.1940257,22 34.9591837,23.2452946 34.9591837,24 C34.9591837,24.7547054 30.1940257,26 24.5,26 L24.5,26 Z" id="Oval"></path>
            <path d="M35,24 L35,29 C34.9591837,29.5643637 30.1957131,30.8823529 25,31 C18.8053317,30.8823529 14.0408163,29.564196 14,29 L14,24 L12,24 L12,29 C12,31.4747038 17.513226,33 25,33 C31.487733,33 37,31.4748287 37,29 L37,24 L35,24 L35,24 Z" id="Shape"></path>
            <path d="M35,29 L35,34 C34.9591837,34.5643637 30.1957131,35.8823529 25,36 C18.8053317,35.8823529 14.0408163,34.564196 14,34 L14,29 L12,29 L12,34 C12,36.4747038 17.513226,38 25,38 C31.487733,38 37,36.4748287 37,34 L37,29 L35,29 L35,29 Z" id="Shape"></path>
            <path d="M23,14 L23,19 C22.9591837,19.5643637 18.1957131,20.8823529 13,21 C6.80533167,20.8823529 2.04081633,19.564196 2,19 L2,14 L0,14 L0,19 C0,21.4747038 5.51322601,23 13,23 C19.487733,23 25,21.4748287 25,19 L25,14 L23,14 L23,14 Z" id="Shape"></path>
            <path d="M0,19 L0,24 C0,26.4747038 5.40296149,28 12,28 L13,28 L13,26 L12,26 C6.66922503,25.8823529 2,24.564196 2,24 L2,19 L0,19 L0,19 Z" id="Shape"></path>
            <path d="M0,24 L0,29 C0,31.4747038 5.40296149,33 12,33 L13,33 L13,31 L12,31 C6.66922503,30.8823529 2,29.564196 2,29 L2,24 L0,24 L0,24 Z" id="Shape"></path>
        </g>
    </g>
</svg>