<?xml version="1.0" encoding="UTF-8" standalone="no"?>
<svg width="48px" height="47px" viewBox="0 0 48 47" version="1.1" xmlns="http://www.w3.org/2000/svg" xmlns:xlink="http://www.w3.org/1999/xlink">
    <!-- Generator: Sketch 39 (31667) - http://www.bohemiancoding.com/sketch -->
    <title>export</title>
    <desc>Created with Sketch.</desc>
    <defs></defs>
    <g id="Icons" stroke="none" stroke-width="1" fill="none" fill-rule="evenodd">
        <path d="M22,21.5857864 L22,0 L24,0 L24,21.5857864 L30.2928932,15.2928932 L31.7071068,16.7071068 L23.7071068,24.7071068 L23,25.4142136 L22.2928932,24.7071068 L14.2928932,16.7071068 L15.7071068,15.2928932 L22,21.5857864 Z M11,21 L10.5316251,21 L10.2317787,21.3598156 L0.23177872,33.3598156 L0,35 L47.9999987,35 L47.7682213,33.3598156 L37.7682213,21.3598156 L37.4683749,21 L37,21 L34,21 L34,23 L37,23 L36.2317787,22.6401844 L44.9999987,33 L3.0000001,33 L11.7682213,22.6401844 L11,23 L13,23 L13,21 L11,21 Z M32,39 L32,41 L40,41 L40,39 L32,39 Z M0,42 C0,44.7522847 2.24771525,47 5,47 L43,47 C45.7522847,47 48,44.7522847 48,42 L48,35 L46,35 L46,42 C46,43.6477153 44.6477153,45 43,45 L5,45 C3.35228475,45 2,43.6477153 2,42 L2,35 L0,35 L0,42 Z" id="export" fill="#000000"></path>
    </g>
</svg>