<?xml version="1.0" encoding="UTF-8" standalone="no"?>
<svg width="18px" height="18px" viewBox="0 0 18 18" version="1.1" xmlns="http://www.w3.org/2000/svg" xmlns:xlink="http://www.w3.org/1999/xlink" xmlns:sketch="http://www.bohemiancoding.com/sketch/ns">
    <!-- Generator: Sketch 3.2.2 (9983) - http://www.bohemiancoding.com/sketch -->
    <title>information</title>
    <desc>Created with Sketch.</desc>
    <defs></defs>
    <g id="WOCAT" stroke="none" stroke-width="1" fill="none" fill-rule="evenodd" sketch:type="MSPage">
        <g id="10_WOCAT-Form-Input-2" sketch:type="MSArtboardGroup" transform="translate(-497.000000, -1627.000000)" fill="#000000">
            <g id="Degradation" sketch:type="MSLayerGroup" transform="translate(130.000000, 1536.000000)">
                <g id="Group" transform="translate(24.000000, 48.000000)" sketch:type="MSShapeGroup">
                    <path d="M352,43.36 C347.2273,43.36 343.3591,47.2282 343.3591,52 C343.3591,56.7727 347.2273,60.6409 352,60.6409 C356.7709,60.6409 360.64,56.7727 360.64,52 C360.64,47.2282 356.7709,43.36 352,43.36 L352,43.36 Z M352.8064,46.4794 C353.6488,46.4794 353.8963,46.9681 353.8963,47.527 C353.8963,48.2245 353.3383,48.8698 352.3852,48.8698 C351.5878,48.8698 351.208,48.4693 351.2314,47.806 C351.2314,47.2471 351.6985,46.4794 352.8064,46.4794 L352.8064,46.4794 Z M350.6482,57.175 C350.0722,57.175 349.6519,56.8249 350.0542,55.2904 L350.7139,52.5679 C350.8282,52.1323 350.8471,51.9577 350.7139,51.9577 C350.542,51.9577 349.7941,52.2583 349.3531,52.5553 L349.066,52.0846 C350.4655,50.9155 352.0747,50.2297 352.7632,50.2297 C353.3392,50.2297 353.4346,50.9101 353.1475,51.9577 L352.3915,54.8197 C352.2574,55.3255 352.315,55.5001 352.4491,55.5001 C352.6219,55.5001 353.1871,55.2913 353.7433,54.853 L354.0691,55.2904 C352.7074,56.6512 351.2233,57.175 350.6482,57.175 L350.6482,57.175 Z" id="information"></path>
                </g>
            </g>
        </g>
    </g>
</svg>