<?xml version="1.0" encoding="UTF-8" standalone="no"?>
<svg width="72px" height="72px" viewBox="0 0 72 72" version="1.1" xmlns="http://www.w3.org/2000/svg" xmlns:xlink="http://www.w3.org/1999/xlink">
    <!-- Generator: Sketch 3.8.3 (29802) - http://www.bohemiancoding.com/sketch -->
    <title>icon/map</title>
    <desc>Created with Sketch.</desc>
    <defs></defs>
    <g id="Icons" stroke="none" stroke-width="1" fill="none" fill-rule="evenodd">
        <g id="icon/map">
            <g id="map">
                <g>
                    <rect id="Rectangle-path" fill-opacity="0.8" fill="#834073" x="0" y="0" width="72" height="72"></rect>
                    <path d="M27,25.8003322 L27,53.0568107 L15.5812382,44.9005522 L16,45.7142857 L15.8949779,17.8681735 L27,25.8003322 L27,25.8003322 Z M29,53.1081374 L29,25.8003322 L40,17.9431893 L40,34 L42,34 L42,17.9431893 L53.4187618,26.0994478 L53,25.2857143 L53,38.2857143 L55,38.2857143 L55,25.2857143 L55,24.7710964 L54.5812382,24.4719808 L41.5812382,15.1862665 L41,14.7710964 L40.4187618,15.1862665 L27.4187618,24.4719808 L28.5812382,24.4719808 L15.5812382,15.1862665 L14,14.0568107 L14,16 L14,45.7142857 L14,46.2289036 L14.4187618,46.5280192 L27.4187618,55.8137335 L28,56.2289036 L28.5812382,55.8137335 L36.0042382,50.5115906 L34.8417618,48.8841237 L29,53.1081374 L29,53.1081374 Z" id="Combined-Shape" fill="#FFFFFF"></path>
                    <path d="M46,55 C50.418278,55 54,51.418278 54,47 C54,42.581722 50.418278,39 46,39 C41.581722,39 38,42.581722 38,47 C38,51.418278 41.581722,55 46,55 L46,55 L46,55 Z M46,53 C42.6862915,53 40,50.3137085 40,47 C40,43.6862915 42.6862915,41 46,41 C49.3137085,41 52,43.6862915 52,47 C52,50.3137085 49.3137085,53 46,53 L46,53 Z M50.2928932,52.7071068 L56.2928932,58.7071068 L57.7071068,57.2928932 L51.7071068,51.2928932 L50.2928932,52.7071068 L50.2928932,52.7071068 Z" id="Combined-Shape" fill="#FFFFFF"></path>
                </g>
            </g>
        </g>
    </g>
</svg>