<?xml version="1.0" encoding="UTF-8" standalone="no"?>
<svg width="44px" height="45px" viewBox="0 0 44 45" version="1.1" xmlns="http://www.w3.org/2000/svg" xmlns:xlink="http://www.w3.org/1999/xlink">
    <!-- Generator: Sketch 3.8.3 (29802) - http://www.bohemiancoding.com/sketch -->
    <title>map</title>
    <desc>Created with Sketch.</desc>
    <defs></defs>
    <g id="Icons" stroke="none" stroke-width="1" fill="none" fill-rule="evenodd">
        <g id="map" fill="#000000">
            <path d="M13,11.8003322 L13,39.0568107 L1.58123819,30.9005522 L2,31.7142857 L1.89497789,3.86817353 L13,11.8003322 L13,11.8003322 Z M15,39.1081374 L15,11.8003322 L26,3.94318932 L26,20 L28,20 L28,3.94318932 L39.4187618,12.0994478 L39,11.2857143 L39,24.2857143 L41,24.2857143 L41,11.2857143 L41,10.7710964 L40.5812382,10.4719808 L27.5812382,1.18626653 L27,0.77109639 L26.4187618,1.18626653 L13.4187618,10.4719808 L14.5812382,10.4719808 L1.58123819,1.18626653 L0,0.0568106761 L0,2 L0,31.7142857 L0,32.2289036 L0.418761806,32.5280192 L13.4187618,41.8137335 L14,42.2289036 L14.5812382,41.8137335 L22.0042382,36.5115906 L20.8417618,34.8841237 L15,39.1081374 L15,39.1081374 Z" id="Combined-Shape"></path>
            <path d="M32,41 C36.418278,41 40,37.418278 40,33 C40,28.581722 36.418278,25 32,25 C27.581722,25 24,28.581722 24,33 C24,37.418278 27.581722,41 32,41 L32,41 L32,41 Z M32,39 C28.6862915,39 26,36.3137085 26,33 C26,29.6862915 28.6862915,27 32,27 C35.3137085,27 38,29.6862915 38,33 C38,36.3137085 35.3137085,39 32,39 L32,39 Z M36.2928932,38.7071068 L42.2928932,44.7071068 L43.7071068,43.2928932 L37.7071068,37.2928932 L36.2928932,38.7071068 L36.2928932,38.7071068 Z" id="Combined-Shape"></path>
        </g>
    </g>
</svg>