<?xml version="1.0" encoding="UTF-8" standalone="no"?>
<!-- Generator: Adobe Illustrator 17.0.0, SVG Export Plug-In . SVG Version: 6.00 Build 0)  -->

<svg
   xmlns:dc="http://purl.org/dc/elements/1.1/"
   xmlns:cc="http://creativecommons.org/ns#"
   xmlns:rdf="http://www.w3.org/1999/02/22-rdf-syntax-ns#"
   xmlns:svg="http://www.w3.org/2000/svg"
   xmlns="http://www.w3.org/2000/svg"
   xmlns:sodipodi="http://sodipodi.sourceforge.net/DTD/sodipodi-0.dtd"
   xmlns:inkscape="http://www.inkscape.org/namespaces/inkscape"
   version="1.1"
   id="Layer_1"
   x="0px"
   y="0px"
   width="100px"
   height="100px"
   viewBox="0 0 100 100"
   enable-background="new 0 0 100 100"
   xml:space="preserve"
   inkscape:version="0.91 r13725"
   sodipodi:docname="member-remove.svg"><metadata
     id="metadata3345"><rdf:RDF><cc:Work
         rdf:about=""><dc:format>image/svg+xml</dc:format><dc:type
           rdf:resource="http://purl.org/dc/dcmitype/StillImage" /><dc:title /></cc:Work></rdf:RDF></metadata><defs
     id="defs3343" /><sodipodi:namedview
     pagecolor="#ffffff"
     bordercolor="#666666"
     borderopacity="1"
     objecttolerance="10"
     gridtolerance="10"
     guidetolerance="10"
     inkscape:pageopacity="0"
     inkscape:pageshadow="2"
     inkscape:window-width="1855"
     inkscape:window-height="1176"
     id="namedview3341"
     showgrid="false"
     inkscape:zoom="8.87"
     inkscape:cx="13.16482"
     inkscape:cy="19.571937"
     inkscape:window-x="65"
     inkscape:window-y="24"
     inkscape:window-maximized="1"
     inkscape:current-layer="Layer_1" /><g
     id="g3337"
     transform="matrix(1.0717541,0,0,1.0717541,-7.4839218,-4.3378873)"><path
       d="M 68.408688,54.490462 64.501,52.971 57.879,49.812 c 2.892,-1.822 5.241,-4.634 6.778,-8.022 1.22,-2.69 1.946,-5.734 1.946,-8.99 0,-1.827 -0.29,-3.562 -0.694,-5.236 C 63.94,19.453 57.605,13.477 50,13.477 c -7.461,0 -13.701,5.763 -15.792,13.645 -0.482,1.808 -0.815,3.688 -0.815,5.68 0,3.459 0.808,6.684 2.181,9.489 1.587,3.254 3.94,5.937 6.804,7.662 l -6.342,2.953 -16.168,7.53 c -1.404,0.658 -2.327,2.242 -2.327,4.011 l 0,15.062 0,2.703 c 0,2.381 1.659001,4.313063 3.708,4.312 L 56.933043,86.50549 C 48.624832,72.995659 56.650323,57.774327 68.408688,54.490462 Z"
       id="path3339"
       inkscape:connector-curvature="0"
       sodipodi:nodetypes="ccccscscsccccscsscc" /></g><g
     transform="matrix(0.58193499,0,0,0.58193499,43.780114,46.793978)"
     id="g3"><path
       style="fill:#231f20"
       inkscape:connector-curvature="0"
       d="m 67.441,44.796 -34.882,0 c -0.507,0 -0.918,0.411 -0.918,0.918 l 0,8.572 c 0,0.507 0.411,0.918 0.918,0.918 l 34.883,0 c 0.507,0 0.918,-0.411 0.918,-0.918 l 0,-8.572 c -0.001,-0.507 -0.412,-0.918 -0.919,-0.918 z"
       id="path5" /><g
       id="g7"><path
         style="fill:#231f20"
         inkscape:connector-curvature="0"
         d="m 50,22.44 c 15.196,0 27.56,12.366 27.56,27.562 C 77.56,65.199 65.196,77.56 50,77.56 34.804,77.56 22.44,65.199 22.44,50.002 22.44,34.806 34.804,22.44 50,22.44 M 50,12.5 C 29.291,12.5 12.5,29.293 12.5,50.002 12.5,70.712 29.291,87.5 50,87.5 70.709,87.5 87.5,70.712 87.5,50.002 87.5,29.293 70.709,12.5 50,12.5 l 0,0 z"
         id="path9" /></g></g></svg>