<?xml version="1.0" encoding="UTF-8" standalone="no"?>
<!-- Generator: Adobe Illustrator 17.0.0, SVG Export Plug-In . SVG Version: 6.00 Build 0)  -->

<svg
   xmlns:dc="http://purl.org/dc/elements/1.1/"
   xmlns:cc="http://creativecommons.org/ns#"
   xmlns:rdf="http://www.w3.org/1999/02/22-rdf-syntax-ns#"
   xmlns:svg="http://www.w3.org/2000/svg"
   xmlns="http://www.w3.org/2000/svg"
   xmlns:sodipodi="http://sodipodi.sourceforge.net/DTD/sodipodi-0.dtd"
   xmlns:inkscape="http://www.inkscape.org/namespaces/inkscape"
   version="1.1"
   id="Layer_1"
   x="0px"
   y="0px"
   width="100px"
   height="100px"
   viewBox="0 0 100 100"
   enable-background="new 0 0 100 100"
   xml:space="preserve"
   inkscape:version="0.91 r13725"
   sodipodi:docname="member-add.svg"><metadata
     id="metadata3345"><rdf:RDF><cc:Work
         rdf:about=""><dc:format>image/svg+xml</dc:format><dc:type
           rdf:resource="http://purl.org/dc/dcmitype/StillImage" /><dc:title /></cc:Work></rdf:RDF></metadata><defs
     id="defs3343" /><sodipodi:namedview
     pagecolor="#ffffff"
     bordercolor="#666666"
     borderopacity="1"
     objecttolerance="10"
     gridtolerance="10"
     guidetolerance="10"
     inkscape:pageopacity="0"
     inkscape:pageshadow="2"
     inkscape:window-width="1855"
     inkscape:window-height="1176"
     id="namedview3341"
     showgrid="false"
     inkscape:zoom="6.2720372"
     inkscape:cx="42.928675"
     inkscape:cy="38.987024"
     inkscape:window-x="65"
     inkscape:window-y="24"
     inkscape:window-maximized="1"
     inkscape:current-layer="Layer_1" /><g
     id="g3337"
     transform="matrix(1.0717541,0,0,1.0717541,-9.1949881,-6.7256187)"><path
       d="M 68.408688,54.490462 64.501,52.971 57.879,49.812 c 2.892,-1.822 5.241,-4.634 6.778,-8.022 1.22,-2.69 1.946,-5.734 1.946,-8.99 0,-1.827 -0.29,-3.562 -0.694,-5.236 C 63.94,19.453 57.605,13.477 50,13.477 c -7.461,0 -13.701,5.763 -15.792,13.645 -0.482,1.808 -0.815,3.688 -0.815,5.68 0,3.459 0.808,6.684 2.181,9.489 1.587,3.254 3.94,5.937 6.804,7.662 l -6.342,2.953 -16.168,7.53 c -1.404,0.658 -2.327,2.242 -2.327,4.011 l 0,15.062 0,2.703 c 0,2.381 1.659001,4.313063 3.708,4.312 L 56.933043,86.50549 C 48.624832,72.995659 56.650323,57.774327 68.408688,54.490462 Z"
       id="path3339"
       inkscape:connector-curvature="0"
       sodipodi:nodetypes="ccccscscsccccscsscc" /></g><g
     transform="matrix(0.58193499,0,0,0.58193499,42.069048,44.406246)"
     id="g3"><g
       id="g7"><path
         style="fill:#231f20"
         inkscape:connector-curvature="0"
         d="m 50,22.44 c 15.196,0 27.56,12.366 27.56,27.562 C 77.56,65.199 65.196,77.56 50,77.56 34.804,77.56 22.44,65.199 22.44,50.002 22.44,34.806 34.804,22.44 50,22.44 M 50,12.5 C 29.291,12.5 12.5,29.293 12.5,50.002 12.5,70.712 29.291,87.5 50,87.5 70.709,87.5 87.5,70.712 87.5,50.002 87.5,29.293 70.709,12.5 50,12.5 l 0,0 z"
         id="path9" /></g></g><path
     inkscape:connector-curvature="0"
     d="m 82.524991,69.800294 -8.168608,0 0,-8.166587 c 0,-0.338387 -0.274497,-0.612545 -0.612551,-0.612883 l -5.721475,0 c -0.338388,0 -0.612545,0.274496 -0.612545,0.612883 l -3.38e-4,8.167263 -8.166925,-3.38e-4 c -0.324865,0 -0.612545,0.287679 -0.612883,0.612883 l 0,5.721479 c -3.38e-4,0.162601 0.06457,0.31878 0.179504,0.433379 0.114598,0.114598 0.270777,0.179503 0.433379,0.179165 l 8.167263,0 0,8.168949 c 0,0.16227 0.06457,0.318441 0.179504,0.433379 0.114937,0.114938 0.271115,0.179507 0.433379,0.179507 l 5.720802,0 c 0.162262,0 0.318785,-0.06493 0.434058,-0.180176 0.11426,-0.114269 0.178828,-0.27044 0.178828,-0.43271 l 0,-8.168611 8.168273,-3.38e-4 c 0.169023,0 0.322165,-0.06828 0.43338,-0.179165 0.111214,-0.111218 0.179506,-0.264355 0.179506,-0.433717 l 3.35e-4,-5.721479 c 0,-0.338388 -0.274155,-0.612545 -0.612886,-0.612883 z"
     id="path3" /></svg>