<?xml version="1.0" encoding="UTF-8" standalone="no"?>
<svg width="23px" height="26px" viewBox="0 0 23 26" version="1.1" xmlns="http://www.w3.org/2000/svg" xmlns:xlink="http://www.w3.org/1999/xlink" xmlns:sketch="http://www.bohemiancoding.com/sketch/ns">
    <!-- Generator: Sketch 3.2.2 (9983) - http://www.bohemiancoding.com/sketch -->
    <title>pdf</title>
    <desc>Created with Sketch.</desc>
    <defs></defs>
    <g id="Assets" stroke="none" stroke-width="1" fill="none" fill-rule="evenodd" sketch:type="MSPage">
        <path d="M17.25,0 L0,0 L0,26 L23,26 L23,5.57142857 L17.25,0 Z M1.91666667,1.85714286 L9.58333333,1.85714286 C9.1640625,1.97321429 8.74479167,2.32142857 8.56510417,3.07589286 C8.14583333,4.52678571 8.32552083,6.90625 8.984375,9.16964286 C8.265625,11.5491071 5.33072917,17.1785714 5.15104167,17.5267857 C4.671875,17.7008929 3.17447917,18.2232143 1.91666667,19.2678571 L1.91666667,1.85714286 Z M10.421875,10.7946429 C12.0989583,15.1473214 13.2369792,15.1473214 14.4348958,15.6696429 C11.9192708,16.0178571 10.0026042,16.3080357 7.48697917,17.3526786 C7.3671875,17.5267857 9.76302083,13.1160714 10.421875,10.7946429 L10.421875,10.7946429 Z M21.0833333,24.1428571 L1.91666667,24.1428571 L1.9765625,24.1428571 C2.99479167,24.1428571 4.4921875,23.5625 7.3671875,18.8616071 C8.50520833,18.3973214 9.5234375,18.0491071 9.703125,17.9910714 C11.5,17.5848214 13.4765625,17.2366071 15.3333333,17.0625 C16.9505208,17.8169643 19.1666667,18.3973214 20.3645833,18.4553571 C20.6640625,18.4553571 20.84375,18.3973214 21.0833333,18.3973214 L21.0833333,24.1428571 Z M21.0833333,15.1473214 C20.3645833,14.6830357 19.4661458,14.3928571 18.3880208,14.3928571 C17.6692708,14.3928571 16.890625,14.4508929 16.0520833,14.5089286 C15.2734375,14.1607143 13.296875,13.5803571 11.6796875,8.99553571 C12.1588542,5.97767857 12.0390625,3.94642857 12.0390625,3.94642857 C12.21875,2.4375 11.3203125,1.85714286 10.4817708,1.85714286 L16.3333333,1.85714286 L21.0833333,6.42857143 L21.0833333,15.1473214 Z" id="pdf" fill="#000000" sketch:type="MSShapeGroup"></path>
    </g>
</svg>