<?xml version="1.0" encoding="UTF-8" standalone="no"?>
<svg width="48px" height="44px" viewBox="0 0 48 44" version="1.1" xmlns="http://www.w3.org/2000/svg" xmlns:xlink="http://www.w3.org/1999/xlink">
    <!-- Generator: Sketch 39 (31667) - http://www.bohemiancoding.com/sketch -->
    <title>print</title>
    <desc>Created with Sketch.</desc>
    <defs></defs>
    <g id="Icons" stroke="none" stroke-width="1" fill="none" fill-rule="evenodd">
        <path d="M10,26 L10,44 L38,44 L38,26 L10,26 Z M36,28 L36,42 L12,42 L12,28 L36,28 Z M5,32 C3.35228475,32 2,30.6477153 2,29 L2,17 C2,15.3522847 3.35228475,14 5,14 L43,14 C44.6489484,14 46,15.3515177 46,17 L46,29 C46,30.6484823 44.6489484,32 43,32 L38,32 L38,34 L43,34 C45.7536723,34 48,31.7528975 48,29 L48,17 C48,14.2471025 45.7536723,12 43,12 L5,12 C2.24771525,12 0,14.2477153 0,17 L0,29 C0,31.7522847 2.24771525,34 5,34 L10,34 L10,32 L5,32 Z M10,19 C10,17.3431458 8.65685425,16 7,16 C5.34314575,16 4,17.3431458 4,19 C4,20.6568542 5.34314575,22 7,22 C8.65685425,22 10,20.6568542 10,19 Z M6,19 C6,18.4477153 6.44771525,18 7,18 C7.55228475,18 8,18.4477153 8,19 C8,19.5522847 7.55228475,20 7,20 C6.44771525,20 6,19.5522847 6,19 Z M33,32 L33,30 L15,30 L15,32 L33,32 Z M33,36 L33,34 L15,34 L15,36 L33,36 Z M33,40 L33,38 L15,38 L15,40 L33,40 Z M12,2 L31,2 L36,7 L36,9 L38,9 L38,6.58578644 L31.4142136,0 L10,0 L10,9 L12,9 L12,2 Z M29,9 L36,9 L36,7 L31,7 L31,2 L29,2 L29,9 Z" id="print" fill="#000000"></path>
    </g>
</svg>