<svg width="20" height="21" viewBox="0 0 20 21" xmlns="http://www.w3.org/2000/svg" xmlns:sketch="http://www.bohemiancoding.com/sketch/ns"><title>search</title><desc>Created with Sketch.</desc><path d="M14.871 12.493l5.013 5.013c.077.089.116.189.116.301 0 .111-.039.212-.116.301l-1.822 1.821c-.09.078-.189.117-.301.117-.111 0-.212-.039-.301-.117l-5.013-5.013c-1.326.869-2.779 1.303-4.361 1.303-2.228 0-4.133-.791-5.714-2.373-1.582-1.582-2.373-3.486-2.373-5.714s.791-4.133 2.373-5.714c1.581-1.582 3.485-2.373 5.714-2.373 2.228 0 4.133.791 5.715 2.373 1.581 1.582 2.373 3.486 2.373 5.714 0 1.582-.434 3.035-1.303 4.361zm-10.694-8.254c-1.08 1.08-1.621 2.378-1.621 3.893 0 1.515.54 2.813 1.621 3.893 1.08 1.08 2.384 1.621 3.91 1.621 1.526 0 2.827-.537 3.901-1.612 1.075-1.075 1.612-2.375 1.612-3.901 0-1.526-.537-2.827-1.612-3.901-1.075-1.075-2.375-1.612-3.901-1.612-1.526 0-2.829.54-3.91 1.621z" sketch:type="MSShapeGroup" fill="#3E3A35"/></svg>