<?xml version="1.0" encoding="UTF-8" standalone="no"?>
<svg width="72px" height="72px" viewBox="0 0 72 72" version="1.1" xmlns="http://www.w3.org/2000/svg" xmlns:xlink="http://www.w3.org/1999/xlink">
    <!-- Generator: Sketch 3.8.3 (29802) - http://www.bohemiancoding.com/sketch -->
    <title>icon/techmology</title>
    <desc>Created with Sketch.</desc>
    <defs></defs>
    <g id="Icons" stroke="none" stroke-width="1" fill="none" fill-rule="evenodd">
        <g id="icon/technology">
            <g id="icon/techmology">
                <g id="techmology">
                    <rect id="Rectangle-path" fill-opacity="0.8" fill="#4A6D22" x="0" y="0" width="72" height="72"></rect>
                    <path d="M59,58 C59.5450007,57.9583333 59.9802913,57.5044378 59.9574946,56.959914 C59.9507338,56.7984254 59.9330343,56.5061106 59.8998925,56.1014597 C59.8451209,55.4327161 59.7658802,54.6889541 59.6576002,53.888568 C59.3478847,51.5992074 58.8667537,49.3083271 58.1749572,47.1607124 C56.1402391,40.8441291 52.7037987,36.9507576 47.5,36.9507576 C46.7401004,36.9507576 45.9680545,37.046554 45.1855728,37.233595 C41.0443736,38.2234894 36.7435864,41.6865536 32.4219172,46.8386631 C30.6450274,48.9569952 28.9851856,51.2226951 27.4859387,53.4881632 C26.9611789,54.2811123 26.4936678,55.0178763 26.0890314,55.6799107 C25.8449152,56.0793145 25.6751003,56.3666643 25.5852591,56.5233824 C25.2190085,57.1622668 25.6802478,57.9583333 26.4166667,58 L59,58 Z M33.8903745,48.0704278 C37.7241957,43.1430727 41.9937729,39.9672124 45.631171,39.0977445 C46.2713154,38.9447272 46.894318,38.8674242 47.5,38.8674242 C51.6593576,38.8674242 54.5418078,42.1331436 56.3506053,47.7483785 C57.0040393,49.7769002 57.462629,51.9604517 57.7582358,54.1455229 C57.8618185,54.911188 58,56 58,56 L28,56 C28,56 32,50.5000002 33.8903745,48.0704278 Z" id="Shape" fill="#FFFFFF"></path>
                    <path d="M23.3598081,42.6780303 C19.9335174,42.6780303 17.1224101,45.4114194 14.7925097,49.8747055 C14.0065228,51.3803856 13.3305918,52.9869493 12.7634043,54.5927645 C12.5650028,55.1544767 12.394147,55.6765913 12.2509197,56.1462226 C12.1641213,56.4308277 12.1052749,56.6368106 12.0745195,56.7512258 C11.9108614,57.3600608 12.3695525,57.9583333 13,58 L26.2818053,58 C26.8110781,57.9583333 27.2401386,57.5292729 27.2401386,57 C27.2401386,56.4707271 26.8110781,56.0416667 26.2818053,56 C26.2818053,56 14.400663,56.0528577 14.2987713,56 C14.3575681,55.8693191 14.5415196,55.3135752 14.5706508,55.2310992 C15.1097483,53.7048121 15.7515895,52.1792735 16.4916054,50.7616582 C18.5217131,46.8726715 20.8644571,44.594697 23.3598081,44.594697 C26.5173935,44.594697 29.2804041,45.8277505 31.409616,48.5709664 C31.73414,48.989074 32.3361619,49.0649384 32.7542695,48.7404143 C33.172377,48.4158903 33.2482414,47.8138684 32.9237174,47.3957608 C30.4149138,44.1634899 27.086315,42.6780303 23.3598081,42.6780303 Z" id="Shape" fill="#FFFFFF"></path>
                    <path d="M21.9308301,23.3382485 L36.3058301,36.7018848 C36.6934704,37.0622524 37.2998506,37.0401435 37.6602182,36.6525032 C38.0205857,36.2648629 37.9984768,35.6584827 37.6108366,35.2981152 L23.2358366,21.9344788 C22.8481963,21.5741112 22.2418161,21.5962201 21.8814485,21.9838604 C21.5210809,22.3715007 21.5431898,22.9778809 21.9308301,23.3382485 L21.9308301,23.3382485 Z" id="Shape" fill="#FFFFFF"></path>
                    <path d="M44.625,37.9090909 C44.625,35.0722658 43.0471423,32.5183815 40.4629839,30.2661802 C39.5827772,29.4990435 38.6436593,28.8208742 37.7043863,28.2361489 C37.1379614,27.8835326 36.6925304,27.6379294 36.4272229,27.5057999 C36.0591085,27.3224702 35.6150647,27.3944379 35.3236992,27.6846518 L27.6570325,35.3210155 C27.3324008,35.6443641 27.2820693,36.152272 27.5369256,36.5330454 C27.5791493,36.5961307 27.6555226,36.7059131 27.7643091,36.8557955 C27.9420844,37.1007283 28.1486993,37.372382 28.3824702,37.6641775 C29.0489929,38.4961386 29.802945,39.327752 30.6322049,40.1065352 C32.5781496,41.9340311 34.635263,43.1962043 36.7711032,43.6216839 C37.2901767,43.7250883 37.7947947,43.3881219 37.8981991,42.8690484 C38.0016035,42.3499748 37.664637,41.8453568 37.1455635,41.7419524 C35.4203499,41.3982735 33.6524101,40.3135271 31.944304,38.7093927 C31.1859418,37.9971917 30.4915938,37.231322 29.8782986,36.4658 C29.6641333,36.1984764 29.4758677,35.9509481 29.3154633,35.7299483 C29.221342,35.6002712 29.1587983,35.5103681 29.1297411,35.4669546 L29.0096341,36.6789845 L36.6763008,29.0426209 L35.5727771,29.2214728 C35.6210226,29.2455002 35.7215187,29.2980521 35.8666972,29.3781011 C36.1143634,29.5146602 36.391812,29.6767512 36.6914471,29.8632829 C37.549049,30.3971656 38.4068061,31.0165815 39.2036828,31.7110926 C41.411191,33.6350276 42.7083333,35.7345524 42.7083333,37.9090909 C42.7083333,38.4383638 43.1373938,38.8674242 43.6666667,38.8674242 C44.1959396,38.8674242 44.625,38.4383638 44.625,37.9090909 L44.625,37.9090909 Z" id="Shape" fill="#FFFFFF"></path>
                    <path d="M21.625,15 L21.625,22.6363636 L22.5833333,21.6780303 L14.9166667,21.6780303 L15.5929675,23.3153482 L23.2596341,15.6789845 L21.625,15 L21.625,15 Z M23.5416667,15 C23.5416667,14.1471309 22.5112951,13.7191413 21.9070325,14.3210155 L14.2403659,21.9573791 C13.6348068,22.5605447 14.0619676,23.594697 14.9166667,23.594697 L22.5833333,23.594697 C23.1126062,23.594697 23.5416667,23.1656365 23.5416667,22.6363636 L23.5416667,15 L23.5416667,15 Z" id="Shape" fill="#FFFFFF"></path>
                </g>
            </g>
        </g>
    </g>
</svg>