<?xml version="1.0" encoding="UTF-8" standalone="no"?>
<svg width="48px" height="44px" viewBox="0 0 48 44" version="1.1" xmlns="http://www.w3.org/2000/svg" xmlns:xlink="http://www.w3.org/1999/xlink">
    <!-- Generator: Sketch 3.8.3 (29802) - http://www.bohemiancoding.com/sketch -->
    <title>technology</title>
    <desc>Created with Sketch.</desc>
    <defs></defs>
    <g id="Icons" stroke="none" stroke-width="1" fill="none" fill-rule="evenodd">
        <g id="technology" fill="#000000">
            <path d="M47,44 C47.5450007,43.9583333 47.9802913,43.5044378 47.9574946,42.959914 C47.9507338,42.7984254 47.9330343,42.5061106 47.8998925,42.1014597 C47.8451209,41.4327161 47.7658802,40.6889541 47.6576002,39.888568 C47.3478847,37.5992074 46.8667537,35.3083271 46.1749572,33.1607124 C44.1402391,26.8441291 40.7037987,22.9507576 35.5,22.9507576 C34.7401004,22.9507576 33.9680545,23.046554 33.1855728,23.233595 C29.0443736,24.2234894 24.7435864,27.6865536 20.4219172,32.8386631 C18.6450274,34.9569952 16.9851856,37.2226951 15.4859387,39.4881632 C14.9611789,40.2811123 14.4936678,41.0178763 14.0890314,41.6799107 C13.8449152,42.0793145 13.6751003,42.3666643 13.5852591,42.5233824 C13.2190085,43.1622668 13.6802478,43.9583333 14.4166667,44 L47,44 Z M21.8903745,34.0704278 C25.7241957,29.1430727 29.9937729,25.9672124 33.631171,25.0977445 C34.2713154,24.9447272 34.894318,24.8674242 35.5,24.8674242 C39.6593576,24.8674242 42.5418078,28.1331436 44.3506053,33.7483785 C45.0040393,35.7769002 45.462629,37.9604517 45.7582358,40.1455229 C45.8618185,40.911188 46,42 46,42 L16,42 C16,42 20,36.5000002 21.8903745,34.0704278 Z" id="Shape"></path>
            <path d="M11.3598081,28.6780303 C7.93351736,28.6780303 5.12241008,31.4114194 2.79250974,35.8747055 C2.00652281,37.3803856 1.33059183,38.9869493 0.763404339,40.5927645 C0.565002829,41.1544767 0.394146961,41.6765913 0.250919665,42.1462226 C0.164121349,42.4308277 0.105274924,42.6368106 0.0745194769,42.7512258 C-0.0891386482,43.3600608 0.369552525,43.9583333 1,44 L14.2818053,44 C14.8110781,43.9583333 15.2401386,43.5292729 15.2401386,43 C15.2401386,42.4707271 14.8110781,42.0416667 14.2818053,42 C14.2818053,42 2.40066298,42.0528577 2.29877133,42 C2.3575681,41.8693191 2.54151962,41.3135752 2.57065083,41.2310992 C3.10974832,39.7048121 3.75158953,38.1792735 4.4916054,36.7616582 C6.52171305,32.8726715 8.86445706,30.594697 11.3598081,30.594697 C14.5173935,30.594697 17.2804041,31.8277505 19.409616,34.5709664 C19.73414,34.989074 20.3361619,35.0649384 20.7542695,34.7404143 C21.172377,34.4158903 21.2482414,33.8138684 20.9237174,33.3957608 C18.4149138,30.1634899 15.086315,28.6780303 11.3598081,28.6780303 Z" id="Shape"></path>
            <path d="M9.93083012,9.33824848 L24.3058301,22.7018848 C24.6934704,23.0622524 25.2998506,23.0401435 25.6602182,22.6525032 C26.0205857,22.2648629 25.9984768,21.6584827 25.6108366,21.2981152 L11.2358366,7.9344788 C10.8481963,7.57411122 10.2418161,7.59622013 9.88144849,7.98386042 C9.52108092,8.37150071 9.54318982,8.9778809 9.93083012,9.33824848 L9.93083012,9.33824848 Z" id="Shape"></path>
            <path d="M32.625,23.9090909 C32.625,21.0722658 31.0471423,18.5183815 28.4629839,16.2661802 C27.5827772,15.4990435 26.6436593,14.8208742 25.7043863,14.2361489 C25.1379614,13.8835326 24.6925304,13.6379294 24.4272229,13.5057999 C24.0591085,13.3224702 23.6150647,13.3944379 23.3236992,13.6846518 L15.6570325,21.3210155 C15.3324008,21.6443641 15.2820693,22.152272 15.5369256,22.5330454 C15.5791493,22.5961307 15.6555226,22.7059131 15.7643091,22.8557955 C15.9420844,23.1007283 16.1486993,23.372382 16.3824702,23.6641775 C17.0489929,24.4961386 17.802945,25.327752 18.6322049,26.1065352 C20.5781496,27.9340311 22.635263,29.1962043 24.7711032,29.6216839 C25.2901767,29.7250883 25.7947947,29.3881219 25.8981991,28.8690484 C26.0016035,28.3499748 25.664637,27.8453568 25.1455635,27.7419524 C23.4203499,27.3982735 21.6524101,26.3135271 19.944304,24.7093927 C19.1859418,23.9971917 18.4915938,23.231322 17.8782986,22.4658 C17.6641333,22.1984764 17.4758677,21.9509481 17.3154633,21.7299483 C17.221342,21.6002712 17.1587983,21.5103681 17.1297411,21.4669546 L17.0096341,22.6789845 L24.6763008,15.0426209 L23.5727771,15.2214728 C23.6210226,15.2455002 23.7215187,15.2980521 23.8666972,15.3781011 C24.1143634,15.5146602 24.391812,15.6767512 24.6914471,15.8632829 C25.549049,16.3971656 26.4068061,17.0165815 27.2036828,17.7110926 C29.411191,19.6350276 30.7083333,21.7345524 30.7083333,23.9090909 C30.7083333,24.4383638 31.1373938,24.8674242 31.6666667,24.8674242 C32.1959396,24.8674242 32.625,24.4383638 32.625,23.9090909 L32.625,23.9090909 Z" id="Shape"></path>
            <path d="M11.5416667,1 C11.5416667,0.14713086 10.5112951,-0.280858712 9.90703253,0.321015463 L2.24036586,7.9573791 C1.63480676,8.56054468 2.06196757,9.59469697 2.91666667,9.59469697 L10.5833333,9.59469697 C11.1126062,9.59469697 11.5416667,9.16563652 11.5416667,8.63636364 L11.5416667,1 Z M9.63232422,7.6780303 L5.2537201,7.66115979 L9.63106335,3.30111828 L9.63232422,7.6780303 Z" id="Shape"></path>
        </g>
    </g>
</svg>