<?xml version="1.0" encoding="UTF-8" standalone="no"?>
<svg width="14px" height="16px" viewBox="0 0 14 16" version="1.1" xmlns="http://www.w3.org/2000/svg" xmlns:xlink="http://www.w3.org/1999/xlink">
    <!-- Generator: Sketch 3.8.3 (29802) - http://www.bohemiancoding.com/sketch -->
    <title>thumbup</title>
    <desc>Created with Sketch.</desc>
    <defs></defs>
    <g id="Icons" stroke="none" stroke-width="1" fill="none" fill-rule="evenodd">
        <path d="M10.192,5.65527234 C10.075625,5.3397217 13.288625,2.42510046 11.41525,0.0633594939 C10.976875,-0.488631903 9.489375,2.70776272 7.377125,4.15485128 C6.211625,4.95306106 3.5,6.65259013 3.5,7.59213104 L3.5,13.673814 C3.5,14.8035742 7.79975,16 11.067,16 C12.264875,16 14,8.3770077 14,7.1663599 C14,5.95037885 10.306625,5.97171185 10.192,5.65527234 L10.192,5.65527234 Z M2.625,5.73971547 C2.04925,5.73971547 0,6.09526548 0,8.5156722 L0,12.8249384 C0,15.2435673 2.04925,15.5102299 2.625,15.5102299 C3.199875,15.5102299 1.75,15.0017933 1.75,13.5013723 L1.75,7.83657168 C1.75,6.26504061 3.199875,5.73971547 2.625,5.73971547 L2.625,5.73971547 Z" id="thumbup" fill="#000000"></path>
    </g>
</svg>