<?xml version="1.0" encoding="UTF-8" standalone="no"?>
<svg width="30px" height="21px" viewBox="0 0 30 21" version="1.1" xmlns="http://www.w3.org/2000/svg" xmlns:xlink="http://www.w3.org/1999/xlink" xmlns:sketch="http://www.bohemiancoding.com/sketch/ns">
    <!-- Generator: Sketch 3.2.2 (9983) - http://www.bohemiancoding.com/sketch -->
    <title>video</title>
    <desc>Created with Sketch.</desc>
    <defs></defs>
    <g id="Assets" stroke="none" stroke-width="1" fill="none" fill-rule="evenodd" sketch:type="MSPage">
        <path d="M30,3 L30,1.1985 C30,0.5355 29.4645,0 28.8015,0 L1.2015,0 C0.537,0 0,0.5355 0,1.1985 L0,3 L3,3 L3,6 L0,6 L0,9 L3,9 L3,12 L0,12 L0,15 L3,15 L3,18 L0,18 L0,19.7985 C0,20.4615 0.537,21 1.2015,21 L28.8015,21 C29.4645,21 30,20.4615 30,19.7985 L30,18 L27,18 L27,15 L30,15 L30,12 L27,12 L27,9 L30,9 L30,6 L27,6 L27,3 L30,3 L30,3 Z M12,15 L12,6 L19.5,10.5 L12,15 L12,15 Z" id="video" fill="#000000" sketch:type="MSShapeGroup"></path>
    </g>
</svg>