<?xml version="1.0" encoding="UTF-8" standalone="no"?>
<svg width="50px" height="28px" viewBox="0 0 50 28" version="1.1" xmlns="http://www.w3.org/2000/svg" xmlns:xlink="http://www.w3.org/1999/xlink">
    <!-- Generator: Sketch 39 (31667) - http://www.bohemiancoding.com/sketch -->
    <title>view</title>
    <desc>Created with Sketch.</desc>
    <defs></defs>
    <g id="Icons" stroke="none" stroke-width="1" fill="none" fill-rule="evenodd">
        <path d="M49.2756426,14 L48.7839186,13.3791364 C48.6951018,13.2669939 48.5293062,13.0659258 48.2902911,12.7885826 C47.8965425,12.3316928 47.4372043,11.8240007 46.9159877,11.2781508 C45.4295498,9.72146233 43.7411648,8.16558986 41.8794603,6.7118321 C36.5170653,2.52447416 30.817191,0 25,0 C19.182809,0 13.4829347,2.52447416 8.12053972,6.7118321 C6.25883516,8.16558986 4.57045023,9.72146233 3.08401235,11.2781508 C2.56279566,11.8240007 2.10345745,12.3316928 1.70970886,12.7885826 C1.47069384,13.0659258 1.30489823,13.2669939 1.21608136,13.3791364 L0.724357417,14 L1.21608136,14.6208636 C1.30489823,14.7330061 1.47069384,14.9340742 1.70970886,15.2114174 C2.10345745,15.6683072 2.56279566,16.1759993 3.08401235,16.7218492 C4.57045023,18.2785377 6.25883516,19.8344101 8.12053972,21.2881679 C13.4829347,25.4755258 19.182809,28 25,28 C30.817191,28 36.5170653,25.4755258 41.8794603,21.2881679 C43.7411648,19.8344101 45.4295498,18.2785377 46.9159877,16.7218492 C47.4372043,16.1759993 47.8965425,15.6683072 48.2902911,15.2114174 C48.5293062,14.9340742 48.6951018,14.7330061 48.7839186,14.6208636 L49.2756426,14 Z M46.7752714,13.9057701 C46.4031606,14.3375522 45.9665769,14.8200944 45.4695123,15.3406508 C44.0465752,16.8308373 42.4285852,18.3218399 40.6485397,19.7118321 C35.6059347,23.6494742 30.298809,26 25,26 C19.701191,26 14.3940653,23.6494742 9.35146028,19.7118321 C7.57141484,18.3218399 5.95342477,16.8308373 4.53048765,15.3406508 C4.03342309,14.8200944 3.59683942,14.3375522 3.22472864,13.9057701 C3.00422803,13.6499102 2.85597677,13.4701189 2.78391864,13.3791364 L2.78391864,14.6208636 C2.85597677,14.5298811 3.00422803,14.3500898 3.22472864,14.0942299 C3.59683942,13.6624478 4.03342309,13.1799056 4.53048765,12.6593492 C5.95342477,11.1691627 7.57141484,9.67816014 9.35146028,8.2881679 C14.3940653,4.35052584 19.701191,2 25,2 C30.298809,2 35.6059347,4.35052584 40.6485397,8.2881679 C42.4285852,9.67816014 44.0465752,11.1691627 45.4695123,12.6593492 C45.9665769,13.1799056 46.4031606,13.6624478 46.7752714,14.0942299 C46.995772,14.3500898 47.1440232,14.5298811 47.2160814,14.6208636 L47.2160814,13.3791364 C47.1440232,13.4701189 46.995772,13.6499102 46.7752714,13.9057701 Z M34,14 C34,9.02943725 29.9705627,5 25,5 C20.0294373,5 16,9.02943725 16,14 C16,18.9705627 20.0294373,23 25,23 C29.9705627,23 34,18.9705627 34,14 Z M18,14 C18,10.1340068 21.1340068,7 25,7 C28.8659932,7 32,10.1340068 32,14 C32,17.8659932 28.8659932,21 25,21 C21.1340068,21 18,17.8659932 18,14 Z M28,14 C28,15.6557153 26.6557153,17 25,17 C23.3442847,17 22,15.6557153 22,14 L20,14 C20,16.7602847 22.2397153,19 25,19 C27.7602847,19 30,16.7602847 30,14 C30,11.2397153 27.7602847,9 25,9 L25,11 C26.6557153,11 28,12.3442847 28,14 Z" id="view" fill="#000000"></path>
    </g>
</svg>