<?xml version="1.0" encoding="UTF-8" standalone="no"?>
<svg xmlns="http://www.w3.org/2000/svg" viewBox="0 0 72 72">
    <title>watershed</title>
    <g id="Ebene_2" data-name="Ebene 2"><g id="Ebene_1-2" data-name="Ebene 1"><path class="cls-2" d="M34.56,29.13a1.05,1.05,0,0,1-.75-.31L23.2,18.22,12.6,28.82a1.06,1.06,0,0,1-1.5-1.5L22.45,16A1.06,1.06,0,0,1,24,16L34.41,26.43l9.87-14.2a1.06,1.06,0,0,1,.78-.45,1.09,1.09,0,0,1,.84.31l15,15.23a1.06,1.06,0,0,1-1.51,1.48L45.29,14.49,35.43,28.68a1.06,1.06,0,0,1-.77.45Z"/><path class="cls-2" d="M35.58,34.37a6,6,0,0,1,3.67,3.3c1,3.2-6.45,5.56-7.13,11.06-.63,5.16,4.93,11.18,7.2,10.55a1.57,1.57,0,0,0,1-1c.94-2.48-5.46-4.7-6.05-9-.69-5,7.08-8.29,5.64-12.05A5.87,5.87,0,0,0,35.58,34a3.52,3.52,0,0,0-1.33,0A9.77,9.77,0,0,0,35.58,34.37Z"/><path class="cls-2" d="M32.22,41"/><path class="cls-2" d="M33.6,40.38"/></g></g>y
</svg>
