<?xml version="1.0" encoding="UTF-8" standalone="no"?>
<svg xmlns="http://www.w3.org/2000/svg" viewBox="0 0 72 72">
    <title>watershed</title>
    <g id="Ebene_2" data-name="Ebene 2" fill="none" stroke-width="1"><g id="Ebene_1-2" data-name="Ebene 1"><rect class="cls-1" width="72" height="72"/><path class="cls-2" d="M35.53,33.65s-.27,0-.27-.15.23-.16.23-.16c.43,0,10.05-.13,10.23,4.15.14,3.27-3.36,4.45-7.53,5-4.45.6-8.43,1.66-9.07,6a6.14,6.14,0,0,0,1.26,4.27c2.3,3.33,10,3.79,10.28,5.73.32,2.21-3.06,1.52-3.06,1.52-.26,0-7.06-1.5-9.66-5.05a7.82,7.82,0,0,1-1.67-6.6c.82-5.76,7.1-6.47,11.7-7.09,4.31-.58,6.45-1.64,6.82-3.56C45.57,33.81,35.62,33.65,35.53,33.65Z"/><path class="cls-2" d="M34.56,29.13a1.05,1.05,0,0,1-.75-.31L23.2,18.22,12.6,28.82a1.06,1.06,0,0,1-1.5-1.5L22.45,16A1.06,1.06,0,0,1,24,16L34.41,26.43l9.87-14.2a1.06,1.06,0,0,1,.78-.45,1.09,1.09,0,0,1,.84.31l15,15.23a1.06,1.06,0,0,1-1.51,1.48L45.29,14.49,35.43,28.68a1.06,1.06,0,0,1-.77.45Z"/></g></g>
</svg>
